<svg width="134" height="134" viewBox="0 0 134 134" fill="none" xmlns="http://www.w3.org/2000/svg">
<rect x="0.373779" y="0.550293" width="133.411" height="133.411" fill="#EFC0BB"/>
<path fill-rule="evenodd" clip-rule="evenodd" d="M91.8428 41.9913C93.0098 40.8345 94.5851 40.1835 96.2281 40.179C97.8712 40.1744 99.4501 40.8168 100.623 41.967C101.797 43.1173 102.47 44.6832 102.498 46.326C102.526 47.9689 101.906 49.5568 100.773 50.7464L67.487 92.354C66.9149 92.9702 66.2244 93.4647 65.4569 93.8079C64.6893 94.1511 63.8604 94.3361 63.0198 94.3516C62.1791 94.3672 61.344 94.2131 60.5642 93.8985C59.7845 93.5839 59.0762 93.1153 58.4817 92.5208L36.4272 70.4579C35.8128 69.8854 35.3199 69.195 34.9781 68.4278C34.6363 67.6607 34.4526 66.8326 34.4377 65.993C34.4229 65.1533 34.5774 64.3192 34.8919 63.5405C35.2064 62.7618 35.6746 62.0545 36.2684 61.4606C36.8623 60.8668 37.5696 60.3987 38.3483 60.0841C39.127 59.7696 39.9611 59.6151 40.8007 59.63C41.6404 59.6448 42.4685 59.8286 43.2356 60.1704C44.0027 60.5122 44.6931 61.005 45.2657 61.6194L62.7258 79.0712L91.6844 42.1747C91.7361 42.1101 91.7918 42.0488 91.8512 41.9913H91.8428Z" fill="white"/>
</svg>
