<svg width="18" height="20" viewBox="0 0 18 20" fill="none" xmlns="http://www.w3.org/2000/svg">
<path d="M4.31293 4.6294C3.19642 6.28319 2.04332 8.13675 2.10698 10.007C1.67515 19.0139 12.8868 21.0699 15.679 12.4958C16.2421 10.534 15.8217 8.39191 15.5247 6.68541C14.1536 0.858363 7.46576 -0.368039 4.31293 4.6294Z" fill="#EFC0BB"/>
<path d="M5.85039 8.26319L4.47839 9.63519C3.91574 10.1978 3.59964 10.961 3.59964 11.7567C3.59964 12.5524 3.91574 13.3155 4.47839 13.8782C5.04105 14.4408 5.80418 14.7569 6.59989 14.7569C7.39561 14.7569 8.15874 14.4408 8.72139 13.8782L10.5494 12.0492C10.8887 11.7098 11.1416 11.2941 11.287 10.8367C11.4323 10.3794 11.4659 9.89389 11.3848 9.42093C11.3036 8.94796 11.1103 8.50136 10.8208 8.1186C10.5314 7.73584 10.1544 7.42809 9.72139 7.22119L9.13539 7.80719C9.07589 7.86678 9.02415 7.93364 8.98139 8.00619C9.31592 8.10236 9.61956 8.28417 9.86229 8.53365C10.105 8.78313 10.2784 9.09163 10.3654 9.42867C10.4524 9.76571 10.4499 10.1196 10.3581 10.4554C10.2664 10.7912 10.0886 11.0972 9.84239 11.3432L8.01539 13.1712C7.64011 13.5465 7.13112 13.7573 6.60039 13.7573C6.06967 13.7573 5.56068 13.5465 5.18539 13.1712C4.81011 12.7959 4.59928 12.2869 4.59928 11.7562C4.59928 11.2255 4.81011 10.7165 5.18539 10.3412L5.97839 9.54919C5.86651 9.12992 5.82328 8.69529 5.85039 8.26219V8.26319Z" fill="white"/>
<path d="M6.84739 8.6812L7.01439 8.5142C7.26215 8.26554 7.57127 8.08682 7.91039 7.9962C8.00101 7.65708 8.17972 7.34796 8.42839 7.1002L8.59539 6.9332C8.09236 6.90492 7.59029 7.00362 7.13539 7.2202C6.91539 7.6802 6.81939 8.1832 6.84739 8.6802V8.6812Z" fill="white"/>
<path d="M7.72139 6.39316C7.3821 6.7325 7.12916 7.14828 6.9838 7.60561C6.83845 8.06293 6.80492 8.54846 6.88603 9.02142C6.96715 9.49439 7.16053 9.94099 7.44996 10.3238C7.73939 10.7065 8.11642 11.0143 8.54939 11.2212L9.32439 10.4452C8.98534 10.3542 8.6762 10.1756 8.42803 9.92736C8.17986 9.67908 8.00141 9.36987 7.91061 9.03078C7.8198 8.69169 7.81985 8.33467 7.91074 7.9956C8.00163 7.65654 8.18016 7.34736 8.42839 7.09916L10.2554 5.27116C10.6307 4.89587 11.1397 4.68504 11.6704 4.68504C12.2011 4.68504 12.7101 4.89587 13.0854 5.27116C13.4607 5.64644 13.6715 6.15543 13.6715 6.68616C13.6715 7.21688 13.4607 7.72587 13.0854 8.10116L12.2924 8.89316C12.4044 9.31316 12.4474 9.74815 12.4204 10.1802L13.7924 8.80816C14.3551 8.2455 14.6711 7.48237 14.6711 6.68666C14.6711 5.89094 14.3551 5.12781 13.7924 4.56516C13.2297 4.0025 12.4666 3.6864 11.6709 3.6864C10.8752 3.6864 10.1121 4.0025 9.54939 4.56516L7.72139 6.39316Z" fill="white"/>
<path d="M11.1354 11.2211C11.3529 10.7665 11.452 10.2643 11.4234 9.76111L11.2564 9.92811C11.0086 10.1768 10.6995 10.3555 10.3604 10.4461C10.2698 10.7852 10.0911 11.0944 9.84238 11.3421L9.67538 11.5091C10.1784 11.5374 10.6805 11.4387 11.1354 11.2221V11.2211Z" fill="white"/>
</svg>
