<svg width="54" height="60" viewBox="0 0 54 60" fill="none" xmlns="http://www.w3.org/2000/svg">
<path d="M11.654 13.963C8.13753 19.1716 4.50582 25.0095 4.70632 30.8998C3.34624 59.2676 38.6579 65.743 47.4519 38.7385C49.2253 32.5597 47.9013 25.8131 46.966 20.4385C42.6474 2.08596 21.584 -1.77664 11.654 13.963Z" fill="#EFC0BB"/>
<path d="M34.2686 33.2195C33.8622 33.0138 31.8832 32.0481 31.5133 31.9103C31.1434 31.7785 30.8749 31.7096 30.6053 32.116C30.3419 32.5122 29.5656 33.4192 29.3285 33.6836C29.0914 33.9481 28.8583 33.9684 28.458 33.789C28.0517 33.5833 26.7536 33.1607 25.2123 31.7785C24.0085 30.7074 23.2069 29.3881 22.9688 28.9817C22.7316 28.5804 22.9424 28.3534 23.1431 28.1528C23.3275 27.9684 23.5494 27.6887 23.7551 27.4455C23.9507 27.2023 24.0135 27.0391 24.1564 26.7757C24.2881 26.4909 24.2202 26.269 24.1199 26.0684C24.0196 25.8677 23.212 23.8785 22.8745 23.0861C22.5523 22.2997 22.2148 22.4 21.9666 22.4C21.7345 22.3788 21.465 22.3788 21.1964 22.3788C20.9279 22.3788 20.4891 22.4791 20.1192 22.8642C19.7494 23.2705 18.7046 24.2413 18.7046 26.2052C18.7046 28.1741 20.1507 30.0792 20.3513 30.3639C20.557 30.6274 23.1958 34.6808 27.2441 36.4227C28.2098 36.8291 28.9597 37.0723 29.5454 37.2729C30.5111 37.5789 31.3927 37.5364 32.0889 37.436C32.859 37.3094 34.4743 36.4592 34.8127 35.5097C35.1563 34.5541 35.1563 33.7627 35.0559 33.5833C34.9556 33.3989 34.6921 33.2986 34.2858 33.1192L34.2686 33.2195ZM26.9269 43.1736H26.9056C24.509 43.1736 22.1398 42.524 20.0706 41.3101L19.5852 41.0202L14.5185 42.3396L15.8804 37.4097L15.5531 36.903C14.215 34.7754 13.505 32.313 13.5051 29.7995C13.5051 22.4426 19.5274 16.4416 26.937 16.4416C30.5263 16.4416 33.8936 17.84 36.427 20.3734C37.6767 21.6082 38.668 23.0796 39.3431 24.7016C40.0181 26.3236 40.3634 28.0639 40.3588 29.8208C40.3486 37.1726 34.3314 43.1736 26.932 43.1736H26.9269ZM38.3534 18.447C35.2708 15.4698 31.2174 13.7866 26.9056 13.7866C18.0125 13.7866 10.7711 20.9966 10.7661 29.8572C10.7661 32.6865 11.5048 35.4469 12.9194 37.89L10.6293 46.2136L19.19 43.9812C21.5615 45.2598 24.2124 45.9324 26.9066 45.939H26.9117C35.8099 45.939 43.0512 38.7291 43.0563 29.8623C43.0563 25.5718 41.3833 21.5336 38.3331 18.4987L38.3534 18.447Z" fill="white"/>
</svg>
