<svg width="54" height="60" viewBox="0 0 54 60" fill="none" xmlns="http://www.w3.org/2000/svg">
<path d="M11.7874 13.963C8.27095 19.1716 4.63924 25.0095 4.83975 30.8998C3.47967 59.2676 38.7913 65.743 47.5854 38.7385C49.3587 32.5597 48.0348 25.8131 47.0994 20.4385C42.7809 2.08596 21.7174 -1.77664 11.7874 13.963Z" fill="#EFC0BB"/>
<path d="M26.976 21.6182C24.6912 21.6182 22.5 22.5258 20.8843 24.1414C19.2687 25.757 18.3611 27.9483 18.3611 30.2331C18.3611 32.5179 19.2687 34.7092 20.8843 36.3248C22.5 37.9404 24.6912 38.8481 26.976 38.8481C29.2609 38.8481 31.4521 37.9404 33.0677 36.3248C34.6833 34.7092 35.591 32.5179 35.591 30.2331C35.591 27.9483 34.6833 25.757 33.0677 24.1414C31.4521 22.5258 29.2609 21.6182 26.976 21.6182V21.6182ZM26.976 35.828C25.4917 35.828 24.0681 35.2383 23.0185 34.1887C21.969 33.1391 21.3793 31.7156 21.3793 30.2312C21.3793 28.7469 21.969 27.3234 23.0185 26.2738C24.0681 25.2242 25.4917 24.6345 26.976 24.6345C28.4604 24.6345 29.8839 25.2242 30.9335 26.2738C31.9831 27.3234 32.5728 28.7469 32.5728 30.2312C32.5728 31.7156 31.9831 33.1391 30.9335 34.1887C29.8839 35.2383 28.4604 35.828 26.976 35.828V35.828Z" fill="white"/>
<path d="M42.5514 19.4507C42.1286 18.3605 41.4824 17.3703 40.6542 16.5438C39.826 15.7172 38.8341 15.0724 37.742 14.6506C36.464 14.1716 35.1139 13.9126 33.7491 13.8846C31.99 13.808 31.4329 13.7861 26.9724 13.7861C22.5118 13.7861 21.9401 13.7861 20.1957 13.8846C18.8319 13.9112 17.4827 14.1702 16.2064 14.6506C15.1139 15.0719 14.1218 15.7165 13.2936 16.5432C12.4653 17.3698 11.8193 18.3602 11.3969 19.4507C10.9171 20.7267 10.6583 22.0748 10.6316 23.4375C10.553 25.192 10.5293 25.7482 10.5293 30.2037C10.5293 34.6573 10.5293 35.2245 10.6316 36.9698C10.659 38.334 10.9165 39.68 11.3969 40.9584C11.8205 42.0486 12.4671 43.0386 13.2956 43.8651C14.124 44.6916 15.116 45.3365 16.2082 45.7586C17.4821 46.2568 18.8319 46.5344 20.1993 46.5793C21.9583 46.6559 22.5155 46.6796 26.976 46.6796C31.4366 46.6796 32.0083 46.6796 33.7527 46.5793C35.1174 46.5515 36.4675 46.2932 37.7457 45.8151C38.8375 45.3923 39.8291 44.747 40.6572 43.9202C41.4853 43.0934 42.1317 42.1033 42.5551 41.0131C43.0355 39.7365 43.293 38.3906 43.3204 37.0264C43.399 35.2719 43.4227 34.7157 43.4227 30.2602C43.4227 25.8047 43.4227 25.2394 43.3204 23.494C43.2992 22.1121 43.039 20.7443 42.5514 19.4507V19.4507ZM40.3266 36.8349C40.3149 37.8859 40.1227 38.9272 39.7586 39.9134C39.4843 40.6226 39.0643 41.2666 38.5257 41.8041C37.9872 42.3415 37.3419 42.7604 36.6314 43.0339C35.6546 43.3958 34.6228 43.5876 33.581 43.6011C31.8457 43.6813 31.3562 43.7014 26.9066 43.7014C22.4534 43.7014 21.9985 43.7014 20.2304 43.6011C19.1891 43.5883 18.1578 43.3965 17.1818 43.0339C16.4688 42.7621 15.821 42.3439 15.2801 41.8064C14.7392 41.2689 14.3174 40.624 14.0419 39.9134C13.6828 38.9378 13.4908 37.9088 13.4738 36.8695C13.3952 35.137 13.377 34.6482 13.377 30.2055C13.377 25.761 13.377 25.3069 13.4738 23.5396C13.4856 22.4892 13.6777 21.4485 14.0419 20.4629C14.599 19.024 15.7406 17.8914 17.1818 17.3407C18.1583 16.9798 19.1893 16.788 20.2304 16.7735C21.9675 16.695 22.4552 16.6732 26.9066 16.6732C31.358 16.6732 31.8147 16.6732 33.581 16.7735C34.6229 16.786 35.6549 16.9779 36.6314 17.3407C37.3418 17.6147 37.987 18.0341 38.5256 18.5717C39.0641 19.1094 39.4841 19.7536 39.7586 20.4629C40.1176 21.4386 40.3096 22.4675 40.3266 23.5068C40.4052 25.2412 40.4253 25.7281 40.4253 30.1727C40.4253 34.6154 40.4253 35.0932 40.3467 36.8367H40.3266V36.8349Z" fill="white"/>
</svg>
