<svg width="54" height="60" viewBox="0 0 54 60" fill="none" xmlns="http://www.w3.org/2000/svg">
<path d="M11.8784 13.963C8.36189 19.1717 4.73018 25.0095 4.93069 30.8998C3.57061 59.2676 38.8822 65.743 47.6763 38.7385C49.4497 32.5598 48.1257 25.8131 47.1903 20.4385C42.8718 2.08596 21.8084 -1.77664 11.8784 13.963Z" fill="#EFC0BB"/>
<path d="M14.0202 14.0542C12.4342 14.0542 11.1208 15.3676 11.1208 16.9535V43.0472C11.1208 44.6331 12.4342 45.9465 14.0202 45.9465H40.1139C41.6998 45.9465 43.0132 44.6331 43.0132 43.0472V16.9535C43.0132 15.3676 41.6998 14.0542 40.1139 14.0542H14.0202ZM14.0202 16.9535H40.1139V43.0472H32.5931V33.2621H36.3535L36.8971 28.9131H32.5945V26.1037C32.5945 24.8367 32.9048 23.9756 34.7226 23.9756H37.0783V20.034C36.6768 19.9833 35.2836 19.8977 33.6818 19.8977C30.3403 19.8977 28.0644 21.9084 28.0644 25.6514V28.9131H24.259V33.2621H28.0629V43.0472H14.0202V16.9535Z" fill="white"/>
</svg>
