<svg width="80" height="88" viewBox="0 0 80 88" fill="none" xmlns="http://www.w3.org/2000/svg">
<g filter="url(#filter0_d)">
<path d="M19.6875 18.2951C14.9847 25.261 10.1278 33.0683 10.3959 40.9457C8.57702 78.8837 55.8013 87.5437 67.5622 51.4288C69.9338 43.1657 68.1632 34.143 66.9122 26.9552C61.1368 2.41128 32.9674 -2.7544 19.6875 18.2951Z" fill="#BA68C8"/>
<path fill-rule="evenodd" clip-rule="evenodd" d="M41.5974 43.1787C43.4227 40.0184 46.6171 38.1051 50.0474 38.1136C55.5392 38.1136 60.0002 42.9652 60.0002 48.9272C60.0002 54.8891 55.5235 59.7407 50.0317 59.7407C49.1899 59.7578 48.348 59.6382 47.5376 59.3905H20.5903C20.2441 59.3905 20.0002 59.1001 20.0002 58.7243V51.9423C20.0002 48.2353 22.7382 45.2116 26.1529 45.2116H29.5203V44.1269C26.8767 43.0165 24.9019 40.5651 24.241 37.5755C23.1395 37.473 22.2662 36.4139 22.2662 35.1241C22.2662 34.4835 22.4865 33.8685 22.8877 33.3987C23.1867 33.04 23.5801 32.8008 24.0128 32.7154V29.2561C24.0128 28.6411 24.0128 28.0347 24.1702 27.4539H24.1545C24.3433 26.3264 24.7288 25.2416 25.2796 24.2679C25.311 24.1398 25.374 24.0373 25.4605 23.9518C25.7752 23.4394 26.1371 22.961 26.5384 22.5254C29.4495 19.3736 33.9814 18.8355 37.4511 21.2357C38.4975 21.9617 39.3866 22.9098 40.0632 24.0373C41.4715 22.4913 43.6745 22.1923 45.3897 23.3112C45.5628 23.4223 45.7201 23.5419 45.8696 23.6785C47.5533 25.1647 47.9703 27.7614 46.8531 29.7771C46.0585 31.1865 44.6501 32.0492 43.1238 32.0492C42.5652 32.0492 42.0065 31.9296 41.4794 31.699V32.7154C41.9121 32.8008 42.3055 33.04 42.5966 33.3987C42.9979 33.8685 43.2182 34.4835 43.2182 35.1241C43.2182 36.4139 42.3527 37.4816 41.2512 37.5755C40.8736 39.2582 40.0711 40.7957 38.9381 42.0171C38.1828 42.8542 37.2858 43.5204 36.2945 43.9816V45.2116H40.6769C40.9208 44.5027 41.2276 43.8194 41.5974 43.1787ZM23.824 34.3298C23.6352 34.5433 23.525 34.8252 23.525 35.1241C23.525 35.517 23.7217 35.8929 24.0364 36.0978C24.0176 35.8861 24.0188 35.6689 24.0201 35.4505C24.0204 35.3959 24.0207 35.3411 24.0207 35.2864V34.1675C23.9499 34.2102 23.8791 34.2614 23.824 34.3298ZM40.315 46.5783H38.7257V49.2859C39.182 49.397 39.5911 49.6532 39.9137 50.0119C40.0002 50.1059 40.0868 50.1999 40.1576 50.3023C40.016 49.0553 40.0632 47.7997 40.315 46.5783ZM39.3629 51.558C39.3 51.3359 39.1899 51.1394 39.0404 50.9771C38.8043 50.7123 38.4739 50.5671 38.1356 50.5671C37.7894 50.5671 37.4589 50.7123 37.215 50.9771C36.7036 51.5323 36.7115 52.4206 37.215 52.9673C37.4589 53.2321 37.7894 53.3773 38.1277 53.3773C38.8358 53.3773 39.418 52.7452 39.418 51.9679C39.418 51.8313 39.4023 51.6946 39.3629 51.558ZM41.4873 34.1675V35.2779C41.4873 35.5597 41.4873 35.8245 41.4637 36.0978C41.7784 35.8929 41.9672 35.517 41.9593 35.1241C41.9593 34.8337 41.857 34.5518 41.6761 34.3298C41.621 34.2614 41.5581 34.2102 41.4873 34.1675ZM45.7988 29.0597C46.0349 28.6326 46.1765 28.1543 46.2237 27.6503L42.3449 30.5544C43.6745 30.9473 45.0829 30.3409 45.7988 29.0597ZM46.0191 26.1385C45.909 25.8139 45.7516 25.4979 45.5471 25.2245L41.4558 28.2995C41.4873 28.6155 41.4873 28.9315 41.4873 29.2476V29.5124L46.0191 26.1385ZM41.2276 26.8303L44.5164 24.3362C43.1946 23.6444 41.6131 24.0458 40.7241 25.3014C40.9365 25.7968 41.1017 26.3093 41.2276 26.8303ZM32.754 21.1075C30.7634 21.099 28.8515 21.9617 27.4432 23.4906L27.4432 23.4906C27.3252 23.6187 27.2072 23.7469 27.1049 23.8835C28.7886 23.9177 31.1647 23.4308 33.3677 21.1332C33.1631 21.1161 32.9585 21.1075 32.754 21.1075ZM27.2544 25.2502C26.9161 25.2502 26.5777 25.2331 26.2394 25.1989C25.9247 25.7883 25.6808 26.4118 25.5156 27.0695C26.7272 27.3172 27.9703 27.3428 29.1899 27.1549C32.1403 26.6766 34.5085 24.9597 36.2473 22.0471C35.8067 21.7909 35.3346 21.5859 34.8468 21.4321C32.2504 24.5583 29.3315 25.2502 27.2544 25.2502ZM27.5927 28.6411C26.8216 28.6411 26.0585 28.5643 25.3032 28.4105C25.2796 28.6924 25.2717 28.9742 25.2796 29.2561V30.375C27.0891 30.7765 33.8319 31.8015 36.9161 26.0445C37.0341 25.8054 37.278 25.6772 37.5297 25.7114C37.7815 25.7541 37.9861 25.9506 38.049 26.2239C38.049 26.241 38.5919 28.2568 40.2441 29.6661V29.2476C40.2441 28.829 40.2205 28.4105 40.1655 28.0005C40.0553 27.1891 39.8272 26.3947 39.4967 25.6601C39.4495 25.5918 39.418 25.5149 39.3944 25.4381C38.883 24.396 38.1749 23.4906 37.3173 22.7731C34.8862 26.8474 31.6604 28.1457 29.3315 28.5045C28.7571 28.5984 28.1749 28.6411 27.5927 28.6411ZM25.2796 35.2779C25.2796 35.7562 25.311 36.2345 25.3818 36.7043C25.846 39.6511 27.7737 42.0684 30.3858 43.0079C31.1411 43.2898 31.9436 43.4264 32.7461 43.4264C33.643 43.4264 34.5321 43.2556 35.374 42.914C36.381 42.504 37.2937 41.8634 38.049 41.0434C39.1348 39.8646 39.8586 38.3528 40.1261 36.7128C40.1969 36.2345 40.2363 35.7562 40.2284 35.2779V31.3061C38.6548 30.3153 37.7579 28.8888 37.2858 27.8553C34.8704 31.2975 31.204 32.0663 28.3952 32.0663C27.3488 32.0663 26.3102 31.9638 25.2796 31.7588V35.2779ZM21.267 58.0239H32.1246V49.2005L29.8744 46.5783H27.9546V49.3372C29.4102 49.6617 30.4644 51.0455 30.4723 52.6598V56.4437C30.4723 56.8195 30.1891 57.1697 29.8429 57.1697H28.5919C28.2457 57.1697 27.9625 56.8622 27.9625 56.4864C27.9625 56.1106 28.2457 55.8031 28.5919 55.8031H29.2135V52.6598C29.2135 51.5409 28.3716 50.6782 27.3488 50.6782H27.3252H27.2937C26.2945 50.6953 25.4999 51.5836 25.5156 52.6598V55.8031H25.8539C26.2001 55.8031 26.4833 56.1106 26.4833 56.4864C26.4833 56.8622 26.2001 57.1697 25.8539 57.1697H24.8547C24.5085 57.1697 24.2567 56.8195 24.2567 56.4437V52.6598C24.2567 51.7629 24.5793 50.9003 25.1615 50.2596C25.5864 49.8069 26.1135 49.4909 26.6958 49.3457V46.5783H26.1607C23.4385 46.5783 21.267 48.9955 21.267 51.9423V58.0239ZM30.787 44.5454V45.6302L32.8091 47.9534L35.0356 45.6131V44.46C33.6509 44.87 32.1875 44.8956 30.787 44.5454ZM33.3834 49.2176V58.0239H44.6659C43.9892 57.5797 43.3755 57.033 42.8405 56.401C41.857 55.282 41.1017 53.9496 40.6375 52.489C40.4566 53.5396 39.7249 54.3852 38.7729 54.6585C37.4039 55.0429 36.0034 54.1631 35.6493 52.6769C35.2953 51.1907 36.1057 49.6703 37.4747 49.2859V46.5783H35.9326L33.3834 49.2176ZM47.7736 58.0495C48.5132 58.2716 49.2764 58.3826 50.0474 58.3826C53.0451 58.3826 55.8382 56.7085 57.4117 53.941C59.9688 49.5165 58.7335 43.6827 54.658 40.9153C50.5825 38.1393 45.2087 39.4803 42.6596 43.9048C42.2583 44.6052 41.9357 45.3654 41.7154 46.1597V46.1683C41.2827 47.7143 41.2198 49.3628 41.5423 50.943C42.2347 54.3937 44.6344 57.1355 47.7736 58.0495ZM57.3016 45.9546C57.695 46.0657 58.0333 46.339 58.2457 46.7148C58.7099 47.5263 58.4817 48.6025 57.7264 49.1065C56.979 49.6104 55.9876 49.3627 55.5234 48.5427C55.0592 47.7313 55.2874 46.655 56.0427 46.1511C55.9876 46.0059 55.9168 45.8778 55.8145 45.7753C55.6179 45.5617 55.3503 45.4422 55.075 45.4422C54.5164 45.4422 54.06 45.9205 54.0364 46.5184C54.2016 47.2615 54.1387 48.0473 53.8712 48.7563C53.8594 48.7733 53.8496 48.7925 53.8397 48.8118C53.8299 48.831 53.8201 48.8502 53.8083 48.8673L51.9593 51.8995V52.1216C51.9593 52.8135 51.6525 53.4541 51.1253 53.8384C51.1253 53.8573 51.1269 53.8778 51.1286 53.9007C51.1307 53.9297 51.1332 53.9626 51.1332 54.0007C51.1332 54.2228 51.1489 54.4278 51.1489 54.4278C51.1725 54.8036 50.9129 55.1368 50.5667 55.1624H50.5195C50.2127 55.1624 49.9452 54.9147 49.8979 54.5816C49.835 54.9232 49.5439 55.1538 49.2292 55.1282C48.883 55.1026 48.6234 54.7695 48.6548 54.3936C48.6548 54.3922 48.6553 54.3858 48.656 54.3751C48.6596 54.3218 48.6706 54.1616 48.6706 53.9836V53.8043C48.167 53.4199 47.8759 52.7878 47.8759 52.1216V51.8995L46.0348 48.8673C46.0112 48.8331 45.9876 48.799 45.9719 48.7563C45.7044 48.0473 45.6415 47.2615 45.8067 46.5184C45.7831 45.9205 45.3267 45.4422 44.7681 45.4422C44.3905 45.4422 44.0364 45.6642 43.8555 46.023C44.2016 46.1767 44.4849 46.4671 44.658 46.8344C45.0592 47.6886 44.7445 48.7306 43.9577 49.1662C43.171 49.6019 42.2111 49.2602 41.8098 48.4061C41.4086 47.5519 41.7233 46.5098 42.5101 46.0742C42.6045 45.5959 42.8169 45.1603 43.1395 44.8101C44.0364 43.8364 45.492 43.8364 46.3889 44.8101L46.3889 44.8101C46.4361 44.8613 46.4833 44.9126 46.5227 44.9724C47.0577 44.2805 47.8287 43.862 48.6548 43.7851H48.6706C48.7492 43.7766 48.8358 43.768 48.9302 43.768H50.8972C50.9916 43.768 51.0703 43.768 51.1489 43.7766H51.1568H51.1725C51.9987 43.8534 52.7697 44.2805 53.3047 44.9638C53.3441 44.904 53.3913 44.8528 53.4463 44.8186C54.3433 43.8449 55.7988 43.8364 56.6957 44.8101C56.9947 45.1261 57.1993 45.519 57.3016 45.9546ZM42.8799 47.6117C42.8799 47.8167 43.0372 47.9875 43.226 47.9875C43.4149 47.9875 43.5644 47.8252 43.5722 47.6117C43.5722 47.4067 43.4149 47.2359 43.226 47.2359C43.0372 47.2359 42.8799 47.4067 42.8799 47.6117ZM50.8106 51.3187L52.7225 48.1754C52.9585 47.5007 52.8956 46.7575 52.5573 46.1511C52.2347 45.5874 51.6918 45.2115 51.086 45.1347H48.9302C48.9036 45.1347 48.8751 45.1367 48.8457 45.1387C48.8143 45.1409 48.7818 45.1432 48.7492 45.1432C48.1356 45.203 47.5848 45.5788 47.2701 46.1596C46.9318 46.7661 46.8688 47.5092 47.1049 48.1754L49.0168 51.3187C49.0876 51.4297 49.1269 51.5579 49.1269 51.6945V52.1216C49.1269 52.3864 49.2607 52.6256 49.4731 52.7451C49.7485 52.9074 49.8507 53.2064 49.8901 53.4968C49.9294 53.2064 50.0396 52.9074 50.3228 52.7622C50.551 52.6426 50.7005 52.3949 50.7005 52.1216V51.6945C50.7005 51.5579 50.7398 51.4297 50.8106 51.3187ZM56.5227 47.6202C56.5227 47.8252 56.68 47.9961 56.8688 47.9961C57.0577 47.9961 57.215 47.8252 57.215 47.6202C57.215 47.4152 57.0577 47.2444 56.8688 47.2444C56.68 47.2444 56.5305 47.4152 56.5227 47.6202Z" fill="white"/>
</g>
<defs>
<filter id="filter0_d" x="0.862793" y="0.262207" width="78.2749" height="86.9602" filterUnits="userSpaceOnUse" color-interpolation-filters="sRGB">
<feFlood flood-opacity="0" result="BackgroundImageFix"/>
<feColorMatrix in="SourceAlpha" type="matrix" values="0 0 0 0 0 0 0 0 0 0 0 0 0 0 0 0 0 0 127 0"/>
<feOffset dy="4"/>
<feGaussianBlur stdDeviation="2"/>
<feColorMatrix type="matrix" values="0 0 0 0 0 0 0 0 0 0 0 0 0 0 0 0 0 0 0.25 0"/>
<feBlend mode="normal" in2="BackgroundImageFix" result="effect1_dropShadow"/>
<feBlend mode="normal" in="SourceGraphic" in2="effect1_dropShadow" result="shape"/>
</filter>
</defs>
</svg>
