<svg width="80" height="88" viewBox="0 0 80 88" fill="none" xmlns="http://www.w3.org/2000/svg">
<g filter="url(#filter0_d)">
<path d="M19.6873 18.2951C14.9845 25.261 10.1276 33.0683 10.3958 40.9457C8.57684 78.8837 55.8012 87.5437 67.562 51.4288C69.9336 43.1657 68.163 34.143 66.9121 26.9552C61.1366 2.41128 32.9673 -2.7544 19.6873 18.2951Z" fill="#BA68C8"/>
<g clip-path="url(#clip0)">
<path d="M59.9978 21.0797H58.6646V22.4129H59.9978V21.0797Z" fill="white"/>
<path d="M58.6646 19.7469H57.3314V21.0801H58.6646V19.7469Z" fill="white"/>
<path d="M57.3314 21.0797H55.9982V22.4129H57.3314V21.0797Z" fill="white"/>
<path d="M58.6646 22.413H57.3314V23.7462H58.6646V22.413Z" fill="white"/>
<path d="M54.665 21.0797H53.3318V22.4129H54.665V21.0797Z" fill="white"/>
<path d="M53.3319 34.4117H51.9987V35.7449H53.3319V34.4117Z" fill="white"/>
<path d="M55.9982 34.4117H54.665V35.7449H55.9982V34.4117Z" fill="white"/>
<path d="M54.665 33.0785H53.3318V34.4117H54.665V33.0785Z" fill="white"/>
<path d="M54.665 35.7449H53.3318V37.0781H54.665V35.7449Z" fill="white"/>
<path d="M28.6685 32.4119H27.3353V33.7451H28.6685V32.4119Z" fill="white"/>
<path d="M27.3353 31.0787H26.0021V32.4119H27.3353V31.0787Z" fill="white"/>
<path d="M26.0013 32.4119H24.6681V33.7451H26.0013V32.4119Z" fill="white"/>
<path d="M27.3353 33.7451H26.0021V35.0783H27.3353V33.7451Z" fill="white"/>
<path d="M23.3349 32.4119H22.0017V33.7451H23.3349V32.4119Z" fill="white"/>
<path d="M21.3356 23.7461H20.0024V25.0793H21.3356V23.7461Z" fill="white"/>
<path d="M24.0015 23.7461H22.6683V25.0793H24.0015V23.7461Z" fill="white"/>
<path d="M22.6683 22.413H21.3351V23.7462H22.6683V22.413Z" fill="white"/>
<path d="M22.6683 25.0793H21.3351V26.4125H22.6683V25.0793Z" fill="white"/>
<path d="M30.6683 19.7469H29.3351V21.0801H30.6683V19.7469Z" fill="white"/>
<path d="M55.8834 51.0702C55.6 50.2732 54.8446 49.7415 53.9987 49.7435H52.3862L49.9991 45.5666V38.4113C49.9991 36.9387 48.8053 35.7449 47.3328 35.7449V27.0791C47.468 23.1647 44.4044 19.8818 40.49 19.7466C40.3267 19.7409 40.1634 19.7409 40.0002 19.7466C35.4166 19.7466 32.8009 23.5115 32.6676 27.0538C32.6676 27.0625 32.6722 27.0705 32.6722 27.0791H32.6676V35.7449C31.195 35.7449 30.0012 36.9387 30.0012 38.4113V45.5666L27.6141 49.7435H26.0017C24.8998 49.7412 24.0047 50.6326 24.0024 51.7345C24.0006 52.5801 24.5322 53.335 25.3291 53.6184C24.3663 54.7067 24.468 56.3696 25.5564 57.3324C25.9497 57.6803 26.4382 57.9027 26.9589 57.9706L39.9103 59.7365C39.9703 59.7443 40.0309 59.7443 40.0909 59.7365L53.0422 57.9706C54.4831 57.7824 55.4986 56.4618 55.3104 55.021C55.2424 54.5003 55.02 54.0117 54.6721 53.6184C55.7102 53.2493 56.2526 52.1084 55.8834 51.0702ZM40.0002 21.0798C43.1666 20.9329 45.8527 23.3805 45.9996 26.5469C46.0079 26.7243 46.0079 26.9019 45.9996 27.0792H44.6664C42.8266 27.0771 41.3356 25.586 41.3334 23.7462C41.3334 23.3781 41.0349 23.0797 40.6667 23.0798C40.4899 23.0798 40.3206 23.15 40.1956 23.2749C38.543 24.9339 36.3942 26.0082 34.0755 26.3346C34.4421 23.3393 36.9825 21.0861 40.0002 21.0798ZM38.6671 36.4116V33.5606C39.1016 33.6797 39.5497 33.7418 40.0002 33.7452C40.451 33.7414 40.8993 33.6779 41.3334 33.5566V36.4116C41.3334 36.7797 41.6319 37.0782 42 37.0782H43.3332V37.9308L40.0002 39.042L36.6673 37.9308V37.0782H38.0005C38.3686 37.0782 38.6671 36.7797 38.6671 36.4116ZM34.7954 27.5585C36.7747 27.1924 38.6308 26.337 40.1949 25.0701C40.7836 27.0496 42.6013 28.4083 44.6664 28.4124H44.9571C44.1238 30.6489 42.0107 32.412 40.0002 32.412C37.6852 32.412 35.3467 30.1682 34.7954 27.5585ZM42.6666 35.745V33.022C44.1383 32.1937 45.3063 30.9162 45.9996 29.3763V35.745H43.9998H42.6666V35.745ZM34.0009 29.3783C34.69 30.9214 35.859 32.2007 37.3339 33.026V35.745H34.0009V29.3783ZM35.3341 37.0782V38.4114C35.3343 38.6982 35.5179 38.9527 35.79 39.0433V39.044L39.7896 40.3772C39.9265 40.4232 40.0747 40.4232 40.2116 40.3772L44.2112 39.044C44.4832 38.9531 44.6666 38.6983 44.6664 38.4114V37.0782H46.4789L43.4792 49.077H36.5213L33.5216 37.0782H35.3341V37.0782ZM36.3073 50.4102H43.6932L46.3716 53.5345L40.0002 54.4038L33.6289 53.5372L36.3073 50.4102ZM32.0597 53.3205L30.8299 53.1532L35.0061 48.5124L35.2727 49.5716L32.0597 53.3205ZM44.7331 49.5716L44.9997 48.5124L49.176 53.1532L47.9434 53.3205L44.7331 49.5716ZM25.3351 51.7434C25.3351 51.3752 25.6336 51.0768 26.0017 51.0768H28.0015C28.2401 51.0773 28.4608 50.9501 28.5801 50.7435L31.2465 46.0773C31.3046 45.9758 31.3349 45.8609 31.3345 45.744V38.4114C31.3345 37.8669 31.6657 37.377 32.171 37.1742L33.3936 42.0637L34.6155 46.9532L29.7046 52.41H26.0017C25.6335 52.41 25.3351 52.1115 25.3351 51.7434ZM40.0002 58.4034L27.1389 56.6489C26.4191 56.5538 25.9128 55.8933 26.0078 55.1735C26.0945 54.5175 26.6552 54.0282 27.3169 54.0311C27.3762 54.0311 27.4355 54.0354 27.4942 54.0438L32.2344 54.6904L39.7669 55.7176L43.3352 57.9481L40.0002 58.4034ZM52.8616 56.6489L45.3997 57.6668L41.9141 55.4883L47.7615 54.6884L52.501 54.0418C53.2203 53.9409 53.8852 54.4423 53.9861 55.1616C53.9947 55.2228 53.9989 55.2845 53.9988 55.3463C53.9965 56.0029 53.5119 56.558 52.8616 56.6489ZM53.9988 52.41H50.2959L45.3844 46.9525L46.6062 42.063L47.8288 37.1735C48.3346 37.3763 48.6662 37.8665 48.666 38.4114V45.744C48.6656 45.8609 48.6959 45.9758 48.754 46.0773L51.4204 50.7435C51.5397 50.9501 51.7604 51.0773 51.999 51.0768H53.9988C54.3669 51.0768 54.6654 51.3752 54.6654 51.7434C54.6654 52.1115 54.3669 52.41 53.9988 52.41Z" fill="white"/>
</g>
</g>
<defs>
<filter id="filter0_d" x="0.86261" y="0.262207" width="78.2749" height="86.9602" filterUnits="userSpaceOnUse" color-interpolation-filters="sRGB">
<feFlood flood-opacity="0" result="BackgroundImageFix"/>
<feColorMatrix in="SourceAlpha" type="matrix" values="0 0 0 0 0 0 0 0 0 0 0 0 0 0 0 0 0 0 127 0"/>
<feOffset dy="4"/>
<feGaussianBlur stdDeviation="2"/>
<feColorMatrix type="matrix" values="0 0 0 0 0 0 0 0 0 0 0 0 0 0 0 0 0 0 0.25 0"/>
<feBlend mode="normal" in2="BackgroundImageFix" result="effect1_dropShadow"/>
<feBlend mode="normal" in="SourceGraphic" in2="effect1_dropShadow" result="shape"/>
</filter>
<clipPath id="clip0">
<rect width="40" height="40" fill="white" transform="translate(20.0001 19.7423)"/>
</clipPath>
</defs>
</svg>
