<?xml version="1.0" encoding="utf-8"?>
<!-- Generator: Adobe Illustrator 24.1.2, SVG Export Plug-In . SVG Version: 6.00 Build 0)  -->
<svg version="1.1" xmlns="http://www.w3.org/2000/svg" xmlns:xlink="http://www.w3.org/1999/xlink" x="0px" y="0px"
	 viewBox="0 0 500 412.74" style="enable-background:new 0 0 500 412.74;" xml:space="preserve">
<style type="text/css">
	.st0{clip-path:url(#SVGID_2_);fill:#EFC0BB;}
	.st1{clip-path:url(#SVGID_2_);fill:#47458E;}
	.st2{clip-path:url(#SVGID_2_);}
	.st3{fill:#47458E;}
	.st4{fill:#EFC0BB;}
	.st5{clip-path:url(#SVGID_4_);}
	.st6{clip-path:url(#SVGID_6_);}
</style>
<g id="BACKGROUND">
</g>
<g id="OBJECTS">
	<g>
		<defs>
			<rect id="SVGID_1_" width="500" height="412.74"/>
		</defs>
		<clipPath id="SVGID_2_">
			<use xlink:href="#SVGID_1_"  style="overflow:visible;"/>
		</clipPath>
		<path class="st0" d="M136.08,198.41c-0.58-1.46-2.17-2.4-3.67-1.49c-7.55,4.56-7.34,12.64-5.37,20.41
			c-0.99-0.93-1.98-1.84-2.98-2.72c-2.73-2.42-7.79-7.15-11.76-4.78c-4.97,2.97-0.25,10.3,2.59,12.72
			c5.31,4.53,12.78,7.2,19.45,8.93c1.22,0.32,2.16-0.23,2.67-1.06c0.59-0.41,1.04-1.1,1.16-2.02
			C139.48,218.24,139.94,208.11,136.08,198.41z"/>
		<path class="st0" d="M58.01,144.64c-4.64-2.95-9.08,3.61-12.08,10.71c-1.22-4.82-3.2-9.98-6.8-12.66c-4.23-3.15-9.3-0.2-10.2,4.55
			c-1.12,5.92,1.7,12.59,4.28,17.76c2.4,4.82,5.89,9.31,11.78,9.03c6.78-0.32,12.26-7.46,14.64-13.15
			C61.59,156.22,63.23,147.96,58.01,144.64z"/>
		<path class="st0" d="M63.42,83.5c-6.61-0.72-7.07,8.03-6.62,15.37c-3.2-3.49-7.13-6.13-12.13-5.97c-1.52,0.05-2.98,1.58-2.41,3.16
			c2.76,7.69,10.15,11.06,17.15,14.16c0.58,0.26,1.14,0.29,1.65,0.17c1.23,0.4,2.81-0.28,3.36-1.67
			C66.66,103.09,74.3,84.69,63.42,83.5z"/>
		<path class="st0" d="M378.37,198.41c0.58-1.46,2.17-2.4,3.67-1.49c7.55,4.56,7.33,12.64,5.37,20.41c0.99-0.93,1.98-1.84,2.98-2.72
			c2.73-2.42,7.79-7.15,11.76-4.78c4.97,2.97,0.25,10.3-2.59,12.72c-5.31,4.53-12.78,7.2-19.45,8.93c-1.22,0.32-2.16-0.23-2.68-1.06
			c-0.59-0.41-1.04-1.1-1.16-2.02C374.97,218.24,374.51,208.11,378.37,198.41z"/>
		<path class="st0" d="M450.75,148.73c2.38,5.69,7.86,12.83,14.64,13.15c5.89,0.28,9.38-4.21,11.78-9.03
			c2.58-5.17,5.41-11.84,4.28-17.76c-0.9-4.76-5.97-7.71-10.2-4.55c-3.6,2.68-5.58,7.84-6.8,12.66c-3-7.1-7.43-13.66-12.08-10.71
			C447.16,135.8,448.8,144.06,450.75,148.73z"/>
		<path class="st0" d="M419.75,86.39c6.61-0.72,7.07,8.03,6.62,15.37c3.2-3.49,7.13-6.13,12.13-5.97c1.52,0.05,2.98,1.58,2.41,3.16
			c-2.76,7.69-10.15,11.06-17.15,14.16c-0.58,0.26-1.14,0.29-1.65,0.17c-1.23,0.4-2.81-0.28-3.36-1.67
			C416.51,105.98,408.88,87.58,419.75,86.39z"/>
		<path class="st0" d="M249.44,18.37c5-0.55,5.35,6.07,5,11.62c2.42-2.64,5.39-4.63,9.17-4.52c1.15,0.04,2.25,1.19,1.82,2.39
			c-2.09,5.82-7.68,8.36-12.97,10.71c-0.44,0.19-0.86,0.22-1.25,0.13c-0.93,0.3-2.12-0.21-2.54-1.26
			C246.99,33.18,241.21,19.27,249.44,18.37z"/>
		<path class="st1" d="M32.6,29.84c-3.22,0-3.22,5,0,5C35.82,34.84,35.82,29.84,32.6,29.84z"/>
		<path class="st1" d="M41.6,19.34c-3.22,0-3.22,5,0,5C44.82,24.34,44.82,19.34,41.6,19.34z"/>
		<path class="st1" d="M44.6,35.84c-3.22,0-3.22,5,0,5C47.82,40.84,47.82,35.84,44.6,35.84z"/>
		<path class="st1" d="M95.6,160.34c-3.22,0-3.22,5,0,5S98.82,160.34,95.6,160.34z"/>
		<path class="st1" d="M103.1,143.84c-3.22,0-3.22,5,0,5S106.32,143.84,103.1,143.84z"/>
		<path class="st1" d="M112.1,161.84c-3.22,0-3.22,5,0,5S115.32,161.84,112.1,161.84z"/>
		<path class="st1" d="M26.6,262.33c-3.22,0-3.22,5,0,5S29.82,262.33,26.6,262.33z"/>
		<path class="st1" d="M34.1,247.33c-3.22,0-3.22,5,0,5C37.32,252.33,37.32,247.33,34.1,247.33z"/>
		<path class="st1" d="M38.6,265.33c-3.22,0-3.22,5,0,5C41.82,270.33,41.82,265.33,38.6,265.33z"/>
		<path class="st1" d="M439.08,26.84c-3.22,0-3.22,5,0,5C442.3,31.84,442.3,26.84,439.08,26.84z"/>
		<path class="st1" d="M458.58,20.84c-3.22,0-3.22,5,0,5C461.8,25.84,461.8,20.84,458.58,20.84z"/>
		<path class="st1" d="M455.58,38.84c-3.22,0-3.22,5,0,5C458.8,43.84,458.8,38.84,455.58,38.84z"/>
		<path class="st1" d="M316.55,31.89c-2.55,0-2.55,3.96,0,3.96C319.11,35.85,319.11,31.89,316.55,31.89z"/>
		<path class="st1" d="M331.99,27.15c-2.55,0-2.55,3.96,0,3.96C334.54,31.1,334.54,27.15,331.99,27.15z"/>
		<path class="st1" d="M329.61,41.39c-2.55,0-2.55,3.96,0,3.96C332.16,45.35,332.16,41.39,329.61,41.39z"/>
		<path class="st1" d="M172.92,27.94c-2.55,0-2.55,3.96,0,3.96C175.47,31.89,175.47,27.94,172.92,27.94z"/>
		<path class="st1" d="M188.35,23.19c-2.55,0-2.55,3.96,0,3.96C190.9,27.15,190.9,23.19,188.35,23.19z"/>
		<path class="st1" d="M185.98,37.43c-2.55,0-2.55,3.96,0,3.96C188.53,41.39,188.53,37.43,185.98,37.43z"/>
		<path class="st1" d="M377.58,139.34c-3.22,0-3.22,5,0,5C380.81,144.34,380.81,139.34,377.58,139.34z"/>
		<path class="st1" d="M389.58,127.34c-3.22,0-3.22,5,0,5C392.81,132.34,392.81,127.34,389.58,127.34z"/>
		<path class="st1" d="M389.58,143.84c-3.22,0-3.22,5,0,5C392.81,148.84,392.81,143.84,389.58,143.84z"/>
		<path class="st1" d="M452.58,244.33c-3.22,0-3.22,5,0,5C455.8,249.33,455.8,244.33,452.58,244.33z"/>
		<path class="st1" d="M461.58,229.33c-3.22,0-3.22,5,0,5C464.8,234.33,464.8,229.33,461.58,229.33z"/>
		<path class="st1" d="M467.58,248.83c-3.22,0-3.22,5,0,5C470.8,253.83,470.8,248.83,467.58,248.83z"/>
		<g class="st2">
			<g>
				<g>
					<g>
						<path class="st3" d="M370.84,332.92c-3.45-9.34-3.88-19.83-3.47-29.72c0.17-4.13,0.71-9.11,3.5-12.38
							c4.79-5.62,9.99,4.5,12.08,7.58c0.32,0.47,1.22,0.35,1.17-0.32c-0.59-7.06-2.14-16.28,2.79-22.17
							c5.09-6.08,11.44,10.5,12.35,13.33c0.19,0.6,1,0.59,1.2,0c2.22-6.47,4.31-13.5,8.99-18.67c1.63-1.8,7.53-7.4,10.06-3.65
							c0.99,1.46-0.01,4.06-0.47,5.53c-2.39,7.7-7.56,14.29-11.34,21.31c-0.31,0.59,0.3,1.11,0.86,0.86
							c4.32-1.96,22.98-7.86,23.84,0.18c0.91,8.5-15.94,11.84-20.85,16.34c-0.36,0.33-0.16,0.91,0.28,1.04
							c3.59,1.09,7.61,1.48,10.66,3.87c5.11,4.01-6.38,11.36-8.95,13.09c-9.18,6.19-20.95,8.09-31.71,9.58
							c-0.8,0.11-0.46,1.31,0.33,1.21c14.74-2.04,30.13-5.45,40.64-16.8c2.56-2.76,2.96-6.08-0.15-8.53
							c-1.69-1.33-4.03-1.91-6.05-2.46c-1.23-0.34-2.48-0.62-3.71-0.95c0.62,0.17,3.02-1.63,4.01-2.16
							c4.82-2.61,10.15-4.38,14.17-8.24c2.02-1.94,3.98-6.46,1.51-8.85c-5.57-5.39-18.69-1.11-24.64,1.6
							c0.29,0.29,0.57,0.57,0.86,0.86c2.56-4.76,5.57-9.25,8.11-14.03c1.99-3.75,5.08-9.04,3.97-13.46
							c-1.14-4.55-7.57-1.41-9.61,0.31c-6.63,5.58-9.25,13.73-11.99,21.7c0.4,0,0.8,0,1.2,0c-1.23-3.83-5.78-17.33-11.95-15.36
							c-8.59,2.75-6.18,18.06-5.64,24.53c0.39-0.11,0.78-0.21,1.16-0.32c-2.46-3.62-4.48-8.47-9.16-9.52
							c-3.91-0.88-6.23,3.12-7.31,6.11c-1.57,4.34-1.65,9.47-1.44,14.03c0.39,8.56,0.51,16.72,3.52,24.86
							C369.91,334,371.12,333.68,370.84,332.92L370.84,332.92z"/>
					</g>
				</g>
				<g>
					<g>
						<path class="st3" d="M411.19,275.27c-6.37,9.74-10.57,20.66-17.02,30.41c-3.49,5.27-7.38,10.25-11.56,14.98
							c-3.96,4.49-8.58,8.08-12.82,12.23c-0.58,0.57,0.31,1.45,0.88,0.88c3.82-3.74,7.98-7.03,11.66-10.96
							c3.98-4.26,7.56-8.89,10.95-13.64c7.49-10.52,11.97-22.54,18.99-33.28C412.72,275.22,411.63,274.6,411.19,275.27
							L411.19,275.27z"/>
					</g>
				</g>
				<g>
					<g>
						<path class="st3" d="M390.63,285c0.65,4.43,1.48,8.82,1.94,13.28c0.36,3.49-0.46,6.63-0.46,10.06c0,0.43,0.4,0.68,0.79,0.6
							c8.31-1.71,15.89-5.77,24.25-7.25c0.79-0.14,0.46-1.34-0.33-1.21c-3.9,0.69-7.6,1.89-11.33,3.24
							c-1.16,0.42-12.08,4.15-11.84,3c1.47-7.12-0.78-15.01-1.82-22.05C391.72,283.87,390.52,284.21,390.63,285L390.63,285z"/>
					</g>
				</g>
				<g>
					<g>
						<path class="st3" d="M375.69,299.9c4.54,6.66,5.59,14.29,5.67,22.18c0,0.47,0.53,0.78,0.94,0.54c8.4-4.98,19.39-3,28.68-2.92
							c0.81,0.01,0.81-1.24,0-1.25c-8.61-0.08-17.53-1.28-25.88,1.42c-1.99,0.64-2.47,1.94-2.55-0.92c-0.06-2.16-0.32-4.3-0.62-6.44
							c-0.68-4.8-2.44-9.26-5.16-13.25C376.32,298.61,375.24,299.23,375.69,299.9L375.69,299.9z"/>
					</g>
				</g>
			</g>
			<g>
				<g>
					<path class="st4" d="M310.86,401.66c-4.44-28.75-8.64-51.91-7.14-73.91c0.5-6.5,6-39.5,17.5-24.5c7,10,0.5,35.5-1,46.5
						C318.22,365.74,314.86,386.16,310.86,401.66"/>
				</g>
				<g>
					<path class="st4" d="M313.22,392.74c-0.5-13.5,3.5-28.5,6.5-41.5c2.5-13,7-31,15.5-41c3-3.5,10-9.5,14-4c3,4.5-2,17-3.5,21.5
						c-5.5,14.5-14,28-20.5,42c-4,8.5-8,16.5-12,24.5"/>
				</g>
				<g>
					<path class="st4" d="M313.72,393.24c9.5-25.5,23-53.5,44.5-71c8-7,25-10.5,16.5,6.5c-7.5,14.5-23.5,30-35.5,41
						c-9,8.5-20.5,15-28,24.5"/>
				</g>
			</g>
			<g>
				<defs>
					<path id="SVGID_3_" d="M313.72,417.74c-2.5-17-8.5-32,2-49c8.5-14,58-43.5,71.5-46c0-0.5,0,38-18.5,65
						c-11.6,16.93-32.5,34.5-54.5,29.5v-0.5"/>
				</defs>
				<clipPath id="SVGID_4_">
					<use xlink:href="#SVGID_3_"  style="overflow:visible;"/>
				</clipPath>
				<g class="st5">
					<path class="st3" d="M313.72,417.74c-2.5-17-8.5-32,2-49c8.5-14,58-43.5,71.5-46c0-0.5,0,38-18.5,65
						c-11.6,16.93-32.5,34.5-54.5,29.5v-0.5"/>
				</g>
				<g class="st5">
					<g>
						<path class="st4" d="M383.18,326.6c-5.06,7.9-11.57,14.69-17.29,22.1c-6.37,8.26-12.81,16.4-19.44,24.46
							c-6.03,7.33-11.95,14.77-17.57,22.42c-5.24,7.13-11.39,14.33-15.2,22.36c-0.34,0.72,0.73,1.36,1.08,0.63
							c3.81-8.04,10-15.17,15.2-22.36c6.22-8.61,12.98-16.85,19.74-25.04c5.92-7.17,11.72-14.38,17.28-21.84
							c5.6-7.52,12.22-14.17,17.29-22.1C384.7,326.55,383.62,325.92,383.18,326.6L383.18,326.6z"/>
					</g>
				</g>
				<g class="st5">
					<g>
						<path class="st4" d="M321.93,377.58c0.06,9.23,0.91,18.49-0.48,27.67c-0.06,0.4,0.16,0.79,0.6,0.79
							c3.34,0.02,7.19-1.51,10.53-2.1c5.07-0.9,10.14-1.89,15.14-3.09c0.78-0.19,0.45-1.39-0.33-1.21c-4.5,1.08-9.04,1.94-13.58,2.8
							c-2.08,0.39-4.16,0.75-6.25,1.03c-0.41,0.06-4.84,1.71-4.65,0.43c1.31-8.67,0.33-17.61,0.27-26.33
							C323.17,376.77,321.92,376.77,321.93,377.58L321.93,377.58z"/>
					</g>
				</g>
				<g class="st5">
					<g>
						<path class="st4" d="M334.29,360.91c-1.7,9.5-0.16,19.54-1.02,29.17c-0.03,0.31,0.31,0.67,0.63,0.63
							c8.66-1.12,17.2-2.94,25.5-5.69c0.76-0.25,0.44-1.46-0.33-1.21c-1.99,0.66-24.56,6.44-24.38,4.51
							c0.81-8.94-0.76-18.24,0.82-27.08C335.63,360.46,334.43,360.12,334.29,360.91L334.29,360.91z"/>
					</g>
				</g>
				<g class="st5">
					<g>
						<path class="st4" d="M347.43,352.08c-0.46,6.88-0.33,13.77-0.17,20.67c0.01,0.35,0.28,0.61,0.63,0.63
							c7.43,0.26,14.91-2.18,22.33-2.5c0.8-0.04,0.81-1.29,0-1.25c-6.64,0.29-13.23,1.67-19.83,2.47c-3.23,0.39-2.03-6.62-2.04-8.87
							c-0.03-3.72,0.08-7.43,0.33-11.14C348.73,351.27,347.48,351.28,347.43,352.08L347.43,352.08z"/>
					</g>
				</g>
				<g class="st5">
					<g>
						<path class="st4" d="M359.95,340.91c-1.16,5.1-0.26,10.35-0.02,15.5c0.02,0.34,0.27,0.62,0.63,0.63
							c3.11,0.02,6.11-0.55,9.16-1.11c3.08-0.57,6.19-0.74,9.17-1.74c0.76-0.26,0.43-1.46-0.33-1.21c-2.18,0.73-4.39,1.02-6.67,1.33
							c-3.38,0.46-6.67,1.29-10.09,1.49c-1.82,0.11-0.96-13.11-0.64-14.55C361.34,340.46,360.13,340.13,359.95,340.91L359.95,340.91
							z"/>
					</g>
				</g>
				<g class="st5">
					<g>
						<path class="st4" d="M370.29,332.25c-0.54,3.53,0.38,6.97,0.31,10.5c-0.01,0.36,0.29,0.59,0.63,0.63
							c3.49,0.31,7.11,0.07,10.5-0.86c0.78-0.21,0.45-1.42-0.33-1.21c-3.29,0.9-6.78,1.12-10.17,0.81c0.21,0.21,0.42,0.42,0.63,0.63
							c0.07-3.41-0.88-6.76-0.36-10.17C371.61,331.79,370.41,331.45,370.29,332.25L370.29,332.25z"/>
					</g>
				</g>
				<g class="st5">
					<g>
						<path class="st4" d="M338.89,359c1.61,0,1.61-2.5,0-2.5S337.28,359,338.89,359L338.89,359z"/>
					</g>
				</g>
				<g class="st5">
					<g>
						<path class="st4" d="M340.89,355.83c1.61,0,1.61-2.5,0-2.5S339.28,355.83,340.89,355.83L340.89,355.83z"/>
					</g>
				</g>
				<g class="st5">
					<g>
						<path class="st4" d="M342.05,360.66c1.61,0,1.61-2.5,0-2.5S340.44,360.66,342.05,360.66L342.05,360.66z"/>
					</g>
				</g>
				<g class="st5">
					<g>
						<path class="st4" d="M366.22,364.16c1.61,0,1.61-2.5,0-2.5S364.61,364.16,366.22,364.16L366.22,364.16z"/>
					</g>
				</g>
				<g class="st5">
					<g>
						<path class="st4" d="M370.22,362.33c1.61,0,1.61-2.5,0-2.5S368.61,362.33,370.22,362.33L370.22,362.33z"/>
					</g>
				</g>
				<g class="st5">
					<g>
						<path class="st4" d="M370.05,366.5c1.61,0,1.61-2.5,0-2.5S368.44,366.5,370.05,366.5L370.05,366.5z"/>
					</g>
				</g>
				<g class="st5">
					<g>
						<path class="st4" d="M361.89,379.33c1.61,0,1.61-2.5,0-2.5S360.28,379.33,361.89,379.33L361.89,379.33z"/>
					</g>
				</g>
				<g class="st5">
					<g>
						<path class="st4" d="M365.89,379.5c1.61,0,1.61-2.5,0-2.5S364.28,379.5,365.89,379.5L365.89,379.5z"/>
					</g>
				</g>
				<g class="st5">
					<g>
						<path class="st4" d="M348.05,394.5c1.61,0,1.61-2.5,0-2.5S346.44,394.5,348.05,394.5L348.05,394.5z"/>
					</g>
				</g>
				<g class="st5">
					<g>
						<path class="st4" d="M352.39,395.33c1.61,0,1.61-2.5,0-2.5S350.78,395.33,352.39,395.33L352.39,395.33z"/>
					</g>
				</g>
				<g class="st5">
					<g>
						<path class="st4" d="M325.89,372c1.61,0,1.61-2.5,0-2.5S324.28,372,325.89,372L325.89,372z"/>
					</g>
				</g>
				<g class="st5">
					<g>
						<path class="st4" d="M366.22,340.16c1.61,0,1.61-2.5,0-2.5S364.61,340.16,366.22,340.16L366.22,340.16z"/>
					</g>
				</g>
				<g class="st5">
					<g>
						<path class="st4" d="M382.72,338.16c1.61,0,1.61-2.5,0-2.5S381.11,338.16,382.72,338.16L382.72,338.16z"/>
					</g>
				</g>
			</g>
			<g>
				<g>
					<path class="st3" d="M317.82,386.08c-1.5-10.91-0.95-22.34,3.6-32.5c3.73-8.33,10.92-14.68,14.31-23.19
						c7.08-17.8-1.73-36.41-11.97-50.96c-0.46-0.65-1.54-0.03-1.08,0.63c5.89,8.37,10.83,17.3,13.29,27.3
						c2.73,11.11,0.16,21.45-6.07,30.8c-4.94,7.41-10.01,13.97-12.36,22.71c-2.22,8.26-2.08,17.14-0.92,25.54
						C316.73,387.21,317.93,386.87,317.82,386.08L317.82,386.08z"/>
				</g>
			</g>
			<g>
				<g>
					<path class="st3" d="M332.04,293.45c-4.58-2.61-10.2-4.63-13.5-8.94c-2.68-3.5-2.8-10.02,2.68-10.54
						c10.21-0.97,10.13,13.08,10.13,19.78c0,0.81,1.25,0.81,1.25,0c0-5.3,0.02-10.77-2.3-15.66c-1.99-4.19-7.2-6.5-11.58-4.82
						c-3.84,1.47-3.58,6.55-2.44,9.67c2.23,6.09,10.01,8.68,15.13,11.59C332.11,294.93,332.74,293.85,332.04,293.45L332.04,293.45z"
						/>
				</g>
			</g>
			<g>
				<g>
					<path class="st3" d="M337.6,307.74c-0.74-6.05-0.37-13.41,4.97-17.36c4.06-3.01,2.75,6.88,2.26,8.46
						c-1.17,3.83-4.05,7.28-7.77,8.8c-0.74,0.3-0.41,1.51,0.33,1.2c4.3-1.76,7.08-5.38,8.64-9.68c0.99-2.72,1.96-8.53-1.09-10.39
						c-2.29-1.39-5.1,2.38-6.13,3.83c-3.01,4.23-3.07,10.18-2.47,15.13C336.44,308.53,337.69,308.54,337.6,307.74L337.6,307.74z"/>
				</g>
			</g>
			<g>
				<g>
					<path class="st3" d="M338.26,307.31c1.78-4.03,3.72-7.97,5.5-12c0.32-0.73-0.75-1.37-1.08-0.63c-1.78,4.03-3.72,7.97-5.5,12
						C336.86,307.41,337.94,308.05,338.26,307.31L338.26,307.31z"/>
				</g>
			</g>
			<g>
				<g>
					<path class="st3" d="M337.26,316.68c-2.27-4.86-12.13-18.66-17.66-10.36c-6,9,11.17,13.09,17.04,11.78
						c0.79-0.18,0.45-1.38-0.33-1.2c-5.46,1.23-19.96-1.98-15.63-9.94c4.02-7.39,13.87,6.87,15.5,10.36
						C336.52,318.04,337.6,317.4,337.26,316.68L337.26,316.68z"/>
				</g>
			</g>
			<g>
				<g>
					<path class="st3" d="M337.04,316.7c-3.67-2.09-7.45-4.08-10.62-6.9c-0.6-0.53-1.49,0.35-0.88,0.88
						c3.26,2.89,7.11,4.95,10.88,7.1C337.11,318.18,337.74,317.1,337.04,316.7L337.04,316.7z"/>
				</g>
			</g>
			<g>
				<g>
					<path class="st3" d="M336.26,329.06c2.29-3.44,12.46-16.04,17.19-12.07c2.11,1.77,1.33,5.13-0.3,6.81
						c-1.56,1.61-3.99,2.36-6.09,2.96c-3.42,0.98-7.28,1.45-10.84,1.11c-0.8-0.08-0.79,1.17,0,1.25c6.45,0.62,23.91-1.9,18.85-12.05
						c-4.02-8.05-17.71,8.1-19.89,11.36C334.73,329.1,335.82,329.73,336.26,329.06L336.26,329.06z"/>
				</g>
			</g>
			<g>
				<g>
					<path class="st3" d="M336.79,328.78c4.42-2.05,9.06-3.72,12.88-6.85c0.62-0.51-0.27-1.39-0.88-0.88
						c-3.72,3.04-8.31,4.66-12.62,6.65C335.42,328.04,336.06,329.12,336.79,328.78L336.79,328.78z"/>
				</g>
			</g>
			<g>
				<g>
					<path class="st3" d="M330.82,338.08c-0.65-1.66-2.39-3.02-3.61-4.25c-2.27-2.29-4.66-4.56-6.48-7.24
						c-0.58-0.85-1.66-2.53-0.22-3.08c2.03-0.77,4.5,0.1,5.96,1.52c3.01,2.92,3.52,8.52,3.37,12.46c-0.03,0.81,1.22,0.8,1.25,0
						c0.17-4.57-0.64-9.8-3.73-13.34c-1.53-1.75-6.85-3.56-8.49-0.97c-1.42,2.25,1.65,5.32,2.97,6.84c1.42,1.63,2.96,3.16,4.49,4.69
						c1.02,1.03,2.75,2.31,3.29,3.7C329.91,339.15,331.12,338.83,330.82,338.08L330.82,338.08z"/>
				</g>
			</g>
			<g>
				<g>
					<path class="st3" d="M330.51,336.43c-2.01-3.74-4.17-7.41-6-11.25c-0.35-0.73-1.42-0.09-1.08,0.63c1.83,3.84,3.99,7.51,6,11.25
						C329.81,337.77,330.89,337.14,330.51,336.43L330.51,336.43z"/>
				</g>
			</g>
			<g>
				<g>
					<path class="st3" d="M326.66,345.44c2.1-1.86,13.68-10.81,14.05-3.99c0.27,4.99-11.92,4.25-14.82,3.44
						c-0.78-0.22-1.11,0.99-0.33,1.2c4.12,1.14,16.74,1.63,16.38-5.11c-0.46-8.55-13.77,1.46-16.16,3.57
						C325.17,345.09,326.06,345.97,326.66,345.44L326.66,345.44z"/>
				</g>
			</g>
			<g>
				<g>
					<path class="st3" d="M326.14,345.85c3.33-0.77,6.69-1.53,9.65-3.31c0.69-0.42,0.06-1.5-0.63-1.08
						c-2.87,1.73-6.12,2.44-9.35,3.19C325.02,344.82,325.35,346.03,326.14,345.85L326.14,345.85z"/>
				</g>
			</g>
			<g>
				<g>
					<path class="st3" d="M343.01,423.06c3.56-7.13,12.11-8.7,18.8-11.63c7.76-3.39,16.21-6.52,22.92-11.8
						c6.33-4.98,9.92-11.08,11.77-18.86c2.04-8.6,0.9-18.76,5.01-26.71c0.37-0.71-0.71-1.35-1.08-0.63
						c-3.46,6.69-3.26,15.47-4.35,22.8c-1.55,10.48-5.99,18.4-14.89,24.37c-7.29,4.89-16.14,8.35-24.32,11.43
						c-5.76,2.17-12.02,4.57-14.94,10.4C341.57,423.15,342.65,423.78,343.01,423.06L343.01,423.06z"/>
				</g>
			</g>
			<g>
				<path class="st4" d="M400.72,353.49c-1-4.5-7-16.75-2-18.5c3.5-0.25,1.75,8.25,2.5,12.5c0.75-3.75,2-13.75,6.25-14.5
					c2,4.25-2.5,10.25-3.75,14.25c1-1.75,8.25-12.25,11-11c3,1.5-6.5,10.75-7.75,12.25c1.5-1,11.75-7.25,13.5-4.5
					c1.5,2.25-12.5,6.5-14,7.75c3,0.25,6.75-1.5,9.75-0.5c3.75,1,3.5,2.75-0.25,3.75C411.97,356.24,404.97,355.3,400.72,353.49"/>
			</g>
			<g>
				<g>
					<path class="st3" d="M398.1,376.99c0.1-2.82,1.42-5.74,2.7-8.19c0.79-1.52,1.8-3.04,3.17-4.1c1.28-0.99,3.56-0.64,3.78,1.21
						c0.31,2.57-3.13,5.38-4.8,6.89c-1.77,1.6-3.89,3.43-6.14,4.33c-0.74,0.3-0.42,1.51,0.33,1.2c3.13-1.26,5.99-3.86,8.33-6.21
						c1.8-1.8,4.7-5.06,3.02-7.75c-1.94-3.1-5.45-0.87-7.07,1.14c-2.4,2.99-4.43,7.59-4.57,11.47
						C396.82,377.8,398.07,377.8,398.1,376.99L398.1,376.99z"/>
				</g>
			</g>
			<g>
				<g>
					<path class="st3" d="M397.41,377.69c2.35-2.9,4.5-5.96,7-8.75c0.54-0.6-0.35-1.49-0.88-0.88c-2.5,2.79-4.65,5.85-7,8.75
						C396.03,377.42,396.91,378.31,397.41,377.69L397.41,377.69z"/>
				</g>
			</g>
			<g>
				<g>
					<path class="st3" d="M391.01,391.8c-1.43-1.96-2.66-3.97-3.59-6.22c-0.35-0.84-0.59-1.73-0.85-2.6
						c-0.35-1.15-1.08-6.88,2.06-5.4c2.29,1.08,2.37,5.03,2.31,7.08c-0.07,2.29-0.65,4.57-1.2,6.79c-0.19,0.78,1.01,1.11,1.2,0.33
						c0.77-3.1,1.62-6.48,1.17-9.7c-0.29-2.12-1.42-6-4.21-6c-2.59,0-3.17,3.34-2.99,5.28c0.38,3.98,2.71,7.92,5.01,11.07
						C390.4,393.08,391.49,392.46,391.01,391.8L391.01,391.8z"/>
				</g>
			</g>
			<g>
				<g>
					<path class="st3" d="M391.1,392.12c0.08-4.18-0.63-8.48-2.02-12.42c-0.27-0.75-1.47-0.43-1.2,0.33c1.36,3.85,2.05,8,1.98,12.08
						C389.83,392.93,391.08,392.92,391.1,392.12L391.1,392.12z"/>
				</g>
			</g>
			<g>
				<g>
					<path class="st3" d="M387.04,398.19c2.52-3.19,8.29-7.74,12.63-5.39c2.03,1.1-1,3.87-1.77,4.43c-1.21,0.88-2.79,1.13-4.24,1.24
						c-2.52,0.19-5.08-0.42-7.52-0.95c-0.79-0.17-1.12,1.04-0.33,1.2c3.54,0.76,7.18,1.49,10.74,0.51c2.09-0.58,5.6-3.23,4.94-5.81
						c-0.61-2.38-3.5-2.6-5.54-2.4c-3.65,0.36-7.6,3.51-9.79,6.28C385.66,397.93,386.54,398.82,387.04,398.19L387.04,398.19z"/>
				</g>
			</g>
			<g>
				<g>
					<path class="st3" d="M386.22,398.62c3.21-0.22,6.1-1.58,9.17-2.4c0.78-0.21,0.45-1.41-0.33-1.2c-2.95,0.79-5.75,2.14-8.83,2.35
						C385.42,397.42,385.42,398.68,386.22,398.62L386.22,398.62z"/>
				</g>
			</g>
			<g>
				<g>
					<path class="st3" d="M398.16,364.7c-2.97-1.28-6.32-5.32-7.2-8.38c-0.31-1.09,0.31-1.58,1.34-1.69
						c1.63-0.18,2.69,1.09,3.46,2.34c1.27,2.08,2.03,5.22,1.36,7.61c-0.22,0.78,0.99,1.11,1.2,0.33c0.86-3.05-0.25-6.83-2-9.37
						c-1.31-1.9-4.15-3.09-6.11-1.37c-1.73,1.51,0.42,4.62,1.33,5.91c1.47,2.08,3.58,4.67,5.99,5.71
						C398.26,366.1,398.9,365.02,398.16,364.7L398.16,364.7z"/>
				</g>
			</g>
			<g>
				<g>
					<path class="st3" d="M397.64,364.05c-1.41-2.31-2.9-4.59-3.94-7.1c-0.3-0.73-1.51-0.41-1.2,0.33c1.08,2.61,2.59,4.99,4.06,7.4
						C396.98,365.37,398.06,364.74,397.64,364.05L397.64,364.05z"/>
				</g>
			</g>
			<g>
				<path class="st3" d="M388.47,419.74c4.25,1,9.25-3.25,12.75-5.25c5-2.5,8.25-5,11.25-9.5c3.25-5,2.5-9.25,2.75-15
					c0.25-6.75-1.25-15.5,1-21.75c3.25-8.5,10.25-5.25,16-10c9.5-8.25-7.5-36,6.25-39.5c9.25-2.5,14.75,10.25,15.75,17.25
					c1,6.75,1.25,14.5-1.75,20.75c-1.75,3.5-4.5,7.75-7.75,10c-3,2.25-6.75,2.5-10,4c-7.25,3.5-7.75,8.75-7.5,16
					c0.25,7.5,0,15.5-3.5,22.5c-1.75,3.75-4.5,7-8.25,9c-2.75,1.5-6.5,2-8.5,4.75"/>
			</g>
			<g>
				<path class="st3" d="M426.22,422.49c4.25-4.5,3.25-12,4.5-17.75c1.75-8.75,4.75-17.5,12-23c6.75-5.25,15.5-8,22-13.5
					c3.25-2.75,6-5.75,8.25-9.25c2.25-3.25,3.5-7.25,6.75-9.25c8-5,14.75,2.5,13.25,10.5c-1.5,8.5-9.5,14.25-16.5,18
					c-7.75,4-15.75,5.75-22.25,11.75c-5.75,5.75-9,12.75-10.25,20.5c-0.75,3.75-0.75,7.75-0.75,11.5"/>
			</g>
			<g>
				<g>
					<path class="st4" d="M484.12,354.33c-4.11,15.74-23.05,20.29-34.23,29.74c-10.61,8.98-17.98,25.06-17.8,38.92
						c0.01,0.81,1.26,0.81,1.25,0c-0.21-16.4,9.5-33.03,22.82-42.12c10.76-7.35,25.5-12.2,29.16-26.21
						C485.53,353.88,484.32,353.55,484.12,354.33L484.12,354.33z"/>
				</g>
			</g>
			<g>
				<g>
					<path class="st4" d="M435.91,397.53c2.61,1.32,5.1,2.83,7.5,4.5c0.66,0.46,1.29-0.62,0.63-1.08c-2.4-1.67-4.89-3.18-7.5-4.5
						C435.82,396.09,435.19,397.17,435.91,397.53L435.91,397.53z"/>
				</g>
			</g>
			<g>
				<g>
					<path class="st4" d="M441.53,388.69c1.49,1.65,3.9,2.3,4.9,4.37c0.35,0.73,1.43,0.09,1.08-0.63c-1.08-2.23-3.52-2.88-5.1-4.63
						C441.87,387.2,440.99,388.09,441.53,388.69L441.53,388.69z"/>
				</g>
			</g>
			<g>
				<g>
					<path class="st4" d="M449.78,382.19c1.5,1.25,3,2.5,4.5,3.75c0.62,0.51,1.5-0.37,0.88-0.88c-1.5-1.25-3-2.5-4.5-3.75
						C450.05,380.79,449.16,381.67,449.78,382.19L449.78,382.19z"/>
				</g>
			</g>
			<g>
				<g>
					<path class="st4" d="M458.28,375.69c1.99,1.76,3.76,3.74,5.75,5.5c0.6,0.53,1.49-0.35,0.88-0.88c-1.99-1.76-3.76-3.74-5.75-5.5
						C458.56,374.27,457.67,375.15,458.28,375.69L458.28,375.69z"/>
				</g>
			</g>
			<g>
				<g>
					<path class="st4" d="M467.78,370.19c1.86,1.57,3.89,2.93,5.75,4.5c0.61,0.52,1.5-0.36,0.88-0.88c-1.86-1.57-3.89-2.93-5.75-4.5
						C468.05,368.79,467.16,369.67,467.78,370.19L467.78,370.19z"/>
				</g>
			</g>
			<g>
				<g>
					<path class="st4" d="M476.16,361.78c2.59,1.57,5.1,3.28,7.75,4.75c0.71,0.39,1.34-0.69,0.63-1.08
						c-2.65-1.47-5.16-3.18-7.75-4.75C476.09,360.29,475.47,361.37,476.16,361.78L476.16,361.78z"/>
				</g>
			</g>
			<g>
				<g>
					<path class="st4" d="M440.12,326.41c1.4,4.76,3.7,8.5,3.59,13.71c-0.09,4.75-1.31,9.62-3.38,13.88
						c-4,8.19-12.82,9.03-18.05,15.6c-4.6,5.78-2.62,15.51-2.65,22.27c-0.05,9.77-2.59,17.97-9.35,25.18
						c-0.55,0.59,0.33,1.47,0.88,0.88c5.04-5.38,8.44-11.6,9.28-19.01c1.15-10.13-3.16-25.17,6.41-31.9
						c2.88-2.02,6.44-3.04,9.07-5.43c3.02-2.74,5.15-5.93,6.72-9.68c1.55-3.68,2.04-7.84,2.33-11.79c0.39-5.5-2.17-9.01-3.64-14.04
						C441.1,325.31,439.89,325.64,440.12,326.41L440.12,326.41z"/>
				</g>
			</g>
			<g>
				<g>
					<path class="st4" d="M418.3,380.35c1.67,0.45,3.39,0.6,5,1.25c0.75,0.3,1.07-0.91,0.33-1.2c-1.61-0.65-3.33-0.8-5-1.25
						C417.86,378.93,417.53,380.14,418.3,380.35L418.3,380.35z"/>
				</g>
			</g>
			<g>
				<g>
					<path class="st4" d="M420.53,366.69c1.81,1.51,3.88,2.61,5.88,3.85c0.69,0.42,1.32-0.66,0.63-1.08
						c-1.9-1.18-3.9-2.21-5.62-3.65C420.8,365.29,419.91,366.17,420.53,366.69L420.53,366.69z"/>
				</g>
			</g>
			<g>
				<g>
					<path class="st4" d="M433.66,359.28c2.21,1.57,4.84,2.3,7.4,3.06c0.77,0.23,1.1-0.97,0.33-1.2c-2.47-0.74-4.98-1.42-7.1-2.94
						C433.63,357.74,433,358.82,433.66,359.28L433.66,359.28z"/>
				</g>
			</g>
			<g>
				<g>
					<path class="st4" d="M439.8,349.1c2.24,0.42,4.52,0.08,6.75,0.5c0.79,0.15,1.12-1.05,0.33-1.2c-2.24-0.42-4.52-0.08-6.75-0.5
						C439.35,347.74,439.01,348.95,439.8,349.1L439.8,349.1z"/>
				</g>
			</g>
			<g>
				<g>
					<path class="st4" d="M440.89,336.85c2.04-0.71,4.21-0.79,6.25-1.5c0.76-0.26,0.43-1.47-0.33-1.2c-2.04,0.71-4.21,0.79-6.25,1.5
						C439.8,335.91,440.12,337.11,440.89,336.85L440.89,336.85z"/>
				</g>
			</g>
			<g>
				<g>
					<path class="st4" d="M439.14,330.1c1.79-0.72,3.68-0.99,5.58-1.23c0.79-0.1,0.8-1.35,0-1.25c-2.01,0.25-4.02,0.51-5.92,1.27
						C438.07,329.19,438.39,330.4,439.14,330.1L439.14,330.1z"/>
				</g>
			</g>
		</g>
		<g class="st2">
			<g>
				<g>
					<g>
						<path class="st3" d="M130.37,333.25c2.78-7.52,3.26-15.19,3.47-23.13c0.15-5.33,0.15-10.61-1.39-15.77
							c-1.06-3.55-3.29-6.15-7.14-6.13c-4.51,0.02-7.26,6.5-9.33,9.55c0.39,0.11,0.78,0.21,1.16,0.32
							c0.54-6.47,2.95-21.78-5.64-24.53c-6.18-1.98-10.72,11.52-11.95,15.36c0.4,0,0.8,0,1.21,0c-2.58-7.52-5.06-15.33-11.02-20.88
							c-2.39-2.23-8.52-5.9-10.52-1.27c-1.62,3.75,1.8,9.42,3.41,12.64c2.58,5.17,5.87,9.92,8.61,15c0.29-0.29,0.57-0.57,0.85-0.86
							c-5.95-2.71-19.07-6.99-24.64-1.6c-2.19,2.12-0.83,6.23,0.88,8.15c3.88,4.37,9.72,6.34,14.8,8.95
							c1.36,0.7,2.65,1.49,3.86,2.44c-0.25-0.2-1.6,0.17-2.55,0.41c-2.43,0.6-4.79,1.31-6.94,2.62c-3.62,2.21-2.49,5.91-0.28,8.62
							c9.54,11.68,26.66,14.86,40.64,16.8c0.79,0.11,1.13-1.09,0.33-1.21c-10.88-1.51-22.34-3.51-31.71-9.58
							c-3.4-2.2-9.68-6.04-10.2-10.53c-0.51-4.47,8.97-5.54,11.9-6.43c0.43-0.13,0.63-0.72,0.28-1.04
							c-5.84-5.35-18.2-6.43-20.7-14.83c-2.86-9.59,19.89-3.42,23.69-1.69c0.56,0.25,1.17-0.27,0.86-0.86
							c-3.68-6.83-8.25-13.15-11.04-20.45c-0.63-1.64-1.09-3.37-1.08-5.14c0.03-5.87,8.19,0.29,9.57,1.57
							c5.34,4.98,7.5,12.8,9.8,19.49c0.2,0.59,1.01,0.6,1.21,0c1.17-3.62,6.46-18.49,12.35-13.33c5.37,4.71,3.31,15.95,2.79,22.17
							c-0.06,0.67,0.85,0.79,1.16,0.32c2.44-3.59,6.59-12.45,12.08-7.58c3.02,2.69,3.27,8.7,3.5,12.38
							c0.61,9.8-0.06,20.49-3.47,29.72C128.88,333.68,130.09,334,130.37,333.25L130.37,333.25z"/>
					</g>
				</g>
				<g>
					<g>
						<path class="st3" d="M87.73,275.9c6.69,10.24,11.1,21.67,18,31.85c3.28,4.83,6.92,9.42,10.78,13.79
							c3.96,4.48,8.58,8.08,12.82,12.23c0.58,0.56,1.46-0.32,0.88-0.88c-3.82-3.74-7.98-7.02-11.66-10.95
							c-4.31-4.61-8.15-9.64-11.75-14.82c-7.02-10.11-11.3-21.61-18-31.85C88.37,274.6,87.28,275.22,87.73,275.9L87.73,275.9z"/>
					</g>
				</g>
				<g>
					<g>
						<path class="st3" d="M108.16,284.67c-1.03,7.04-3.29,14.93-1.82,22.05c0.25,1.23-9.25-2.05-10.24-2.41
							c-4.25-1.55-8.46-3.03-12.93-3.83c-0.79-0.14-1.13,1.06-0.33,1.21c8.36,1.48,15.94,5.54,24.25,7.25
							c0.39,0.08,0.79-0.18,0.79-0.6c0-3.41-0.71-6.58-0.46-10.06c0.32-4.45,1.29-8.86,1.94-13.28
							C109.48,284.21,108.28,283.87,108.16,284.67L108.16,284.67z"/>
					</g>
				</g>
				<g>
					<g>
						<path class="st3" d="M123.23,299.27c-2.78,4.08-4.29,8.41-5.16,13.25c-0.38,2.12-0.51,4.29-0.62,6.44
							c-0.14,2.71-0.54,1.71-2.55,0.92c-7.96-3.16-17.57-1.49-25.88-1.42c-0.81,0.01-0.81,1.26,0,1.25
							c9.3-0.08,20.29-2.06,28.68,2.92c0.41,0.24,0.94-0.07,0.94-0.54c0.07-7.9,1.13-15.52,5.66-22.18
							C124.76,299.23,123.68,298.61,123.23,299.27L123.23,299.27z"/>
					</g>
				</g>
			</g>
			<g>
				<g>
					<path class="st4" d="M189.14,401.66c4.44-28.75,8.64-51.91,7.14-73.91c-0.5-6.5-6-39.5-17.5-24.5c-7,10-0.5,35.5,1,46.5
						C181.78,365.74,185.14,386.16,189.14,401.66"/>
				</g>
				<g>
					<path class="st4" d="M186.78,392.74c0.5-13.5-3.5-28.5-6.5-41.5c-2.5-13-7-31-15.5-41c-3-3.5-10-9.5-14-4c-3,4.5,2,17,3.5,21.5
						c5.5,14.5,14,28,20.5,42c4,8.5,8,16.5,12,24.5"/>
				</g>
				<g>
					<path class="st4" d="M186.28,393.24c-9.5-25.5-23-53.5-44.5-71c-8-7-25-10.5-16.5,6.5c7.5,14.5,23.5,30,35.5,41
						c9,8.5,20.5,15,28,24.5"/>
				</g>
			</g>
			<g>
				<defs>
					<path id="SVGID_5_" d="M186.28,417.74c2.5-17,8.5-32-2-49c-8.5-14-58-43.5-71.5-46c0-0.5,0,38,18.5,65
						c11.6,16.93,32.5,34.5,54.5,29.5v-0.5"/>
				</defs>
				<clipPath id="SVGID_6_">
					<use xlink:href="#SVGID_5_"  style="overflow:visible;"/>
				</clipPath>
				<g class="st6">
					<path class="st3" d="M186.28,417.74c2.5-17,8.5-32-2-49c-8.5-14-58-43.5-71.5-46c0-0.5,0,38,18.5,65
						c11.6,16.93,32.5,34.5,54.5,29.5v-0.5"/>
				</g>
				<g class="st6">
					<g>
						<path class="st4" d="M115.74,327.23c5.06,7.91,11.57,14.68,17.29,22.1c5.68,7.36,11.34,14.68,17.28,21.84
							c6.77,8.19,13.45,16.47,19.74,25.04c5.24,7.13,11.4,14.33,15.2,22.36c0.35,0.73,1.42,0.09,1.08-0.63
							c-3.81-8.04-10-15.17-15.2-22.36c-5.56-7.69-11.56-15.08-17.57-22.42c-6.6-8.08-13.21-16.08-19.44-24.46
							c-5.59-7.52-12.22-14.18-17.29-22.1C116.38,325.92,115.3,326.55,115.74,327.23L115.74,327.23z"/>
					</g>
				</g>
				<g class="st6">
					<g>
						<path class="st4" d="M176.82,377.58c-0.06,8.72-1.04,17.66,0.27,26.33c0.19,1.26-4.24-0.35-4.65-0.43
							c-2.06-0.42-4.18-0.65-6.25-1.03c-4.54-0.85-9.09-1.72-13.58-2.8c-0.78-0.19-1.12,1.02-0.33,1.21
							c5.01,1.2,10.08,2.15,15.14,3.09c3.31,0.62,7.2,2.12,10.53,2.1c0.44,0,0.66-0.39,0.6-0.79c-1.39-9.17-0.54-18.44-0.48-27.67
							C178.08,376.77,176.83,376.77,176.82,377.58L176.82,377.58z"/>
					</g>
				</g>
				<g class="st6">
					<g>
						<path class="st4" d="M164.51,361.24c1.46,8.18,0.39,17.01,0.71,25.31c0.11,2.85-1.51,2.59-3.96,2.21
							c-2.31-0.36-4.61-0.83-6.91-1.3c-4.54-0.94-9.01-2.19-13.41-3.65c-0.77-0.25-1.09,0.95-0.33,1.21
							c8.3,2.74,16.83,4.57,25.5,5.69c0.32,0.04,0.65-0.32,0.63-0.63c-0.87-9.63,0.67-19.66-1.02-29.17
							C165.57,360.12,164.37,360.46,164.51,361.24L164.51,361.24z"/>
					</g>
				</g>
				<g class="st6">
					<g>
						<path class="st4" d="M151.32,352.08c0.25,3.71,0.33,7.42,0.33,11.14c0,2.4,1.2,9.06-2.05,8.87
							c-6.62-0.39-13.18-2.18-19.83-2.47c-0.81-0.04-0.8,1.21,0,1.25c7.42,0.32,14.9,2.76,22.33,2.5c0.35-0.01,0.62-0.28,0.63-0.63
							c0.17-6.89,0.3-13.78-0.17-20.67C152.52,351.28,151.27,351.27,151.32,352.08L151.32,352.08z"/>
					</g>
				</g>
				<g class="st6">
					<g>
						<path class="st4" d="M138.84,341.24c0.34,1.51,1.29,14.54-0.64,14.55c-2.95,0.02-5.96-0.79-8.86-1.3
							c-2.67-0.47-5.32-0.65-7.91-1.52c-0.77-0.26-1.09,0.95-0.33,1.21c2.97,1,6.1,1.21,9.17,1.74c3.06,0.54,6.04,1.13,9.16,1.11
							c0.35,0,0.61-0.28,0.63-0.63c0.24-5.15,1.14-10.4-0.02-15.5C139.87,340.13,138.66,340.46,138.84,341.24L138.84,341.24z"/>
					</g>
				</g>
				<g class="st6">
					<g>
						<path class="st4" d="M128.51,332.58c0.52,3.4-0.42,6.76-0.36,10.17c0.21-0.21,0.42-0.42,0.63-0.63
							c-3.39,0.31-6.88,0.09-10.17-0.81c-0.78-0.21-1.11,0.99-0.33,1.21c3.39,0.93,7.01,1.17,10.5,0.86
							c0.33-0.03,0.63-0.26,0.63-0.63c-0.07-3.53,0.85-6.97,0.31-10.5C129.59,331.45,128.39,331.79,128.51,332.58L128.51,332.58z"/>
					</g>
				</g>
				<g class="st6">
					<g>
						<path class="st4" d="M161.11,359c1.61,0,1.61-2.5,0-2.5S159.5,359,161.11,359L161.11,359z"/>
					</g>
				</g>
				<g class="st6">
					<g>
						<path class="st4" d="M159.11,355.83c1.61,0,1.61-2.5,0-2.5S157.5,355.83,159.11,355.83L159.11,355.83z"/>
					</g>
				</g>
				<g class="st6">
					<g>
						<path class="st4" d="M157.94,360.66c1.61,0,1.61-2.5,0-2.5S156.33,360.66,157.94,360.66L157.94,360.66z"/>
					</g>
				</g>
				<g class="st6">
					<g>
						<path class="st4" d="M133.78,364.16c1.61,0,1.61-2.5,0-2.5C132.17,361.66,132.17,364.16,133.78,364.16L133.78,364.16z"/>
					</g>
				</g>
				<g class="st6">
					<g>
						<path class="st4" d="M129.78,362.33c1.61,0,1.61-2.5,0-2.5C128.17,359.83,128.17,362.33,129.78,362.33L129.78,362.33z"/>
					</g>
				</g>
				<g class="st6">
					<g>
						<path class="st4" d="M129.94,366.5c1.61,0,1.61-2.5,0-2.5C128.33,364,128.33,366.5,129.94,366.5L129.94,366.5z"/>
					</g>
				</g>
				<g class="st6">
					<g>
						<path class="st4" d="M138.11,379.33c1.61,0,1.61-2.5,0-2.5S136.5,379.33,138.11,379.33L138.11,379.33z"/>
					</g>
				</g>
				<g class="st6">
					<g>
						<path class="st4" d="M134.11,379.5c1.61,0,1.61-2.5,0-2.5S132.5,379.5,134.11,379.5L134.11,379.5z"/>
					</g>
				</g>
				<g class="st6">
					<g>
						<path class="st4" d="M151.94,394.5c1.61,0,1.61-2.5,0-2.5S150.33,394.5,151.94,394.5L151.94,394.5z"/>
					</g>
				</g>
				<g class="st6">
					<g>
						<path class="st4" d="M147.61,395.33c1.61,0,1.61-2.5,0-2.5S146,395.33,147.61,395.33L147.61,395.33z"/>
					</g>
				</g>
				<g class="st6">
					<g>
						<path class="st4" d="M174.11,372c1.61,0,1.61-2.5,0-2.5S172.5,372,174.11,372L174.11,372z"/>
					</g>
				</g>
				<g class="st6">
					<g>
						<path class="st4" d="M133.78,340.16c1.61,0,1.61-2.5,0-2.5C132.17,337.66,132.17,340.16,133.78,340.16L133.78,340.16z"/>
					</g>
				</g>
				<g class="st6">
					<g>
						<path class="st4" d="M117.28,338.16c1.61,0,1.61-2.5,0-2.5C115.67,335.66,115.67,338.16,117.28,338.16L117.28,338.16z"/>
					</g>
				</g>
			</g>
			<g>
				<g>
					<path class="st3" d="M183.38,386.41c1.18-8.56,1.04-17.11-0.92-25.54c-2.02-8.68-7.41-15.53-12.36-22.71
						c-13.31-19.31-5.06-40.65,7.22-58.1c0.47-0.66-0.62-1.28-1.08-0.63c-10.25,14.55-19.06,33.16-11.97,50.96
						c3.16,7.95,9.49,14.29,13.59,21.75c5.54,10.09,5.86,22.8,4.32,33.94C182.07,386.87,183.27,387.21,183.38,386.41L183.38,386.41z
						"/>
				</g>
			</g>
			<g>
				<g>
					<path class="st3" d="M168.59,294.53c5.12-2.92,12.9-5.5,15.13-11.59c1.14-3.12,1.4-8.2-2.43-9.67
						c-4.61-1.77-9.31,0.76-11.58,4.82c-2.56,4.57-2.3,10.6-2.3,15.66c0,0.81,1.25,0.81,1.25,0c-0.01-7.54-0.12-19.56,10.13-19.78
						c6.01-0.13,4.74,7.36,2.68,10.54c-2.81,4.36-9.17,6.47-13.5,8.94C167.26,293.85,167.89,294.93,168.59,294.53L168.59,294.53z"/>
				</g>
			</g>
			<g>
				<g>
					<path class="st3" d="M163.65,307.74c0.59-4.85,0.47-10.3-2.11-14.58c-1.18-1.96-3.66-5.27-6.34-4.44
						c-3.22,0.99-2.04,7.42-1.5,9.61c1.15,4.63,4.5,8.72,8.9,10.52c0.75,0.31,1.07-0.9,0.33-1.2c-3.37-1.38-5.63-4.1-7.19-7.31
						c-0.78-1.61-2.95-12.22,1.25-10.21c5.99,2.86,6.05,12.22,5.39,17.63C162.31,308.54,163.56,308.53,163.65,307.74L163.65,307.74z
						"/>
				</g>
			</g>
			<g>
				<g>
					<path class="st3" d="M162.82,306.68c-1.78-4.03-3.72-7.97-5.5-12c-0.33-0.74-1.4-0.1-1.08,0.63c1.78,4.03,3.72,7.97,5.5,12
						C162.06,308.05,163.14,307.41,162.82,306.68L162.82,306.68z"/>
				</g>
			</g>
			<g>
				<g>
					<path class="st3" d="M163.82,317.31c1.76-3.78,9.81-16.1,14.85-11.25c7.77,7.49-10.1,11.93-14.97,10.83
						c-0.79-0.18-1.12,1.03-0.33,1.2c6.24,1.4,21.39-2.16,17.38-11.14c-4.49-10.06-15.91,5.23-18.01,9.72
						C162.4,317.4,163.48,318.04,163.82,317.31L163.82,317.31z"/>
				</g>
			</g>
			<g>
				<g>
					<path class="st3" d="M163.59,317.78c3.77-2.14,7.62-4.2,10.88-7.1c0.6-0.54-0.28-1.42-0.88-0.88
						c-3.18,2.82-6.95,4.81-10.62,6.9C162.26,317.1,162.89,318.18,163.59,317.78L163.59,317.78z"/>
				</g>
			</g>
			<g>
				<g>
					<path class="st3" d="M164.82,328.43c-2.26-3.38-15-18.75-19.58-11.82c-6.68,10.1,12.45,13.1,18.54,12.51
						c0.79-0.08,0.8-1.33,0-1.25c-5.39,0.52-22.18-1.33-17.77-10.17c3.1-6.21,15.85,8.55,17.73,11.36
						C164.18,329.73,165.27,329.1,164.82,328.43L164.82,328.43z"/>
				</g>
			</g>
			<g>
				<g>
					<path class="st3" d="M163.84,327.7c-4.31-2-8.91-3.61-12.62-6.65c-0.62-0.51-1.51,0.37-0.88,0.88
						c3.82,3.12,8.45,4.8,12.88,6.85C163.94,329.12,164.58,328.04,163.84,327.7L163.84,327.7z"/>
				</g>
			</g>
			<g>
				<g>
					<path class="st3" d="M170.38,338.41c0.49-1.26,2.02-2.41,2.94-3.34c1.51-1.53,3.04-3.05,4.48-4.65
						c1.22-1.35,4.81-4.89,3.45-7.04c-1.65-2.61-6.32-1.14-8.18,0.35c-3.68,2.97-4.33,9.41-4.17,13.77c0.03,0.8,1.28,0.81,1.25,0
						c-0.15-3.97,0.49-8.24,2.68-11.62c1.65-2.54,9.29-4.16,6.66,0.36c-1.59,2.73-4.14,5-6.34,7.23c-1.32,1.33-3.27,2.81-3.98,4.62
						C168.88,338.83,170.09,339.15,170.38,338.41L170.38,338.41z"/>
				</g>
			</g>
			<g>
				<g>
					<path class="st3" d="M170.57,337.06c2.01-3.74,4.17-7.41,6-11.25c0.34-0.72-0.73-1.36-1.08-0.63c-1.83,3.84-3.99,7.51-6,11.25
						C169.11,337.14,170.19,337.77,170.57,337.06L170.57,337.06z"/>
				</g>
			</g>
			<g>
				<g>
					<path class="st3" d="M174.22,344.55c-2.81-2.48-14.68-11.82-16.13-3.73c-1.23,6.85,12.65,6.3,16.36,5.28
						c0.78-0.21,0.45-1.42-0.33-1.2c-3.56,0.99-13.06,1.54-14.72-2.76c-0.83-2.15,1.19-3.46,3.04-3.18
						c1.53,0.23,2.96,1.03,4.29,1.76c2.36,1.3,4.59,2.94,6.6,4.73C173.94,345.97,174.83,345.09,174.22,344.55L174.22,344.55z"/>
				</g>
			</g>
			<g>
				<g>
					<path class="st3" d="M174.19,344.64c-3.23-0.74-6.48-1.46-9.35-3.19c-0.69-0.42-1.32,0.66-0.63,1.08
						c2.96,1.79,6.32,2.55,9.65,3.31C174.65,346.03,174.98,344.82,174.19,344.64L174.19,344.64z"/>
				</g>
			</g>
			<g>
				<g>
					<path class="st3" d="M158.07,422.43c-2.73-5.45-8.36-7.85-13.76-9.95c-8.18-3.19-16.47-6.56-24.07-10.99
						c-9.35-5.44-14.16-13.42-16.08-23.84c-1.44-7.8-0.88-17.04-4.58-24.21c-0.37-0.72-1.45-0.08-1.08,0.63
						c3.85,7.44,3.21,17.17,4.72,25.32c1.41,7.61,4.8,14.14,10.71,19.19c6.75,5.77,15.36,8.66,23.26,12.42
						c6.92,3.29,16.05,4.54,19.82,12.07C157.35,423.78,158.43,423.15,158.07,422.43L158.07,422.43z"/>
				</g>
			</g>
			<g>
				<path class="st4" d="M99.28,353.49c1-4.5,7-16.75,2-18.5c-3.5-0.25-1.75,8.25-2.5,12.5c-0.75-3.75-2-13.75-6.25-14.5
					c-2,4.25,2.5,10.25,3.75,14.25c-1-1.75-8.25-12.25-11-11c-3,1.5,6.5,10.75,7.75,12.25c-1.5-1-11.75-7.25-13.5-4.5
					c-1.5,2.25,12.5,6.5,14,7.75c-3,0.25-6.75-1.5-9.75-0.5c-3.75,1-3.5,2.75,0.25,3.75C88.03,356.24,95.03,355.3,99.28,353.49"/>
			</g>
			<g>
				<g>
					<path class="st3" d="M103.15,376.99c-0.14-3.79-6.02-19.22-11.54-12.74c-2.01,2.36,1.01,5.82,2.54,7.48
						c2.32,2.53,5.48,5.31,8.72,6.61c0.75,0.3,1.07-0.91,0.33-1.2c-2.1-0.84-4.02-2.52-5.72-3.96c-2-1.69-4.88-4.15-5.22-6.92
						c-0.23-1.88,2.07-2.47,3.4-1.79c1.46,0.75,2.44,2.44,3.25,3.8c1.48,2.51,2.9,5.77,3,8.73
						C101.93,377.8,103.18,377.8,103.15,376.99L103.15,376.99z"/>
				</g>
			</g>
			<g>
				<g>
					<path class="st3" d="M103.47,376.8c-2.35-2.9-4.5-5.96-7-8.75c-0.54-0.6-1.42,0.29-0.88,0.88c2.5,2.79,4.65,5.85,7,8.75
						C103.09,378.31,103.97,377.42,103.47,376.8L103.47,376.8z"/>
				</g>
			</g>
			<g>
				<g>
					<path class="st3" d="M110.07,392.44c2.42-3.31,4.17-6.86,4.98-10.9c0.39-1.96-0.41-5.45-2.96-5.45c-2.5,0-3.68,3.27-4.1,5.22
						c-0.73,3.41,0.24,7.17,1.06,10.48c0.19,0.78,1.4,0.45,1.2-0.33c-1-4.02-2.15-8.64-0.11-12.52c1.47-2.79,3.65-0.75,3.77,1.53
						c0.07,1.37-0.61,2.96-1.02,4.25c-0.82,2.58-2.32,4.92-3.91,7.09C108.51,392.46,109.6,393.08,110.07,392.44L110.07,392.44z"/>
				</g>
			</g>
			<g>
				<g>
					<path class="st3" d="M110.15,392.12c-0.07-4.08,0.62-8.23,1.98-12.08c0.27-0.76-0.94-1.09-1.2-0.33
						c-1.39,3.94-2.1,8.24-2.02,12.42C108.92,392.92,110.17,392.93,110.15,392.12L110.15,392.12z"/>
				</g>
			</g>
			<g>
				<g>
					<path class="st3" d="M113.85,397.3c-2.24-2.83-5.99-5.66-9.62-6.25c-1.63-0.27-5.07-0.13-5.61,1.97
						c-0.66,2.59,1.96,5.17,4.2,5.98c3.7,1.35,7.65,0.53,11.38-0.28c0.79-0.17,0.45-1.37-0.33-1.2c-4.53,0.97-11.85,2.52-14.05-3.13
						c-1.18-3.04,5.02-2.02,6.05-1.58c2.69,1.16,5.28,3.07,7.1,5.37C113.46,398.82,114.34,397.93,113.85,397.3L113.85,397.3z"/>
				</g>
			</g>
			<g>
				<g>
					<path class="st3" d="M113.78,397.37c-3.08-0.21-5.88-1.57-8.83-2.35c-0.78-0.21-1.11,1-0.33,1.2c3.07,0.82,5.96,2.18,9.17,2.4
						C114.58,398.68,114.58,397.42,113.78,397.37L113.78,397.37z"/>
				</g>
			</g>
			<g>
				<g>
					<path class="st3" d="M102.47,365.78c2.32-1,4.24-3.43,5.73-5.37c1.05-1.36,3.17-4.32,1.73-6.07c-1.73-2.11-4.82-0.63-6.16,1.07
						c-1.91,2.42-2.95,6.49-2.1,9.49c0.22,0.77,1.42,0.45,1.2-0.33c-0.66-2.33,0.1-5.06,1.12-7.17c0.56-1.16,1.41-2.27,2.66-2.7
						c1.03-0.36,2.49-0.01,2.45,1.23c-0.07,1.94-2.09,4.06-3.28,5.4c-1.11,1.24-2.44,2.7-3.99,3.37
						C101.1,365.02,101.74,366.1,102.47,365.78L102.47,365.78z"/>
				</g>
			</g>
			<g>
				<g>
					<path class="st3" d="M103.44,364.69c1.48-2.41,2.98-4.79,4.06-7.4c0.31-0.74-0.9-1.07-1.2-0.33c-1.04,2.51-2.52,4.79-3.94,7.1
						C101.94,364.74,103.02,365.37,103.44,364.69L103.44,364.69z"/>
				</g>
			</g>
			<g>
				<path class="st3" d="M111.53,419.74c-4.25,1-9.25-3.25-12.75-5.25c-5-2.5-8.25-5-11.25-9.5c-3.25-5-2.5-9.25-2.75-15
					c-0.25-6.75,1.25-15.5-1-21.75c-3.25-8.5-10.25-5.25-16-10c-9.5-8.25,7.5-36-6.25-39.5c-9.25-2.5-14.75,10.25-15.75,17.25
					c-1,6.75-1.25,14.5,1.75,20.75c1.75,3.5,4.5,7.75,7.75,10c3,2.25,6.75,2.5,10,4c7.25,3.5,7.75,8.75,7.5,16
					c-0.25,7.5,0,15.5,3.5,22.5c1.75,3.75,4.5,7,8.25,9c2.75,1.5,6.5,2,8.5,4.75"/>
			</g>
			<g>
				<path class="st3" d="M73.78,422.49c-4.25-4.5-3.25-12-4.5-17.75c-1.75-8.75-4.75-17.5-12-23c-6.75-5.25-15.5-8-22-13.5
					c-3.25-2.75-6-5.75-8.25-9.25c-2.25-3.25-3.5-7.25-6.75-9.25c-8-5-14.75,2.5-13.25,10.5c1.5,8.5,9.5,14.25,16.5,18
					c7.75,4,15.75,5.75,22.25,11.75c5.75,5.75,9,12.75,10.25,20.5c0.75,3.75,0.75,7.75,0.75,11.5"/>
			</g>
			<g>
				<g>
					<path class="st4" d="M14.68,354.66c3.46,13.26,17.33,18.87,27.94,25.42c14.09,8.69,24.25,26.21,24.04,42.91
						c-0.01,0.81,1.24,0.81,1.25,0c0.18-13.72-6.93-28.67-16.8-38.03c-11.07-10.5-30.93-14.18-35.22-30.63
						C15.68,353.55,14.47,353.88,14.68,354.66L14.68,354.66z"/>
				</g>
			</g>
			<g>
				<g>
					<path class="st4" d="M63.46,396.45c-2.61,1.32-5.1,2.83-7.5,4.5c-0.66,0.46-0.03,1.54,0.63,1.08c2.4-1.67,4.89-3.18,7.5-4.5
						C64.81,397.17,64.18,396.09,63.46,396.45L63.46,396.45z"/>
				</g>
			</g>
			<g>
				<g>
					<path class="st4" d="M57.59,387.8c-1.58,1.75-4.02,2.4-5.1,4.63c-0.35,0.72,0.73,1.36,1.08,0.63c1-2.08,3.42-2.73,4.9-4.37
						C59.01,388.09,58.13,387.2,57.59,387.8L57.59,387.8z"/>
				</g>
			</g>
			<g>
				<g>
					<path class="st4" d="M49.34,381.3c-1.5,1.25-3,2.5-4.5,3.75c-0.62,0.52,0.27,1.4,0.88,0.88c1.5-1.25,3-2.5,4.5-3.75
						C50.84,381.67,49.95,380.79,49.34,381.3L49.34,381.3z"/>
				</g>
			</g>
			<g>
				<g>
					<path class="st4" d="M40.84,374.8c-1.99,1.76-3.76,3.74-5.75,5.5c-0.6,0.54,0.28,1.42,0.88,0.88c1.99-1.76,3.76-3.74,5.75-5.5
						C42.33,375.15,41.44,374.27,40.84,374.8L40.84,374.8z"/>
				</g>
			</g>
			<g>
				<g>
					<path class="st4" d="M31.34,369.3c-1.86,1.57-3.89,2.93-5.75,4.5c-0.62,0.52,0.27,1.4,0.88,0.88c1.86-1.57,3.89-2.93,5.75-4.5
						C32.84,369.67,31.95,368.79,31.34,369.3L31.34,369.3z"/>
				</g>
			</g>
			<g>
				<g>
					<path class="st4" d="M23.21,360.7c-2.59,1.57-5.1,3.28-7.75,4.75c-0.71,0.39-0.07,1.47,0.63,1.08
						c2.65-1.47,5.16-3.18,7.75-4.75C24.53,361.37,23.9,360.29,23.21,360.7L23.21,360.7z"/>
				</g>
			</g>
			<g>
				<g>
					<path class="st4" d="M58.68,326.08c-1.31,4.48-3.45,7.65-3.67,12.44c-0.19,3.99,0.73,8.28,1.88,12.07
						c2.44,8.04,8.26,11.9,15.17,15.77c10.64,5.96,6.49,21.07,7.35,31.22c0.67,7.94,4.03,14.6,9.43,20.37
						c0.55,0.59,1.43-0.3,0.88-0.88c-6.43-6.87-8.97-14.43-9.32-23.71c-0.3-7.77,1.74-16.65-2.58-23.62
						c-1.43-2.3-3.97-3.8-6.26-5.08c-4.6-2.58-8.23-4.82-11.2-9.41c-2.57-3.98-3.43-8.87-3.96-13.49
						c-0.67-5.82,1.92-10.02,3.48-15.33C60.11,325.64,58.9,325.31,58.68,326.08L58.68,326.08z"/>
				</g>
			</g>
			<g>
				<g>
					<path class="st4" d="M81.36,379.14c-1.67,0.45-3.39,0.6-5,1.25c-0.74,0.3-0.42,1.51,0.33,1.2c1.61-0.65,3.33-0.8,5-1.25
						C82.47,380.14,82.14,378.93,81.36,379.14L81.36,379.14z"/>
				</g>
			</g>
			<g>
				<g>
					<path class="st4" d="M78.59,365.8c-1.73,1.44-3.72,2.48-5.62,3.65c-0.68,0.42-0.06,1.5,0.63,1.08c2-1.24,4.07-2.34,5.88-3.85
						C80.09,366.17,79.2,365.29,78.59,365.8L78.59,365.8z"/>
				</g>
			</g>
			<g>
				<g>
					<path class="st4" d="M65.71,358.2c-2.12,1.51-4.63,2.2-7.1,2.94c-0.77,0.23-0.44,1.44,0.33,1.2c2.56-0.77,5.19-1.49,7.4-3.06
						C66.99,358.82,66.37,357.74,65.71,358.2L65.71,358.2z"/>
				</g>
			</g>
			<g>
				<g>
					<path class="st4" d="M59.86,347.89c-2.23,0.42-4.51,0.08-6.75,0.5c-0.79,0.15-0.46,1.35,0.33,1.2c2.23-0.42,4.51-0.08,6.75-0.5
						C60.99,348.95,60.65,347.74,59.86,347.89L59.86,347.89z"/>
				</g>
			</g>
			<g>
				<g>
					<path class="st4" d="M59.44,335.64c-2.03-0.71-4.21-0.79-6.25-1.5c-0.76-0.27-1.09,0.94-0.33,1.2c2.03,0.71,4.21,0.79,6.25,1.5
						C59.88,337.11,60.2,335.91,59.44,335.64L59.44,335.64z"/>
				</g>
			</g>
			<g>
				<g>
					<path class="st4" d="M61.19,328.89c-1.89-0.77-3.9-1.02-5.92-1.27c-0.8-0.1-0.79,1.15,0,1.25c1.9,0.24,3.79,0.5,5.58,1.23
						C61.61,330.4,61.93,329.19,61.19,328.89L61.19,328.89z"/>
				</g>
			</g>
		</g>
		<g class="st2">
			<g>
				<g>
					<path class="st3" d="M303.26,267.35c3.77,0.12,8.96,1.2,11.34,4.44c1.79,2.44,0.05,4.4-2.13,5.71
						c-2.49,1.49-5.25,2.55-8.01,3.42c-5.87,1.84-12.11,2.88-18.23,3.51c-6.81,0.69-13.74,0.22-20.58,0.3
						c-13.42,0.17-27.02,0.59-40.27,2.84c-5.5,0.93-11.05,2.22-16.2,4.39c-3.81,1.6-7.85,4-9.42,8.04
						c-1.49,3.84-0.33,7.83,3.51,9.56c3.53,1.6,7.57,1.56,11.36,1.95c0.8,0.08,0.79-1.17,0-1.25c-3.44-0.36-7.07-0.33-10.33-1.61
						c-1.53-0.6-2.98-1.59-3.59-3.18c-0.75-1.94-0.27-4.32,0.72-6.09c2.23-3.99,7.05-5.98,11.16-7.38
						c6.02-2.05,12.3-3.25,18.59-4.03c13.53-1.69,27.27-2.07,40.89-2.05c3.42,0.01,6.85,0.12,10.27,0c3.12-0.11,6.2-0.52,9.28-0.98
						c5.99-0.89,12.01-2.08,17.61-4.45c2.28-0.97,5.01-2.11,6.57-4.15c1.39-1.82,0.93-3.96-0.46-5.63
						c-2.75-3.3-7.97-4.49-12.07-4.61C302.45,266.08,302.45,267.33,303.26,267.35L303.26,267.35z"/>
				</g>
			</g>
			<path class="st4" d="M204.92,290.63c-5.52,0-5.52,8.56,0,8.56C210.44,299.19,210.44,290.63,204.92,290.63z"/>
			<path class="st4" d="M223.75,284.35c-5.52,0-5.52,8.56,0,8.56S229.27,284.35,223.75,284.35z"/>
			<path class="st4" d="M247.15,282.64c-5.52,0-5.52,8.56,0,8.56C252.67,291.2,252.67,282.64,247.15,282.64z"/>
			<path class="st4" d="M279.85,282.75c-0.19-0.19-0.38-0.38-0.57-0.57c-1.65-1.65-4.4-1.65-6.05,0c-1.65,1.65-1.65,4.4,0,6.05
				c0.19,0.19,0.38,0.38,0.57,0.57c1.65,1.65,4.4,1.65,6.05,0C281.5,287.16,281.5,284.4,279.85,282.75z"/>
			<path class="st4" d="M300.22,277.5c-5.52,0-5.52,8.56,0,8.56C305.74,286.06,305.74,277.5,300.22,277.5z"/>
			<path class="st4" d="M311.64,264.38c-5.52,0-5.52,8.56,0,8.56C317.16,272.94,317.16,264.38,311.64,264.38z"/>
			<g>
				<g>
					<g>
						<path class="st3" d="M235.76,195.36c1.67,3.83,4.3,6.97,7.29,9.84c2.79,2.69,5.8,5.24,7.86,8.57
							c2.73,4.41,3.26,9.54,3.16,14.63c-0.11,5.92-1.19,11.75-1.93,17.61c-0.87,6.88-1.03,13.76,0.68,20.53
							c0.2,0.78,1.4,0.45,1.21-0.33c-1.58-6.24-1.53-12.6-0.79-18.95c0.69-5.93,1.83-11.81,2.06-17.79
							c0.19-5.05-0.13-10.27-2.46-14.85c-1.78-3.5-4.58-6.25-7.41-8.91c-3.45-3.25-6.65-6.58-8.58-10.99
							C236.52,193.99,235.44,194.63,235.76,195.36L235.76,195.36z"/>
					</g>
				</g>
				<g>
					<g>
						<path class="st3" d="M266.01,225.45c2.37-6.94,9.04-11.67,15.54-14.4c0.73-0.31,0.41-1.52-0.33-1.21
							c-6.94,2.92-13.89,7.88-16.42,15.27C264.54,225.88,265.75,226.21,266.01,225.45L266.01,225.45z"/>
					</g>
				</g>
				<g>
					<g>
						<g>
							<path class="st3" d="M194.67,421.77c3.37-17.07,6.94-34.11,10.24-51.2c3.55-18.34,6.84-36.75,9.35-55.26
								c1.19-8.75,2.2-17.53,2.92-26.34c0.34-4.19,0.62-8.38,0.81-12.57c0.09-2.02,0.16-4.05,0.21-6.07
								c0.02-0.95,0.04-1.91,0.05-2.86c0.01-0.89,0.25-2.13-0.01-2.98c-0.25-0.83-1.03-1.71-1.5-2.44
								c-0.58-0.91-1.17-1.81-1.76-2.71c-1.01-1.52-2.04-3.02-3.11-4.5c-1.74-2.43-3.57-4.79-5.43-7.13
								c-4.25-5.36-8.43-10.74-12.2-16.45c-5.21-7.89-10.21-15.97-15.15-24.03c-3.93-6.41-7.62-13.06-9.56-20.37
								c-2.2-8.29-1.72-16.64-0.53-25.05c1.19-8.44,2.28-16.95,4.59-25.17c1.12-3.97,2.6-7.8,4.03-11.67c1.11-3,2.14-6.06,3.52-8.95
								c2.84-5.96,7.54-9.57,13.73-11.72c3.71-1.29,7.43-2.38,10.99-4.07c3.04-1.44,6-3.01,9.16-4.17
								c6.08-2.23,13.96-4.26,19.73-0.07c6.76,4.89,1.8,13.9-2.17,18.85c-5.6,6.99-13.26,11.66-20.98,15.97
								c-1.96,1.1-3.93,2.17-5.89,3.27c-0.85,0.48-2.19,0.94-2.87,1.64c-0.39,0.39-0.47,0.95-0.61,1.47
								c-0.66,2.37-1.01,4.81-1.16,7.27c-0.35,5.76-0.13,11.47-0.98,17.2c-0.65,4.38-1.68,8.7-2.9,12.95
								c-0.22,0.77,0.98,1.11,1.21,0.33c2.17-7.56,3.55-15.22,3.75-23.09c0.06-2.51,0.03-5.03,0.19-7.54
								c0.08-1.28,0.21-2.55,0.43-3.81c0.19-1.06,0.33-3.08,1.05-3.88c0.66-0.74,2.16-1.26,3.01-1.74c1.02-0.57,2.05-1.14,3.08-1.71
								c2.01-1.11,4.02-2.23,6.01-3.38c3.76-2.19,7.43-4.53,10.79-7.29c3.39-2.78,6.44-6.01,8.89-9.66c2-3,3.76-6.53,3.78-10.22
								c0.03-5.77-4.8-9.24-10.09-10.05c-6.97-1.07-14.09,1.69-20.25,4.69c-3.2,1.56-6.36,3.12-9.74,4.29
								c-3.77,1.3-7.59,2.3-11.01,4.4c-5.05,3.09-7.76,7.92-9.85,13.29c-2.84,7.3-5.65,14.66-7.35,22.32
								c-0.93,4.17-1.61,8.39-2.23,12.62c-0.7,4.73-1.5,9.48-1.91,14.25c-0.67,7.72,0.05,15.45,2.66,22.76
								c2.64,7.39,6.8,14.11,10.97,20.71c5.12,8.1,10.02,16.39,15.52,24.24c3.71,5.29,7.84,10.23,11.77,15.35
								c2.16,2.82,4.23,5.71,6.19,8.67c1.15,1.74,2.99,3.75,2.98,5.89c-0.01,1.99-0.05,3.97-0.11,5.96
								c-0.26,8.79-0.93,17.57-1.84,26.31c-1.98,19-5.05,37.88-8.49,56.67c-3.32,18.16-7.04,36.24-10.69,54.34
								c-0.81,4.03-1.63,8.07-2.42,12.11C193.31,422.22,194.52,422.56,194.67,421.77L194.67,421.77z"/>
						</g>
					</g>
					<g>
						<g>
							<path class="st3" d="M197.89,171.03c-3.29,1.5-7.09,1.22-10.6,1.63c-0.79,0.09-0.8,1.34,0,1.25
								c3.76-0.43,7.71-0.19,11.23-1.8C199.25,171.78,198.62,170.7,197.89,171.03L197.89,171.03z"/>
						</g>
					</g>
					<g>
						<g>
							<path class="st3" d="M197.46,174.24c-1.96,1.29-4.44,1.62-6.75,1.63c-0.8,0-0.81,1.25,0,1.25c2.51-0.01,5.24-0.39,7.38-1.8
								C198.76,174.88,198.14,173.8,197.46,174.24L197.46,174.24z"/>
						</g>
					</g>
					<g>
						<g>
							<path class="st3" d="M305.63,424.58c-3.09-18.94-4.87-38.12-6.3-57.25c-1.49-19.98-2.51-40.02-2.64-60.05
								c-0.05-7.69,0.01-15.39,0.48-23.06c0.28-4.55,0.46-9.46,1.93-13.81c0.51-1.5,1.49-2.84,2.28-4.2
								c1.23-2.11,2.42-4.24,3.58-6.39c3.31-6.14,6.32-12.44,9.08-18.85c8.66-20.11,14.9-41.23,19.31-62.66
								c0.71-3.43,1.37-6.86,1.98-10.31c0.31-1.73,0.61-3.47,0.89-5.21c0.29-1.78,0.31-3.26,0.15-5.05
								c-0.58-6.38-1.48-12.74-2.84-19c-2.11-9.71-5.31-19.43-10.62-27.89c-3.78-6.01-8.82-11.57-15.32-14.67
								c-2.7-1.28-5.58-2.11-8.56-2.39c-1.14-0.11-2.26-0.23-3.32,0.24c-1.14,0.51-2.13,1.4-3.01,2.28
								c-2.87,2.85-5.17,6.34-7.27,9.78c-2.83,4.64-5.29,9.51-7.4,14.52c-2.1,4.99-3.9,10.16-4.99,15.47
								c-0.89,4.31-0.91,8.64-0.51,13.02c0.44,4.84,1.28,9.65,2.45,14.37c0.93,3.74,1.99,7.63,3.82,11.05
								c2.09,3.91,8.05,6.58,11.96,3.66c4.4-3.29,5.28-10.43,5.92-15.44c0.9-7.01,0.94-14.11,0.95-21.17c0-2.3-0.03-4.61,0.09-6.91
								c-0.15,0.2-0.31,0.4-0.46,0.6c5.04-1.79,9.62-4.68,12.84-9.03c2.95-3.99,4.39-8.81,4.72-13.73c0.05-0.8-1.2-0.8-1.25,0
								c-0.3,4.56-1.63,9.01-4.3,12.76c-3.03,4.24-7.48,7.07-12.33,8.79c-0.27,0.1-0.44,0.31-0.46,0.6
								c-0.29,5.55-0.04,11.14-0.22,16.7c-0.21,6.72-0.51,13.81-2.74,20.22c-0.75,2.17-1.86,4.62-3.9,5.87
								c-2.11,1.3-4.59,0.61-6.63-0.5c-2.68-1.46-3.67-3.92-4.69-6.71c-1.51-4.16-2.56-8.5-3.37-12.84
								c-0.87-4.69-1.48-9.48-1.43-14.26c0.05-4.67,1.16-9.21,2.56-13.65c3.12-9.89,7.81-19.67,13.95-28.05
								c1.55-2.11,3.79-5.53,6.45-6.37c1.14-0.36,2.64-0.04,3.79,0.13c1.45,0.22,2.88,0.58,4.27,1.07
								c6.54,2.28,11.8,7.28,15.73,12.86c5.47,7.77,8.85,16.89,11.16,26.05c1.51,5.98,2.55,12.07,3.26,18.18
								c0.18,1.56,0.34,3.11,0.48,4.67c0.18,2.07-0.05,3.93-0.39,5.97c-0.58,3.41-1.2,6.81-1.86,10.21
								c-4.21,21.48-10.2,42.69-18.59,62.93c-2.75,6.64-5.77,13.17-9.1,19.54c-2.08,3.98-4.39,7.82-6.59,11.73
								c-1.78,3.18-1.99,7.37-2.33,10.91c-0.64,6.64-0.8,13.33-0.86,19.99c-0.17,18.72,0.64,37.47,1.82,56.15
								c1.22,19.39,2.88,38.78,5.47,58.04c0.51,3.82,1.07,7.63,1.69,11.43C304.55,425.7,305.75,425.37,305.63,424.58L305.63,424.58z
								"/>
						</g>
					</g>
					<g>
						<g>
							<path class="st3" d="M304.55,149.11c3.58,3.01,8.17,4.75,12.69,5.78c4.5,1.03,9.33,1.48,13.87,0.48
								c0.79-0.17,0.45-1.38-0.33-1.21c-4.31,0.95-8.94,0.49-13.21-0.48c-4.3-0.98-8.73-2.59-12.14-5.46
								C304.82,147.71,303.93,148.59,304.55,149.11L304.55,149.11z"/>
						</g>
					</g>
					<g>
						<g>
							<path class="st3" d="M297.73,94.31c-0.41-4.82-2.99-8.83-7.35-11.01c-3.84-1.92-8.4-2.48-12.64-2.01
								c-4.26,0.48-8.07,2.45-10.92,5.69c-3.56,4.04-5.24,9.37-6.29,14.56c-1.36,6.76-1.82,13.69-2.39,20.55
								c-0.59,7.04-1.33,14.08-1.77,21.13c-0.32,5.03-0.34,10.05,0.08,15.08c0.25,2.93,0.6,5.86,1,8.77
								c0.25,1.88,0.52,3.75,0.8,5.63c0.21,1.38,0.34,2.8,0.81,4.13c1.23,3.49,4.24,6.49,7.97,7.12c4.54,0.77,8.28-2.27,10.45-5.99
								c0.83-1.42,1.47-2.95,2.01-4.5c0.27-0.76-0.94-1.09-1.21-0.33c-1.5,4.27-4.45,9.57-9.61,9.71c-3.6,0.09-6.77-2.5-8.17-5.69
								c-1.14-2.6-1.21-5.72-1.6-8.49c-0.42-2.95-0.8-5.91-1.08-8.88c-0.44-4.57-0.57-9.15-0.37-13.74
								c0.26-5.83,0.85-11.64,1.37-17.45c0.61-6.89,1.04-13.81,1.93-20.67c1.19-9.19,3.69-21.64,13.97-24.76
								c7.14-2.16,17.92-0.28,20.92,7.43c0.47,1.2,0.72,2.46,0.83,3.74C296.55,95.11,297.8,95.12,297.73,94.31L297.73,94.31z"/>
						</g>
					</g>
					<g>
						<g>
							<path class="st3" d="M269.89,85.31c-2.21-6.34-8.08-9.53-14.59-9.5c-3.22,0.01-6.43,0.72-9.39,1.98
								c-3.1,1.32-5.48,3.46-7.32,6.29c-2.5,3.84-3.27,8.4-2.92,12.92c0.06,0.8,1.31,0.8,1.25,0c-0.51-6.66,1.92-14.34,8.29-17.52
								c5.06-2.52,11.66-3.47,16.95-1.08c3.14,1.42,5.39,4,6.52,7.25C268.95,86.39,270.16,86.07,269.89,85.31L269.89,85.31z"/>
						</g>
					</g>
					<g>
						<g>
							<path class="st3" d="M234.47,112.5c0,14.63,0.13,29.26,0.01,43.89c-0.05,6.72,0.08,14.1,3.81,19.96
								c2.83,4.44,9.14,9.46,14.44,5.9c5.17-3.47,6.36-11.42,5.42-17.11c-0.13-0.79-1.34-0.46-1.21,0.33
								c0.83,5-0.16,11.74-4.22,15.21c-5.09,4.35-11.6-1.6-14.03-6.11c-3.13-5.81-3.03-12.81-2.96-19.22
								c0.08-6.53,0.04-13.06,0.02-19.59c-0.02-7.76-0.04-15.51-0.04-23.27C235.72,111.7,234.47,111.7,234.47,112.5L234.47,112.5z"
								/>
						</g>
					</g>
					<g>
						<g>
							<path class="st3" d="M237.37,90.03c-0.4-5.41-6.07-8.66-10.83-9.72c-5.78-1.28-12.25,0.1-15.88,5.09
								c-2.68,3.7-3.24,8.48-2.99,12.92c0.05,0.8,1.3,0.81,1.25,0c-0.37-6.57,1.47-13.88,8.29-16.36
								c4.86-1.77,10.77-0.83,14.99,2.12c1.98,1.39,3.73,3.44,3.91,5.95C236.18,90.83,237.43,90.84,237.37,90.03L237.37,90.03z"/>
						</g>
					</g>
					<g>
						<g>
							<path class="st3" d="M208.18,133.08c0.27,10.11,1.65,20.42,4.44,30.15c1.28,4.47,2.87,9.17,5.73,12.89
								c2.18,2.84,5.45,5.29,9.22,4.78c4.78-0.64,7.65-5.32,9.32-9.37c0.31-0.74-0.9-1.07-1.21-0.33c-1.48,3.58-4.09,7.97-8.35,8.49
								c-3.72,0.45-6.81-2.46-8.71-5.32c-2.43-3.65-3.84-7.98-5-12.18c-1.28-4.6-2.18-9.3-2.87-14.02c-0.73-5-1.2-10.04-1.33-15.09
								C209.41,132.27,208.16,132.27,208.18,133.08L208.18,133.08z"/>
						</g>
					</g>
					<g>
						<path class="st4" d="M207.57,98c4.42,8.71,10.42,8.56,19.99,4.17c6.09-2.79,14.05-10.24,3.84-12.29
							C226.72,88.87,212.49,95.39,207.57,98"/>
					</g>
					<path class="st4" d="M231.84,165.08c-0.05-0.14-0.11-0.28-0.17-0.41c-0.42-1.79-1.73-2.58-3.12-2.21
						c-3.03,0.81-6.14,1.12-9.1,2.32c-1.33,0.54-1.71,2.35-1.4,3.99c0.03,0.17,0.07,0.35,0.1,0.52c0.11,2.43,0.49,5,1.36,7.22
						c0.63,2.14,1.67,4.04,3.13,5.15c3.04,2.32,6.88,1.23,9.02-2.13C234.02,175.83,233.34,169.27,231.84,165.08z"/>
					<path class="st4" d="M254.09,167.9c-0.03-0.15-0.07-0.29-0.11-0.43c-0.15-1.83-1.33-2.81-2.76-2.64
						c-3.12,0.36-6.24,0.21-9.34,0.96c-1.4,0.34-2.03,2.07-1.97,3.74c0.01,0.18,0.02,0.36,0.02,0.53c-0.25,2.42-0.25,5.02,0.29,7.35
						c0.31,2.21,1.06,4.24,2.34,5.55c2.67,2.74,6.63,2.23,9.23-0.79C254.67,178.84,254.96,172.26,254.09,167.9z"/>
					<path class="st4" d="M274.86,168.38c-0.03-0.15-0.07-0.29-0.11-0.43c-0.15-1.83-1.33-2.81-2.76-2.64
						c-3.12,0.36-6.24,0.21-9.34,0.96c-1.4,0.34-2.03,2.07-1.97,3.74c0.01,0.18,0.02,0.36,0.02,0.53c-0.25,2.42-0.25,5.02,0.29,7.35
						c0.31,2.21,1.06,4.24,2.34,5.55c2.67,2.74,6.63,2.23,9.23-0.79C275.43,179.33,275.72,172.74,274.86,168.38z"/>
					<path class="st4" d="M289.19,167.27c-0.05-0.11-0.1-0.2-0.15-0.3c-0.43-1.32-1.48-1.84-2.51-1.47
						c-2.25,0.82-4.58,1.26-6.74,2.36c-0.97,0.5-1.14,1.89-0.79,3.12c0.04,0.13,0.08,0.26,0.11,0.39c0.24,1.84,0.7,3.76,1.51,5.38
						c0.62,1.58,1.53,2.95,2.71,3.69c2.46,1.56,5.3,0.48,6.69-2.22C291.55,175.27,290.6,170.35,289.19,167.27z"/>
					<g>
						<g>
							<path class="st3" d="M216.59,89.35c3.58-0.87,7.32-0.41,10.96-0.41c0.8,0,0.81-1.25,0-1.25c-3.76-0.01-7.6-0.45-11.29,0.45
								C215.47,88.34,215.81,89.54,216.59,89.35L216.59,89.35z"/>
						</g>
					</g>
					<g>
						<g>
							<path class="st3" d="M220.11,85.07c1.43,0.47,2.96,0.45,4.45,0.45c0.34,0,0.63-0.29,0.63-0.63c0-0.34-0.29-0.63-0.63-0.63
								c-0.76,0-1.51,0.01-2.27-0.05c-0.37-0.03-0.55-0.05-0.88-0.11c-0.33-0.06-0.65-0.14-0.97-0.25
								c-0.32-0.11-0.68,0.12-0.77,0.44C219.58,84.64,219.79,84.97,220.11,85.07L220.11,85.07z"/>
						</g>
					</g>
					<g>
						<g>
							<path class="st3" d="M242.96,90.23c4.02-0.45,8.29-1.3,12.25-0.02c0.77,0.25,1.1-0.96,0.33-1.21
								c-4.07-1.31-8.44-0.49-12.58-0.02C242.17,89.07,242.16,90.32,242.96,90.23L242.96,90.23z"/>
						</g>
					</g>
					<g>
						<g>
							<path class="st3" d="M245.96,85.52c2.14,0,4.28,0,6.42,0c0.8,0,0.81-1.25,0-1.25c-2.14,0-4.28,0-6.42,0
								C245.15,84.27,245.15,85.52,245.96,85.52L245.96,85.52z"/>
						</g>
					</g>
					<g>
						<g>
							<path class="st3" d="M268.21,94.08c3.72-0.01,7.78-0.49,11.24,1.2c0.72,0.35,1.35-0.73,0.63-1.08
								c-3.69-1.8-7.89-1.38-11.87-1.37C267.41,92.83,267.41,94.08,268.21,94.08L268.21,94.08z"/>
						</g>
					</g>
					<g>
						<g>
							<path class="st3" d="M272.92,90.23c3.2,0.41,6.28,1.31,9.1,2.91c0.7,0.4,1.33-0.68,0.63-1.08c-3.02-1.71-6.3-2.64-9.73-3.08
								c-0.34-0.04-0.62,0.32-0.63,0.63C272.29,89.98,272.59,90.19,272.92,90.23L272.92,90.23z"/>
						</g>
					</g>
					<g>
						<g>
							<path class="st3" d="M277.2,88.09c0.7,0,1.4,0,2.1,0.05c0.7,0.05,1.31,0.13,2.01,0.35c0.32,0.1,0.68-0.12,0.77-0.44
								c0.09-0.34-0.11-0.66-0.44-0.77c-1.42-0.46-2.97-0.45-4.45-0.45c-0.34,0-0.63,0.29-0.63,0.63
								C276.58,87.8,276.86,88.09,277.2,88.09L277.2,88.09z"/>
						</g>
					</g>
					<g>
						<g>
							<path class="st3" d="M297,134.23c-1.04-2.07-2.32-4.05-3.95-5.69c-0.57-0.57-1.45,0.31-0.88,0.88
								c1.56,1.57,2.76,3.46,3.75,5.44c0.15,0.3,0.58,0.39,0.86,0.22C297.08,134.91,297.15,134.53,297,134.23L297,134.23z"/>
						</g>
					</g>
					<g>
						<g>
							<path class="st3" d="M298.01,100.48c3.47,0.89,6.61,2.89,9.14,5.4c0.57,0.57,1.46-0.32,0.88-0.88
								c-2.67-2.65-6.02-4.79-9.69-5.73C297.56,99.07,297.23,100.28,298.01,100.48L298.01,100.48z"/>
						</g>
					</g>
					<g>
						<g>
							<path class="st3" d="M303.42,99.13c1.42,0.94,2.95,1.71,4.15,2.9c0.57,0.57,1.46-0.32,0.88-0.88
								c-1.29-1.28-2.91-2.1-4.41-3.09c-0.28-0.19-0.69-0.06-0.86,0.22C303.02,98.58,303.14,98.95,303.42,99.13L303.42,99.13z"/>
						</g>
					</g>
					<g>
						<g>
							<path class="st3" d="M243.39,139.88c1.71,0,3.42,0,5.14,0c0.8,0,0.81-1.25,0-1.25c-1.71,0-3.42,0-5.14,0
								C242.58,138.63,242.58,139.88,243.39,139.88L243.39,139.88z"/>
						</g>
					</g>
					<g>
						<g>
							<path class="st3" d="M244.24,136.88c1.28,0,2.57,0,3.85,0c0.33,0,0.64-0.29,0.63-0.63c-0.02-0.34-0.27-0.63-0.63-0.63
								c-1.28,0-2.57,0-3.85,0c-0.33,0-0.64,0.29-0.63,0.63C243.63,136.6,243.89,136.88,244.24,136.88L244.24,136.88z"/>
						</g>
					</g>
					<g>
						<g>
							<path class="st3" d="M217.71,143.3c1.43,0,2.85,0,4.28,0c0.34,0,0.63-0.29,0.63-0.63c0-0.34-0.29-0.63-0.63-0.63
								c-1.43,0-2.85,0-4.28,0c-0.34,0-0.63,0.29-0.63,0.63C217.08,143.02,217.37,143.3,217.71,143.3L217.71,143.3z"/>
						</g>
					</g>
					<g>
						<g>
							<path class="st3" d="M218.13,139.88c0.86,0,1.71,0,2.57,0c0.33,0,0.64-0.29,0.63-0.63c-0.02-0.34-0.27-0.63-0.63-0.63
								c-0.86,0-1.71,0-2.57,0c-0.33,0-0.64,0.29-0.63,0.63C217.52,139.59,217.78,139.88,218.13,139.88L218.13,139.88z"/>
						</g>
					</g>
					<g>
						<g>
							<path class="st3" d="M264.36,139.45c1,0,2,0,3,0c0.33,0,0.64-0.29,0.63-0.63c-0.02-0.34-0.27-0.63-0.63-0.63c-1,0-2,0-3,0
								c-0.33,0-0.64,0.29-0.63,0.63C263.75,139.17,264.01,139.45,264.36,139.45L264.36,139.45z"/>
						</g>
					</g>
					<g>
						<g>
							<path class="st3" d="M263.93,136.03c0.57,0,1.14,0,1.71,0c0.33,0,0.64-0.29,0.63-0.63c-0.02-0.34-0.27-0.63-0.63-0.63
								c-0.57,0-1.14,0-1.71,0c-0.33,0-0.64,0.29-0.63,0.63C263.32,135.74,263.58,136.03,263.93,136.03L263.93,136.03z"/>
						</g>
					</g>
					<g>
						<g>
							<path class="st3" d="M276.18,141.14c1.74,0.43,3.5,0.87,5.3,0.88c0.8,0,0.81-1.25,0-1.25c-1.69-0.01-3.34-0.43-4.97-0.83
								C275.73,139.74,275.4,140.95,276.18,141.14L276.18,141.14z"/>
						</g>
					</g>
					<g>
						<g>
							<path class="st3" d="M278.17,138.08c1.15,0.56,2.49,0.51,3.74,0.51c0.33,0,0.64-0.29,0.63-0.63
								c-0.02-0.34-0.27-0.62-0.63-0.63c-0.6,0-1.21,0-1.81-0.05c-0.07-0.01-0.14-0.01-0.2-0.02c-0.03,0-0.23-0.03-0.09-0.01
								c-0.13-0.02-0.25-0.04-0.38-0.07c-0.12-0.03-0.24-0.06-0.36-0.09c-0.06-0.02-0.13-0.04-0.19-0.07
								c-0.07-0.03-0.06-0.02,0.01,0.01c-0.03-0.01-0.06-0.03-0.09-0.04c-0.29-0.14-0.69-0.09-0.86,0.22
								C277.8,137.51,277.86,137.93,278.17,138.08L278.17,138.08z"/>
						</g>
					</g>
				</g>
				<g>
					<g>
						<path class="st3" d="M183.45,111.02c2.21,1.77,4.21,3.79,6.42,5.56c0.26,0.21,0.63,0.26,0.88,0c0.22-0.22,0.26-0.67,0-0.88
							c-2.21-1.77-4.21-3.79-6.42-5.56c-0.26-0.21-0.63-0.26-0.88,0C183.23,110.35,183.19,110.81,183.45,111.02L183.45,111.02z"/>
					</g>
				</g>
				<g>
					<g>
						<path class="st3" d="M188.16,109.74c1.41,1.4,3.05,2.63,4.83,3.52c0.3,0.15,0.68,0.08,0.86-0.22c0.16-0.28,0.08-0.7-0.22-0.86
							c-1.69-0.85-3.24-1.99-4.58-3.33C188.47,108.28,187.59,109.17,188.16,109.74L188.16,109.74z"/>
					</g>
				</g>
				<g>
					<g>
						<path class="st3" d="M183.02,117.01c0.97,0.97,1.98,1.9,3.12,2.67c0.27,0.18,0.7,0.06,0.86-0.22
							c0.17-0.31,0.07-0.66-0.22-0.86c-0.15-0.1-0.3-0.21-0.45-0.31c-0.08-0.05-0.15-0.11-0.22-0.16c-0.04-0.03-0.07-0.05-0.11-0.08
							c0.05,0.04,0.04,0.03,0,0c-0.26-0.21-0.52-0.42-0.77-0.64c-0.46-0.41-0.89-0.84-1.32-1.27c-0.23-0.23-0.66-0.25-0.88,0
							C182.79,116.38,182.78,116.76,183.02,117.01L183.02,117.01z"/>
					</g>
				</g>
				<g>
					<g>
						<path class="st3" d="M203.15,134.78c-1.9-0.01-3.58-0.79-5.25-1.63c-0.3-0.15-0.68-0.08-0.86,0.22
							c-0.16,0.28-0.08,0.7,0.22,0.86c1.86,0.93,3.75,1.78,5.88,1.8C203.96,136.03,203.96,134.78,203.15,134.78L203.15,134.78z"/>
					</g>
				</g>
				<g>
					<g>
						<path class="st3" d="M202.53,128.98c0.01,2.17,0.41,4.35,1.37,6.31c0.15,0.3,0.58,0.39,0.86,0.22
							c0.31-0.18,0.37-0.55,0.22-0.86c-0.86-1.75-1.19-3.74-1.2-5.68C203.78,128.18,202.53,128.18,202.53,128.98L202.53,128.98z"/>
					</g>
				</g>
			</g>
		</g>
	</g>
</g>
</svg>
