<svg width="673" height="648" viewBox="0 0 673 648" fill="none" xmlns="http://www.w3.org/2000/svg">
<g opacity="0.6" clip-path="url(#clip0)">
<path opacity="0.15" d="M15.961 615.615C14.3458 632.315 46.6492 626.749 51.8178 629.368C56.9863 631.988 61.6165 637.554 66.7312 640.611C76.153 646.177 86.3286 642.794 96.1273 640.392C114.971 635.699 133.976 634.716 152.981 633.734C173.117 632.752 193.468 631.769 213.066 640.174C221.195 643.667 229.271 648.797 237.616 647.596C244.723 646.614 251.399 641.047 258.344 637.882C271.535 631.769 285.641 632.752 298.508 639.41C311.322 646.068 325.374 643.448 337.057 631.115C339.103 628.932 341.202 626.421 343.571 626.421C345.079 626.421 346.532 627.294 347.932 628.277C363.653 638.209 380.774 643.121 396.872 635.808C401.825 633.516 406.671 630.132 411.785 628.822C417.169 627.513 422.607 628.604 427.991 629.696C440.266 632.206 452.541 634.716 464.817 637.227C475.315 639.41 486.299 641.375 496.743 637.118C502.02 634.935 506.004 629.259 510.903 626.094C515.802 622.928 521.778 623.802 527.055 623.147C531.039 622.71 535.992 620.636 536.8 613.432C537.93 603.827 530.931 598.916 525.709 598.151C519.302 598.151 514.079 593.349 507.726 591.821C501.427 590.184 495.02 590.838 488.667 592.039C476.069 594.44 463.578 599.898 450.819 598.697C439.297 597.606 428.099 590.948 416.577 590.838C401.341 590.729 386.589 601.972 371.352 602.627C347.663 603.609 327.204 579.05 303.3 579.705C295.816 579.924 288.494 582.98 281.226 585.927C267.766 591.493 254.952 599.134 241.116 595.968C229.271 593.458 217.803 586.363 205.959 584.29C187.869 581.233 169.887 589.965 151.797 593.021C127.085 597.278 102.319 590.948 77.5528 591.821C64.2546 592.257 50.7948 593.24 37.712 598.479C33.0818 600.444 17.0378 604.482 15.961 615.615Z" fill="#6B6D69"/>
</g>
<g filter="url(#filter0_d)">
<path d="M219.009 361.015L264.209 362.215L251.809 605.115L238.909 604.115L219.009 361.015Z" fill="#F8C6B6"/>
<path d="M234.409 575.715L254.609 574.615L255.909 615.915L246.109 617.915L245.209 612.515L212.709 610.715V609.915C212.809 605.115 214.909 600.315 219.009 597.615C221.909 595.715 225.409 594.715 229.109 595.115L237.009 595.915L234.409 575.715Z" fill="#352420"/>
<path d="M314.409 360.115L271.409 361.815L285.509 604.615L298.309 603.615L314.409 360.115Z" fill="#F8C6B6"/>
<path d="M302.309 572.815L282.009 573.415L284.009 614.715L293.909 615.915L294.409 610.515L326.709 606.015L326.609 605.215C326.109 600.415 323.609 595.815 319.409 593.415C316.409 591.715 312.709 591.015 309.109 591.715L301.309 593.215L302.309 572.815Z" fill="#352420"/>
<path d="M229.609 189.115L209.109 430.315L323.709 426.715L313.409 189.115" fill="#C7BBBA"/>
<path d="M267.709 155.515C262.109 155.315 257.709 150.615 257.909 144.915L259.009 113.715L279.409 114.415L278.309 145.615C278.009 151.415 273.309 155.815 267.709 155.515Z" fill="#F8C6B6"/>
<path d="M278.809 130.415L279.309 114.415L258.909 113.815L258.409 130.115C263.009 131.615 270.409 132.815 278.809 130.415Z" fill="#F8C6B6"/>
<path d="M303.009 75.4152C303.209 98.5152 282.709 120.715 269.309 120.215C253.809 119.615 235.509 102.115 235.209 78.9152C235.009 55.8152 245.709 36.7152 268.409 36.4152C291.209 36.2152 302.809 52.2152 303.009 75.4152Z" fill="#F8C6B6"/>
<path d="M315.409 77.3152C315.309 81.7152 312.309 85.2152 308.609 85.1152C304.909 85.0152 302.009 81.4152 302.109 77.0152C302.209 72.6152 305.209 69.1152 308.909 69.2152C312.609 69.3152 315.509 72.9152 315.409 77.3152Z" fill="#F8C6B6"/>
<path d="M223.709 77.1151C223.609 81.5151 226.509 85.1151 230.209 85.2151C233.909 85.3151 236.909 81.8151 237.009 77.4151C237.109 73.0151 234.209 69.4151 230.509 69.3151C226.809 69.2151 223.809 72.7151 223.709 77.1151Z" fill="#F8C6B6"/>
<path d="M269.009 112.915C293.586 112.915 313.509 93.5738 313.509 69.7151C313.509 45.8564 293.586 26.5151 269.009 26.5151C244.432 26.5151 224.509 45.8564 224.509 69.7151C224.509 93.5738 244.432 112.915 269.009 112.915Z" fill="#F4A277"/>
</g>
<g filter="url(#filter1_d)">
<g opacity="0.55">
<path opacity="0.55" d="M77.0089 204.115L71.0089 321.715H73.9089L77.0089 204.115Z" fill="#725E5E"/>
<path opacity="0.55" d="M195.309 202.515L201.909 320.515L198.409 320.615L195.309 202.515Z" fill="#725E5E"/>
</g>
</g>
<g filter="url(#filter2_d)">
<path d="M340.909 205.315L365.009 214.215C365.009 201.615 365.209 188.915 366.309 176.315L347.509 167.615C341.609 164.515 321.209 155.915 307.009 152.815L312.809 137.215C312.809 137.215 272.609 141.315 232.509 135.215L238.309 152.915L201.709 170.515C200.309 171.215 189.209 289.015 212.409 303.215L211.409 328.315L338.709 327.115L334.509 209.015L336.709 203.615C338.109 204.215 339.509 204.815 340.909 205.315Z" fill="#E84449"/>
</g>
<g filter="url(#filter3_d)">
<path d="M396.509 361.615L441.609 362.915L429.209 605.815L416.409 604.815L396.509 361.615Z" fill="#F7C8BA"/>
<path d="M491.909 360.815L448.809 362.515L462.909 605.315L475.709 604.315L491.909 360.815Z" fill="#F7C8BA"/>
<path d="M478.709 593.915L486.509 592.415C490.109 591.715 493.709 592.415 496.809 594.115C501.009 596.515 503.509 601.115 504.009 605.915L504.109 606.715L471.809 611.215L471.309 616.615L461.409 615.415L461.309 596.515L478.709 593.915Z" fill="white"/>
<path d="M433.309 596.615H414.609L406.709 595.815C403.009 595.415 399.509 596.415 396.609 598.315C392.609 601.015 390.509 605.815 390.309 610.615V611.415L422.809 613.215L423.709 618.615L433.509 616.615L433.309 596.615Z" fill="white"/>
<path d="M394.709 575.215H440.609L441.609 362.915L448.809 362.515L460.509 575.515L500.309 571.515L492.409 291.515L389.809 290.515L394.709 575.215Z" fill="#002A39"/>
<path d="M519.509 152.815C536.709 149.015 557.509 200.015 565.709 212.715C565.709 212.715 623.709 201.015 644.309 193.115L648.909 201.515C648.909 201.515 577.609 235.515 563.309 231.415C524.609 220.415 489.609 159.315 519.509 152.815Z" fill="#F8C6B6"/>
<path d="M650.409 182.515L649.409 182.915C645.909 184.315 641.309 192.715 641.909 193.815L646.609 201.515C646.909 202.815 654.409 205.115 657.909 203.715L660.909 202.515C661.509 202.315 661.809 201.715 661.809 201.115L661.209 191.415C661.209 191.115 661.109 190.915 661.009 190.715L656.709 184.115C656.509 183.815 656.209 183.615 655.809 183.515L651.309 182.615C650.909 182.315 650.609 182.415 650.409 182.515Z" fill="#F8C6B6"/>
<path d="M653.109 188.115C652.609 186.915 655.109 185.015 656.309 184.515L661.009 182.815C661.509 182.715 664.409 181.915 665.609 183.215C665.809 183.615 664.209 186.015 662.809 186.615L658.109 188.715C656.809 189.215 653.509 189.215 653.109 188.115Z" fill="#F8C6B6"/>
<path d="M653.709 192.615C653.209 191.415 656.109 189.515 657.409 189.015L662.109 187.115C663.109 186.815 666.109 186.515 666.809 187.615C667.309 189.015 664.509 191.215 663.709 191.615L659.109 193.215C657.909 193.815 654.209 193.815 653.709 192.615Z" fill="#F8C6B6"/>
<path d="M654.809 197.015C654.309 195.815 657.409 194.015 658.209 193.615L662.809 191.915C664.109 191.415 667.509 191.615 667.709 192.215C668.209 193.415 665.409 195.515 664.409 196.315L660.009 197.915C659.209 198.115 655.309 198.115 654.809 197.015Z" fill="#F8C6B6"/>
<path d="M656.609 201.415C656.109 200.215 658.709 198.415 660.009 197.915L664.009 196.315C665.309 195.815 668.209 196.015 668.409 196.715C668.709 197.215 667.109 199.415 665.909 199.915L661.809 201.615C660.509 202.015 657.109 202.515 656.609 201.415Z" fill="#F8C6B6"/>
<path d="M657.409 181.515L661.109 183.515C662.109 184.115 662.409 185.315 661.909 186.315C661.409 187.315 660.209 187.815 659.209 187.415L655.909 186.115L651.709 187.215L650.209 182.715L654.209 180.915C654.909 180.515 656.709 181.115 657.409 181.515Z" fill="#F8C6B6"/>
<path d="M388.009 173.215C370.809 173.015 361.009 226.015 355.709 239.815C355.709 239.815 306.509 240.115 282.209 237.515C281.409 236.315 278.009 231.215 275.509 228.715C274.709 227.915 274.109 227.015 273.709 226.115C273.109 224.915 272.509 223.315 272.409 222.315C272.309 221.115 270.709 220.615 270.209 221.615C269.609 222.615 269.909 226.015 271.909 229.415C273.909 232.815 268.009 230.615 265.909 229.915C263.809 229.115 257.009 227.115 256.209 227.515C255.109 228.215 255.209 229.715 257.409 230.415C259.609 231.115 266.409 233.615 265.809 234.715C265.409 235.515 254.509 231.715 254.509 231.715C254.509 231.715 252.309 230.515 251.709 231.715C250.709 234.015 262.609 237.415 263.709 237.815C264.509 238.015 264.409 239.215 262.909 238.815C262.009 238.615 251.809 234.515 251.409 237.015C251.109 238.715 261.209 239.915 262.709 241.915C264.309 243.915 254.809 240.215 254.009 241.915C253.709 242.515 253.609 243.115 259.409 244.415C265.309 245.715 279.609 247.215 279.609 247.215C279.609 247.215 281.109 247.515 283.709 248.115C304.509 252.815 351.809 262.615 361.809 257.315C396.709 239.015 417.909 173.515 388.009 173.215Z" fill="#F8C6B6"/>
<path d="M526.309 151.615C504.209 142.815 483.509 142.115 469.409 142.915L414.409 140.415L380.409 157.415C378.309 158.415 351.309 234.015 351.309 234.015C323.209 242.915 296.709 232.415 296.709 232.415L292.709 257.315L323.609 265.515C368.809 277.415 381.209 250.615 381.209 250.615L381.309 250.315L378.509 320.115L505.809 318.915L501.909 210.615C515.009 219.115 528.209 227.615 541.309 236.015C552.809 238.115 575.709 240.715 601.609 231.515C615.709 226.515 626.409 219.515 633.709 213.815C628.709 207.115 623.709 200.415 618.809 193.715C615.309 195.715 612.009 196.715 609.209 197.215C584.009 201.615 568.309 168.315 526.309 151.615Z" fill="#ED928B"/>
</g>
<g filter="url(#filter4_d)">
<path d="M475.209 79.5151C475.409 102.615 454.909 124.815 441.509 124.315C426.009 123.715 407.709 106.215 407.409 83.0151C407.209 59.9151 417.909 40.8151 440.609 40.6151C463.309 40.4151 474.909 56.4151 475.209 79.5151Z" fill="#FFD4C6"/>
<path d="M489.209 81.5152C489.109 85.9152 486.109 89.4152 482.409 89.3152C478.709 89.2152 475.809 85.6152 475.909 81.2152C476.009 76.8152 479.009 73.3152 482.709 73.4152C486.409 73.5152 489.309 77.1152 489.209 81.5152Z" fill="#FFD4C6"/>
<path d="M394.109 81.315C394.009 85.715 396.909 89.315 400.609 89.415C404.309 89.515 407.309 86.015 407.409 81.615C407.509 77.215 404.609 73.615 400.909 73.515C397.309 73.415 394.209 76.915 394.109 81.315Z" fill="#FFD4C6"/>
<path d="M399.609 127.115L407.309 150.415H471.909L479.909 129.015C479.909 129.015 439.709 133.115 399.609 127.115Z" fill="#010000"/>
</g>
<g filter="url(#filter5_d)">
<path d="M437.809 26.6151C437.809 26.6151 448.409 17.3151 448.409 0.815064C448.409 0.815064 435.409 0.515063 431.909 13.2151C428.509 25.9151 430.009 30.3151 430.009 30.3151L437.809 26.6151Z" fill="#F20029"/>
<path d="M417.909 8.61517C399.909 4.61517 430.009 30.3152 430.009 30.3152L437.809 26.6152L417.909 8.61517Z" fill="#F20029"/>
<path d="M504.109 100.015C497.809 93.5151 490.509 88.0151 485.409 80.5151C480.009 72.6151 477.609 63.1151 472.909 54.8151C472.709 54.4151 472.409 54.0151 472.209 53.6151C465.209 36.9151 448.809 25.2151 429.709 25.2151C407.709 25.2151 387.009 44.8151 386.109 66.0151C385.209 78.1151 381.709 160.415 441.509 176.515C451.109 179.115 457.909 178.215 462.809 175.115C471.709 182.415 483.109 186.315 494.309 184.015C511.209 180.515 523.109 163.415 523.909 146.215C524.709 129.015 516.109 112.415 504.109 100.015Z" fill="#243357"/>
</g>
<g filter="url(#filter6_d)">
<path d="M445.409 135.015C445.909 135.915 446.309 137.515 446.609 138.815C446.809 139.915 446.809 140.915 446.709 142.015C446.109 146.115 446.609 153.415 446.609 153.415C445.609 154.315 444.609 155.315 443.409 156.415C445.909 158.715 448.409 161.015 451.009 163.215C453.109 160.815 454.409 159.415 454.409 159.415C454.409 159.415 465.009 149.715 469.009 145.115C472.909 140.615 472.509 140.315 471.909 139.915C470.309 138.915 464.809 147.515 464.909 145.015C465.009 142.515 472.309 135.515 471.109 134.315C469.309 132.515 463.509 141.915 462.909 142.615C461.909 143.915 461.109 142.915 461.609 142.315C462.309 141.415 469.809 131.515 467.609 130.315C466.409 129.615 465.409 131.915 465.409 131.915C465.409 131.915 458.809 141.415 458.009 141.015C456.909 140.515 460.909 134.415 462.209 132.515C463.509 130.615 462.709 129.415 461.409 129.515C460.509 129.615 456.309 135.215 455.009 137.115C453.709 139.015 450.309 144.315 449.909 140.315C449.509 136.315 447.609 133.515 446.609 133.015C445.709 132.715 444.809 133.915 445.409 135.015Z" fill="#F8C6B6"/>
<path d="M323.309 164.415C337.009 154.015 376.409 190.815 388.909 198.715C388.909 198.715 435.709 164.515 450.709 149.115L458.209 154.715C458.209 154.715 408.709 214.115 394.309 216.315C355.509 222.415 299.509 182.415 323.309 164.415Z" fill="#F8C6B6"/>
<path d="M432.009 157.615C432.009 157.615 417.009 181.815 389.009 191.415C381.009 185.615 373.009 179.715 365.009 173.915C358.809 170.215 324.309 150.115 315.709 159.315C309.409 166.115 320.209 185.315 321.109 187.015C333.209 208.215 355.509 214.915 362.709 216.715L374.809 222.515C374.809 222.515 400.809 236.715 430.009 200.215L450.009 175.315L432.009 157.615Z" fill="#E84449"/>
</g>
<g filter="url(#filter7_d)">
<path d="M221.109 151.715C221.209 153.515 221.309 155.415 221.309 157.515C221.309 183.315 253.309 189.015 275.909 187.415C290.409 186.315 303.009 181.115 307.709 167.615C311.809 155.715 310.709 143.915 307.009 132.215C304.409 123.915 300.709 115.215 305.809 107.115C310.209 100.115 312.809 94.1152 311.109 85.7152C309.909 80.1152 307.009 75.0152 307.009 69.3152C307.009 62.4152 307.809 56.2152 305.509 49.4152C303.109 42.4152 300.109 35.3152 294.609 29.9152C285.409 21.1152 272.909 22.0152 261.009 23.2152C248.909 24.4152 238.809 33.0152 233.309 42.7152C228.909 50.4152 226.309 59.2152 226.209 67.8152C226.109 75.2152 226.809 81.8152 224.509 88.9152C221.809 96.9152 217.809 104.315 216.009 112.615C214.309 120.315 214.309 127.315 217.309 134.715C219.509 140.615 220.709 145.815 221.109 151.715Z" fill="#F4A277"/>
</g>
<g filter="url(#filter8_d)">
<path d="M90.309 363.315L135.509 364.515L123.109 607.415L110.309 606.415L90.309 363.315Z" fill="#D3906E"/>
<path d="M185.709 362.415L142.709 364.115L156.809 606.915L169.609 605.915L185.709 362.415Z" fill="#D3906E"/>
<path d="M173.809 599.615L181.809 599.815C194.909 600.715 197.909 609.515 197.409 614.315L168.209 614.115L166.709 617.015H157.309L156.309 598.515L173.809 599.615Z" fill="#352420"/>
<path d="M106.809 599.415L98.809 599.615C85.709 600.515 82.709 609.315 83.209 614.115L112.409 613.915L113.909 616.815H123.309L124.309 598.315L106.809 599.415Z" fill="#352420"/>
<path d="M88.609 578.415H134.409L135.509 364.515L142.709 364.115L149.509 578.815L194.209 576.415L186.209 293.215L83.609 292.215L88.609 578.415Z" fill="#000C38"/>
<path d="M133.609 161.415C128.009 161.215 123.609 156.515 123.809 150.815L124.909 119.615L145.309 120.315L144.209 151.515C144.009 157.215 139.309 161.615 133.609 161.415Z" fill="#D3906E"/>
<path d="M144.809 136.215L145.309 120.215L124.909 119.615L124.409 135.915C129.009 137.415 136.309 138.615 144.809 136.215Z" fill="#C48469"/>
<path d="M169.009 81.215C169.209 104.315 148.709 126.515 135.309 126.015C119.809 125.415 101.509 107.915 101.209 84.715C101.009 61.615 111.709 42.515 134.409 42.215C157.209 42.015 168.809 58.015 169.009 81.215Z" fill="#D3906E"/>
<path d="M183.109 83.115C183.009 87.515 180.009 91.015 176.309 90.915C172.609 90.815 169.709 87.215 169.809 82.815C169.909 78.415 172.909 74.915 176.609 75.015C180.209 75.115 183.109 78.715 183.109 83.115Z" fill="#D3906E"/>
<path d="M88.0089 82.9149C87.9089 87.3149 90.8089 90.9149 94.5089 91.0149C98.2089 91.1149 101.209 87.6149 101.309 83.2149C101.409 78.8149 98.5089 75.2149 94.8089 75.1149C91.2089 75.0149 88.1089 78.5149 88.0089 82.9149Z" fill="#D3906E"/>
<path d="M32.1089 69.8151C32.1089 69.8151 37.9089 65.5151 40.5089 62.6151C41.2089 61.8151 42.0089 61.2151 43.0089 60.7151C44.1089 60.1151 45.6089 59.3151 46.6089 59.2151C47.8089 59.0151 48.1089 57.5151 47.2089 57.0151C46.2089 56.5151 42.9089 56.9151 39.7089 59.1151C36.5089 61.3151 38.3089 55.4151 38.9089 53.3151C39.5089 51.2151 41.1089 44.4151 40.6089 43.7151C39.9089 42.7151 38.4089 42.9151 37.8089 45.0151C37.2089 47.2151 35.2089 54.0151 34.2089 53.5151C33.4089 53.1151 36.4089 42.3151 36.4089 42.3151C36.4089 42.3151 37.5089 40.1151 36.2089 39.6151C33.9089 38.7151 31.3089 50.5151 31.0089 51.7151C30.8089 52.5151 29.7089 52.5151 30.0089 50.9151C30.2089 50.0151 33.5089 39.8151 31.0089 39.6151C29.4089 39.4151 28.7089 49.3151 26.9089 51.0151C25.1089 52.7151 28.1089 43.2151 26.3089 42.6151C25.7089 42.4151 25.1089 42.3151 24.2089 48.0151C23.3089 53.8151 22.7089 67.9151 22.7089 67.9151L32.1089 69.8151Z" fill="#D3906E"/>
<path d="M110.509 181.815C109.009 163.515 52.0089 158.215 36.8089 153.915C36.8089 153.915 30.4089 92.6151 32.1089 69.8151L22.7089 67.7151C22.7089 67.7151 10.5089 149.115 18.9089 162.115C41.6089 197.315 113.109 213.615 110.509 181.815Z" fill="#D3906E"/>
<path d="M332.809 145.715C331.309 144.615 325.209 152.915 325.509 150.315C325.809 147.815 333.509 141.315 332.409 140.015C330.709 138.115 324.309 147.015 323.709 147.715C322.609 148.915 321.909 147.915 322.509 147.315C323.309 146.415 331.409 137.115 329.309 135.715C328.109 134.915 327.009 137.215 327.009 137.215C327.009 137.215 319.809 146.215 319.109 145.815C318.009 145.215 322.509 139.415 323.909 137.615C325.309 135.815 324.609 134.515 323.309 134.515C322.409 134.515 317.809 139.915 316.409 141.715C315.009 143.515 311.309 148.515 311.109 144.615C310.909 140.615 309.309 137.615 308.309 137.115C307.309 136.615 306.209 137.815 306.809 138.915C307.309 139.815 307.609 141.515 307.709 142.815C307.809 143.915 307.809 145.015 307.609 146.015C306.909 149.515 306.809 155.515 306.709 157.015C287.609 172.415 246.109 198.715 246.109 198.715C234.209 190.015 197.409 150.615 183.009 160.115C158.009 176.515 211.209 220.115 250.409 216.715C261.609 215.715 296.109 181.915 311.109 166.715C313.009 164.815 314.109 163.815 314.109 163.815C314.109 163.815 325.309 154.815 329.609 150.515C333.709 146.515 333.309 146.115 332.809 145.715Z" fill="#D3906E"/>
<path d="M291.809 160.815C291.809 160.815 275.209 183.915 246.709 191.615L210.309 166.715L210.809 165.415C210.309 163.015 208.509 161.015 206.209 160.115L167.909 146.315L173.709 130.715C173.709 130.715 133.409 134.815 93.4089 128.715L99.2089 146.415L72.7089 159.115L60.5089 156.815C50.0089 154.815 42.0089 146.315 40.7089 135.715C38.0089 114.215 39.7089 81.415 39.7089 81.415L19.6089 85.215L4.90894 87.915L6.60894 99.915C6.60894 99.915 7.60894 99.615 9.30894 99.215L9.70894 154.815C11.1089 173.915 23.2089 183.615 33.8089 187.215L75.6089 201.215L77.1089 204.115L71.2089 321.715H72.4089H72.7089H74.0089L198.509 320.615H198.909H199.609L202.009 320.515L195.409 202.515L195.609 202.015C196.309 202.415 197.009 202.815 197.809 203.215L230.509 221.715C230.509 221.715 255.509 237.615 287.109 203.115L308.709 179.515L291.809 160.815Z" fill="#CE806E"/>
<path d="M202.009 164.215C199.409 161.615 196.409 160.515 194.209 156.615C187.709 145.415 192.109 119.515 185.009 109.915C183.009 107.115 180.309 106.415 178.309 103.715C174.109 98.1151 174.509 57.2151 163.209 40.2151C156.309 24.7151 141.209 26.7151 123.709 29.3151C110.309 31.3151 103.009 54.3151 99.1089 73.8151C94.5089 82.8151 86.6089 91.1151 83.7089 101.515C81.3089 110.015 82.3089 121.015 79.9089 129.515C77.5089 138.015 72.4089 141.615 68.8089 148.015C68.7089 148.115 68.7089 148.215 68.6089 148.315C58.9089 165.715 67.2089 207.115 79.1089 210.015C122.509 220.715 110.509 224.015 192.909 211.315C202.009 211.115 210.709 173.115 202.309 164.515C202.209 164.415 202.109 164.315 202.009 164.215Z" fill="#652B29"/>
</g>
<defs>
<filter id="filter0_d" x="205.109" y="26.5151" width="125.6" height="599.4" filterUnits="userSpaceOnUse" color-interpolation-filters="sRGB">
<feFlood flood-opacity="0" result="BackgroundImageFix"/>
<feColorMatrix in="SourceAlpha" type="matrix" values="0 0 0 0 0 0 0 0 0 0 0 0 0 0 0 0 0 0 127 0"/>
<feOffset dy="4"/>
<feGaussianBlur stdDeviation="2"/>
<feColorMatrix type="matrix" values="0 0 0 0 0 0 0 0 0 0 0 0 0 0 0 0 0 0 0.25 0"/>
<feBlend mode="normal" in2="BackgroundImageFix" result="effect1_dropShadow"/>
<feBlend mode="normal" in="SourceGraphic" in2="effect1_dropShadow" result="shape"/>
</filter>
<filter id="filter1_d" x="67.0089" y="202.515" width="138.9" height="127.2" filterUnits="userSpaceOnUse" color-interpolation-filters="sRGB">
<feFlood flood-opacity="0" result="BackgroundImageFix"/>
<feColorMatrix in="SourceAlpha" type="matrix" values="0 0 0 0 0 0 0 0 0 0 0 0 0 0 0 0 0 0 127 0"/>
<feOffset dy="4"/>
<feGaussianBlur stdDeviation="2"/>
<feColorMatrix type="matrix" values="0 0 0 0 0 0 0 0 0 0 0 0 0 0 0 0 0 0 0.25 0"/>
<feBlend mode="normal" in2="BackgroundImageFix" result="effect1_dropShadow"/>
<feBlend mode="normal" in="SourceGraphic" in2="effect1_dropShadow" result="shape"/>
</filter>
<filter id="filter2_d" x="193.833" y="135.215" width="176.476" height="201.1" filterUnits="userSpaceOnUse" color-interpolation-filters="sRGB">
<feFlood flood-opacity="0" result="BackgroundImageFix"/>
<feColorMatrix in="SourceAlpha" type="matrix" values="0 0 0 0 0 0 0 0 0 0 0 0 0 0 0 0 0 0 127 0"/>
<feOffset dy="4"/>
<feGaussianBlur stdDeviation="2"/>
<feColorMatrix type="matrix" values="0 0 0 0 0 0 0 0 0 0 0 0 0 0 0 0 0 0 0.25 0"/>
<feBlend mode="normal" in2="BackgroundImageFix" result="effect1_dropShadow"/>
<feBlend mode="normal" in="SourceGraphic" in2="effect1_dropShadow" result="shape"/>
</filter>
<filter id="filter3_d" x="247.402" y="140.415" width="425.043" height="486.2" filterUnits="userSpaceOnUse" color-interpolation-filters="sRGB">
<feFlood flood-opacity="0" result="BackgroundImageFix"/>
<feColorMatrix in="SourceAlpha" type="matrix" values="0 0 0 0 0 0 0 0 0 0 0 0 0 0 0 0 0 0 127 0"/>
<feOffset dy="4"/>
<feGaussianBlur stdDeviation="2"/>
<feColorMatrix type="matrix" values="0 0 0 0 0 0 0 0 0 0 0 0 0 0 0 0 0 0 0.25 0"/>
<feBlend mode="normal" in2="BackgroundImageFix" result="effect1_dropShadow"/>
<feBlend mode="normal" in="SourceGraphic" in2="effect1_dropShadow" result="shape"/>
</filter>
<filter id="filter4_d" x="390.106" y="40.6133" width="103.105" height="117.802" filterUnits="userSpaceOnUse" color-interpolation-filters="sRGB">
<feFlood flood-opacity="0" result="BackgroundImageFix"/>
<feColorMatrix in="SourceAlpha" type="matrix" values="0 0 0 0 0 0 0 0 0 0 0 0 0 0 0 0 0 0 127 0"/>
<feOffset dy="4"/>
<feGaussianBlur stdDeviation="2"/>
<feColorMatrix type="matrix" values="0 0 0 0 0 0 0 0 0 0 0 0 0 0 0 0 0 0 0.25 0"/>
<feBlend mode="normal" in2="BackgroundImageFix" result="effect1_dropShadow"/>
<feBlend mode="normal" in="SourceGraphic" in2="effect1_dropShadow" result="shape"/>
</filter>
<filter id="filter5_d" x="381.747" y="0.814453" width="146.213" height="191.86" filterUnits="userSpaceOnUse" color-interpolation-filters="sRGB">
<feFlood flood-opacity="0" result="BackgroundImageFix"/>
<feColorMatrix in="SourceAlpha" type="matrix" values="0 0 0 0 0 0 0 0 0 0 0 0 0 0 0 0 0 0 127 0"/>
<feOffset dy="4"/>
<feGaussianBlur stdDeviation="2"/>
<feColorMatrix type="matrix" values="0 0 0 0 0 0 0 0 0 0 0 0 0 0 0 0 0 0 0.25 0"/>
<feBlend mode="normal" in2="BackgroundImageFix" result="effect1_dropShadow"/>
<feBlend mode="normal" in="SourceGraphic" in2="effect1_dropShadow" result="shape"/>
</filter>
<filter id="filter6_d" x="309.746" y="129.509" width="166.545" height="103.725" filterUnits="userSpaceOnUse" color-interpolation-filters="sRGB">
<feFlood flood-opacity="0" result="BackgroundImageFix"/>
<feColorMatrix in="SourceAlpha" type="matrix" values="0 0 0 0 0 0 0 0 0 0 0 0 0 0 0 0 0 0 127 0"/>
<feOffset dy="4"/>
<feGaussianBlur stdDeviation="2"/>
<feColorMatrix type="matrix" values="0 0 0 0 0 0 0 0 0 0 0 0 0 0 0 0 0 0 0.25 0"/>
<feBlend mode="normal" in2="BackgroundImageFix" result="effect1_dropShadow"/>
<feBlend mode="normal" in="SourceGraphic" in2="effect1_dropShadow" result="shape"/>
</filter>
<filter id="filter7_d" x="210.862" y="22.4629" width="104.772" height="173.201" filterUnits="userSpaceOnUse" color-interpolation-filters="sRGB">
<feFlood flood-opacity="0" result="BackgroundImageFix"/>
<feColorMatrix in="SourceAlpha" type="matrix" values="0 0 0 0 0 0 0 0 0 0 0 0 0 0 0 0 0 0 127 0"/>
<feOffset dy="4"/>
<feGaussianBlur stdDeviation="2"/>
<feColorMatrix type="matrix" values="0 0 0 0 0 0 0 0 0 0 0 0 0 0 0 0 0 0 0.25 0"/>
<feBlend mode="normal" in2="BackgroundImageFix" result="effect1_dropShadow"/>
<feBlend mode="normal" in="SourceGraphic" in2="effect1_dropShadow" result="shape"/>
</filter>
<filter id="filter8_d" x="0.908936" y="27.5288" width="336.205" height="597.486" filterUnits="userSpaceOnUse" color-interpolation-filters="sRGB">
<feFlood flood-opacity="0" result="BackgroundImageFix"/>
<feColorMatrix in="SourceAlpha" type="matrix" values="0 0 0 0 0 0 0 0 0 0 0 0 0 0 0 0 0 0 127 0"/>
<feOffset dy="4"/>
<feGaussianBlur stdDeviation="2"/>
<feColorMatrix type="matrix" values="0 0 0 0 0 0 0 0 0 0 0 0 0 0 0 0 0 0 0.25 0"/>
<feBlend mode="normal" in2="BackgroundImageFix" result="effect1_dropShadow"/>
<feBlend mode="normal" in="SourceGraphic" in2="effect1_dropShadow" result="shape"/>
</filter>
<clipPath id="clip0">
<rect width="521" height="68" fill="white" transform="translate(15.9089 579.814)"/>
</clipPath>
</defs>
</svg>
