<svg xmlns="http://www.w3.org/2000/svg" viewBox="0 0 1730.39 915.32"><defs><style>.cls-1{isolation:isolate;}.cls-2{fill:#83b585;}.cls-3{fill:#466243;}.cls-4{fill:#b2d1cb;}.cls-5{fill:#f08276;}.cls-6{fill:#cda3c4;}.cls-7{fill:#79486e;}.cls-8{fill:#182038;}.cls-9{fill:#eca291;}.cls-10{fill:#f5a796;}.cls-11{fill:#fde9e4;}.cls-12,.cls-19{fill:#e4e0dd;}.cls-12,.cls-16,.cls-25,.cls-30{mix-blend-mode:multiply;}.cls-13{fill:#0c0f20;}.cls-14{fill:#202d4c;}.cls-15{fill:#f49c86;}.cls-17{fill:#c9c3bd;}.cls-18{fill:#f5f5f5;}.cls-20{fill:#243357;}.cls-21{fill:#652b29;}.cls-22{fill:#ce7f6e;}.cls-23{fill:#d58371;}.cls-24{fill:#e7e2e9;}.cls-25{fill:#f8c2be;}.cls-26{fill:#310f08;}.cls-27{fill:#4f201d;}.cls-28{fill:#d37462;}.cls-29{fill:#f5a378;}.cls-30{fill:#c5c2c0;}.cls-31{fill:#f9c7b7;}.cls-32{fill:#f2c2b2;}.cls-33{fill:#ed938c;}.cls-34{fill:#d5885f;}.cls-35{fill:#f8baa4;}.cls-36{fill:none;stroke:#72402c;stroke-linecap:round;stroke-linejoin:round;stroke-width:1.86px;}.cls-37{fill:#e9454a;}</style></defs><title>Recurso 2</title><g class="cls-1"><g id="Capa_2" data-name="Capa 2"><g id="Capa_1-2" data-name="Capa 1"><path class="cls-2" d="M1502.2,640.37c-2.83-2-5.7-5.34-8.53-7.32,11.11,1.71,22.35,7.54,33.49,9.94-9.36-11.43-20.75-21.41-27.4-34.32-5.86-10.16-7.64-21.85-13.51-32,5.59,1.88,10.55,5.86,15.51,9.15-7.57-19.78-25.45-37.82-44.4-46.86a88.35,88.35,0,0,0,13.82.22c-36-25-65.1-8.24-103.58-5.52,6,18,1.1,40.15,14.76,55.47-1.62-6.85-1.87-14.44,1.38-20.77.67,20,24.85,61.34,48.33,61.25a53.89,53.89,0,0,1-11.6-16.19C1443.27,634.05,1470.77,650.4,1502.2,640.37Z" transform="translate(0 -0.21)"/><path class="cls-3" d="M1337.74,535.49c25.79-6,50.67,8.45,70.21,23.88,19.34,15.27,36,34,51.07,53.4,2.37,3,6.57-1.22,4.23-4.22-16.18-20.79-34.12-40.33-55-56.48-20.25-15.64-45.93-28.44-72.08-22.33-3.74.87-2.15,6.63,1.59,5.75Z" transform="translate(0 -0.21)"/><path class="cls-2" d="M1435.31,460.25s-20.39-25.41-30.76-37.71c-9.08-10.76-13.78-22.57-17-35.68,4,3.19,6.72,8.27,11,12.05-12.14-18.43-3.11-54.19,6.13-72.25,1.41,3.55,2.11,8.75,3.75,12.88,2.74-12,7.25-24.79,11.63-36.11,7.41,20.32,24.74,34.63,29.66,57.31a45.47,45.47,0,0,0,.62-13.93c9.17,23,6.91,39.68,0,63.64a40.22,40.22,0,0,0,6.38-8c1.77,9.57-2.16,22.07-6.3,30.56C1446.9,441.26,1435.31,460.25,1435.31,460.25Z" transform="translate(0 -0.21)"/><path class="cls-3" d="M1435,492.34c3.85-7.11,3.61-15.28,3.34-23.15-.38-11,.18-22.08-.17-33.13-.8-25-5.37-50.22-9-75-.56-3.79-6.32-2.17-5.76,1.59,3.35,22.53,6.64,45.08,8.52,67.79.91,10.94.32,21.95.32,32.92,0,8.49,1.87,18.12-2.37,25.93-1.84,3.38,3.32,6.4,5.17,3Z" transform="translate(0 -0.21)"/><path class="cls-2" d="M1559.13,584.48a17.28,17.28,0,0,1-2.12-4.81c6.86,6.35,14.08,13.8,20.94,20.14-2.9-24.61-5.46-71.23-30.92-84.46,2.55.4,6.22.45,9.51,1.24-22.11-16.12-55.07-18.5-81-21.84,10,18.12,26.34,54.17,46,62.56-.32-2.95.06-9-1-12.32C1528.38,558.32,1543.8,580.2,1559.13,584.48Z" transform="translate(0 -0.21)"/><path class="cls-3" d="M1442.9,489.45c42.06,8.79,82.32,24.58,103.53,64.47,1.81,3.4,7,.39,5.15-3-21.91-41.21-63.55-58.11-107.09-67.22-3.75-.78-5.35,5-1.59,5.77Z" transform="translate(0 -0.21)"/><path class="cls-2" d="M1707.5,389.83c-4.23,2.61-8.81,3.32-13.77,3.63,6.62-10.2,15.5-18.09,21.36-29.84,4.34-9.48,6.44-24.31,15.3-30.68-14.11-.57-42.3-2.47-53.47,6.15.81-4.56,3.54-8,5.5-12.13-20.7,8.11-46.53,28.74-52.54,50.4.44-5,1.28-10.28,2.11-15.61-7.8,13.62-15.2,25.34-16.56,41.72-1,15.24-2.29,34.45-16.17,45.71C1616,454,1661,444.13,1670,427.08c-2.67,1.11-4.19.33-7.23-.48,9.6-4.83,18.81-9.27,27.29-16C1697.78,404.58,1701.29,397.37,1707.5,389.83Z" transform="translate(0 -0.21)"/><path class="cls-3" d="M1579.19,456.76c25.13-4.05,48.28-13.43,63.86-34.31,18.06-24.21,28.24-53.65,56.94-67.91,3.44-1.72.43-6.87-3-5.16-25,12.41-37.87,36.56-52,59.3-7,11.19-14.54,20.9-25.68,28.17-12.42,8.1-27.21,11.82-41.7,14.16-3.78.6-2.17,6.35,1.59,5.75Z" transform="translate(0 -0.21)"/><path class="cls-2" d="M1560,415.43a61.65,61.65,0,0,1-11.75,5.08c23-26.46,22.66-55.57,25.31-88-4.73,3.68-10,7-15.26,10.34,1.41-2.11.89-4.74,2.29-6.85-17.9,8.58-48.43,33.81-52,55-.87-4.39-1.74-8.77-3.32-12.11-21.26,53.48-.42,78-.42,78,12.12-3.32,27-8.57,36.68-17.33-3.16.18-6-.18-8.6.34C1543.69,434.18,1555.44,426.82,1560,415.43Z" transform="translate(0 -0.21)"/><path class="cls-3" d="M1492.8,474.66c13.62-11.12,22.87-27.75,32-42.48q17.82-28.6,32.71-58.9c1.69-3.45-3.46-6.47-5.16-3-9.51,19.33-20,38.15-31.24,56.52-9.23,15.12-18.68,32.33-32.56,43.66-3,2.43,1.27,6.63,4.22,4.22Z" transform="translate(0 -0.21)"/><path class="cls-2" d="M1294.54,580.59a61.84,61.84,0,0,0-9.9,8.12c34.07-8.31,59.78,5.32,89.84,17.83-5.45,2.52-10.82,5.68-16.18,8.82,2.51-.28,4.6,1.39,7.12,1.11-15.83,12-52.25,27.54-72.72,21,3.51,2.78,7,5.56,9.24,8.49-57.26-5.6-69.55-35.39-69.55-35.39,8.5-9.23,20-20.08,32.21-24.65-1.6,2.73-2.57,5.39-4.25,7.49C1270.39,586.5,1282.32,579.43,1294.54,580.59Z" transform="translate(0 -0.21)"/><path class="cls-3" d="M1189.44,634.83c17.65-10.23,37.45-22.64,58.45-23.73,27.74-1.43,55.32-3.56,83.15-3,3.85.08,3.84-5.9,0-6-28.26-.53-56.4,1.37-84.59,3.11-21.49,1.33-42,14-60,24.46-3.32,1.93-.32,7.1,3,5.16Z" transform="translate(0 -0.21)"/><path class="cls-2" d="M1643.24,554.17c.55-3.21-2.4-7.48-2.92-9.93,13.36,7.45,27,10.71,42.18,12.82a58.71,58.71,0,0,1-12.67-11.59,5.17,5.17,0,0,0,2.68.93,62,62,0,0,1-6.69-16.24c-1.51-5-.5-10.93-2.55-15.53,2.22.85,5.11,3.23,7.25,4.53-2.1-12.63-10.93-30.16-20.84-38.45,3.06-1.37,6.51-2.2,9.56-.73-16.72-9.91-29.93-15.47-50.52-10.93a3.69,3.69,0,0,1,2.14-1.53c-8.57.43-16,5.31-24.18,6.28l.08-.45c-14.58,13.57-6.15,36.22,3.06,51.47,1.47-3.05.71-7,2.17-10C1596.2,537.23,1621,551.82,1643.24,554.17Z" transform="translate(0 -0.21)"/><path class="cls-3" d="M1544.2,463c19.33-.09,38.28,11.15,54.3,21,15.75,9.75,28.82,23.34,40.62,37.47,2.47,3,6.67-1.29,4.22-4.23-12.76-15.28-26.91-29.18-43.94-39.69-16.23-10.05-35.64-20.66-55.2-20.58-3.86,0-3.86,6,0,6Z" transform="translate(0 -0.21)"/><path class="cls-2" d="M1215,447.3a17.81,17.81,0,0,0,2.77,4.45c-1.38-9.24-3.48-19.4-4.87-28.65,18.72,16.25,55.83,44.57,52.47,73.07,1.1-2.34,3.12-5.41,4.31-8.57.9,27.35-15.65,55.95-27.49,79.32-9.39-18.46-30-52.26-25.87-73.24,2.24,1.92,7.46,5,9.62,7.74C1219.36,487.44,1209.94,462.39,1215,447.3Z" transform="translate(0 -0.21)"/><path class="cls-3" d="M1234,598.6c17-41.36,26.17-84.93,4.45-126.41-1.78-3.41-6.94-.4-5.16,3,20.94,40,11.29,82.12-5,121.81-1.46,3.56,4.32,5.1,5.76,1.59Z" transform="translate(0 -0.21)"/><path class="cls-2" d="M1335.89,421.36c2.13,2.46,1.8,7.65,2.61,10,7.6-13.28,17.57-23.09,29.52-32.74a59.07,59.07,0,0,0-4.87,16.46,5.18,5.18,0,0,1,1.81-2.19,61.73,61.73,0,0,0,2.66,17.36c1.27,5.05,5.21,9.63,5.82,14.62,1.47-1.86,2.72-5.39,3.88-7.62,4.71,11.9,6.22,31.48,2,43.69,3.33-.41,6.7-1.47,8.57-4.3-9.21,17.12-17.66,28.69-37.63,35.44a3.67,3.67,0,0,0,2.63.2c-7.57,4.05-16.45,3.71-24,7.11l.31.34c-19.5-4.1-24-27.86-24-45.66,2.83,1.86,4.2,5.59,7,7.45C1304.36,460.16,1318.05,434.86,1335.89,421.36Z" transform="translate(0 -0.21)"/><path class="cls-3" d="M1301.18,555.73c15.2-9,24.32-24.75,33-39.58,11.43-19.52,17.38-40.93,20.83-63.16.57-3.77-5.17-5.39-5.76-1.59-3.08,19.87-8,39.24-17.54,57.07-8.22,15.43-18.11,33-33.53,42.11-3.32,1.95-.31,7.12,3,5.15Z" transform="translate(0 -0.21)"/><path class="cls-3" d="M1577.6,451c-144.55,21.61-284,85.86-394.5,181.48a645.11,645.11,0,0,0-92.36,98.27h7.5c65.67-85.41,154.43-153,250.68-200.94,72.33-36,150.36-61.11,230.27-73.06C1583,456.19,1581.37,450.43,1577.6,451Z" transform="translate(0 -0.21)"/><path class="cls-4" d="M1167.32,586a2,2,0,0,0,0-4c-2.56,0-2.56,4,0,4Z" transform="translate(0 -0.21)"/><path class="cls-4" d="M1201.58,561.6a8.42,8.42,0,0,0-2.22,3.14c-.31,1-.15,2.66.87,3.26a1.58,1.58,0,0,0,2.21-1.1,5.73,5.73,0,0,1,2-2.44c1.93-1.77-1.1-4.8-2.87-2.86Z" transform="translate(0 -0.21)"/><path class="cls-4" d="M1186.22,613.61c3,0,3-4.62,0-4.62s-3,4.62,0,4.62Z" transform="translate(0 -0.21)"/><path class="cls-5" d="M1173.63,538c2.93,0,2.93-4.56,0-4.56s-2.94,4.56,0,4.56Z" transform="translate(0 -0.21)"/><path class="cls-5" d="M1188.32,487.5c2.75,0,2.75-4.27,0-4.27s-2.76,4.27,0,4.27Z" transform="translate(0 -0.21)"/><path class="cls-4" d="M1305.41,527.26a16,16,0,0,0-1.65-2,3,3,0,0,0-4.21,0,15.07,15.07,0,0,0-1.63,2c-2.07,2.71.75,6.53,3.74,6.53s5.81-3.82,3.75-6.53Z" transform="translate(0 -0.21)"/><path class="cls-4" d="M1278,467c-.34-.29-.67-.57-1-.87-7-6.1-7,11,0,4.85l1-.87a2.2,2.2,0,0,0,0-3.11Z" transform="translate(0 -0.21)"/><path class="cls-5" d="M1301.1,395.85c.43,1.4.84,3.29,2.66,3.29s2.24-1.89,2.67-3.29a2.76,2.76,0,1,0-5.33,0Z" transform="translate(0 -0.21)"/><path class="cls-6" d="M1410.75,466.52a14.67,14.67,0,0,0-1-1.08,1.5,1.5,0,0,0-2.08,0,12.66,12.66,0,0,0-1,1.08,2.9,2.9,0,1,0,4.09,0Z" transform="translate(0 -0.21)"/><path class="cls-5" d="M1480.07,354.85c4.91,0,4.91-7.62,0-7.62s-4.92,7.62,0,7.62Z" transform="translate(0 -0.21)"/><path class="cls-7" d="M1485.11,457.23c-.26-.22-.52-.46-.76-.69a3.15,3.15,0,0,0-4.36,0l-.77.69c-2.76,2.5-.55,7.12,2.94,7.12s5.7-4.62,2.95-7.12Z" transform="translate(0 -0.21)"/><path class="cls-7" d="M1470.49,417.87a4.52,4.52,0,0,0,.59-1.77,4.3,4.3,0,0,0-1.13-2.47,3.53,3.53,0,0,0-6,2.47c0,3.26,5.08,5.1,6.52,1.77Z" transform="translate(0 -0.21)"/><path class="cls-5" d="M1486.37,380.28l-.95,0c-2.85.07-2.86,4.5,0,4.44l.47,0a2.21,2.21,0,0,0,0-4.41h-.47c-2.86-.06-2.85,4.37,0,4.44l.95,0c2.89.07,2.89-4.55,0-4.48Z" transform="translate(0 -0.21)"/><path class="cls-6" d="M1616.91,336.35c-.07-.78-.14-1.56-.27-2.34-.35-2.24-4.15-2.24-4.5,0-.12.78-.18,1.56-.26,2.34-.34,3.25,5.37,3.25,5,0Z" transform="translate(0 -0.21)"/><path class="cls-6" d="M1582.21,411.13a6,6,0,0,0-.63,2.84c.57,4.4,6.28,4.4,6.86,0a6,6,0,0,0-.64-2.84,2.93,2.93,0,0,0-5.59,0Z" transform="translate(0 -0.21)"/><path class="cls-6" d="M1576.61,385.14a8.38,8.38,0,0,0,2.12-.26,2.47,2.47,0,0,0,0-4.72,9.4,9.4,0,0,0-2.12-.27c-3.39-.24-3.39,5.51,0,5.25Z" transform="translate(0 -0.21)"/><path class="cls-6" d="M1607.55,362.1l1.23-.58c3-1.41-.22-6.35-2.91-3.79-.28.25-.54.51-.8.77a1.33,1.33,0,0,0,0,1.88l.8.77c2.69,2.56,6-2.39,2.91-3.8-.41-.19-.82-.39-1.23-.57-5.8-2.69-5.8,8,0,5.32Z" transform="translate(0 -0.21)"/><path class="cls-4" d="M1664.76,311.75c3.48,0,3.48-5.38,0-5.38s-3.47,5.38,0,5.38Z" transform="translate(0 -0.21)"/><path class="cls-4" d="M1722,420.28l-.87-.14,1.64,1.63c-.6-1.57-1.61-2.83-3.45-2.83a3.47,3.47,0,1,0,0,6.93c1.84,0,2.85-1.27,3.45-2.84l-1.64,1.63.87-.13c2.12-.33,2.12-3.92,0-4.25Z" transform="translate(0 -0.21)"/><path class="cls-4" d="M1673.16,454.69c3.76,0,3.76-5.81,0-5.81s-3.74,5.81,0,5.81Z" transform="translate(0 -0.21)"/><path class="cls-5" d="M1710.87,502.16c0,.3,0,.6-.07.9.37-.64.74-1.29,1.12-1.93a3.41,3.41,0,0,0-2.2,3.13,3.32,3.32,0,0,0,6.53.88,3.4,3.4,0,0,0-2.08-4c.38.64.74,1.29,1.11,1.93,0-.3,0-.6-.07-.9a2.17,2.17,0,0,0-4.34,0Z" transform="translate(0 -0.21)"/><path class="cls-5" d="M1722.7,471.49a6.13,6.13,0,0,0,.32,1.38,2.73,2.73,0,0,0,5.22,0,6.16,6.16,0,0,0,.33-1.38c.29-1.93-.79-3.86-2.94-3.86s-3.24,1.93-2.93,3.86Z" transform="translate(0 -0.21)"/><path class="cls-4" d="M1687.86,490.73c4.19,0,4.19-6.52,0-6.52s-4.2,6.52,0,6.52Z" transform="translate(0 -0.21)"/><path class="cls-7" d="M1633.28,463.26c4,0,4-6.16,0-6.16s-4,6.16,0,6.16Z" transform="translate(0 -0.21)"/><path class="cls-7" d="M1546.68,485.93a10,10,0,0,0,1.63-.82,2.16,2.16,0,0,0,0-3.68,10.81,10.81,0,0,0-1.63-.82c-2.06-.89-4.62.11-4.62,2.66s2.56,3.54,4.62,2.66Z" transform="translate(0 -0.21)"/><path class="cls-7" d="M1521.06,483l-.57-1.86c-1.35-4.46-7.16,1.37-2.7,2.72l1.85.55a1.16,1.16,0,0,0,1.42-1.41l-.57-1.86c-1.35-4.46-7.16,1.37-2.7,2.72l1.85.55a1.16,1.16,0,0,0,1.42-1.41Z" transform="translate(0 -0.21)"/><path class="cls-7" d="M1559.82,483.72c3.29,0,3.29-5.1,0-5.1s-3.3,5.1,0,5.1Z" transform="translate(0 -0.21)"/><path class="cls-4" d="M1589.21,554.94c3.11,0,3.11-4.83,0-4.83s-3.12,4.83,0,4.83Z" transform="translate(0 -0.21)"/><path class="cls-7" d="M1647.67,596.61c0,.52,0,1,.09,1.57.3,4.8,7,.86,4-1.64-.31-.23-.59-.46-.88-.7a1.13,1.13,0,0,0-1.53,0l-.87.7c-3.08,2.5,3.64,6.44,4,1.64,0-.52.07-1,.1-1.57.19-3.12-5-3.12-4.82,0Z" transform="translate(0 -0.21)"/><path class="cls-4" d="M1564,649.33c3,0,3-4.69,0-4.69s-3,4.69,0,4.69Z" transform="translate(0 -0.21)"/><path class="cls-4" d="M1520,617a1.51,1.51,0,0,0,0-3,1.51,1.51,0,0,0,0,3Z" transform="translate(0 -0.21)"/><path class="cls-4" d="M1538.83,603c-1.45-.11-2.91-.4-3.85,1a2,2,0,0,0,0,2c.94,1.41,2.4,1.1,3.85,1a2,2,0,0,0,0-4.06Z" transform="translate(0 -0.21)"/><path class="cls-7" d="M1449.11,510.37a4.25,4.25,0,0,0,2.45-1.4,1,1,0,0,0,0-1,4.27,4.27,0,0,0-2.45-1.41c-3.19-1.14-3.19,5,0,3.84Z" transform="translate(0 -0.21)"/><path class="cls-6" d="M1403.3,510.6l-1.22.56c-.79.36.29-.07,0,0,1,1,2,2,3,3v0c-.37.5-.75,1-1.12,1.48,1.72-1.3,3.63-2.8,3.88-5.07a1.22,1.22,0,0,0-1.23-1.23,9.7,9.7,0,0,0-3.9,1.31c-.87.55-2.14,1.07-2.35,2.23-.27,1.67,1.08,3.69,3,3a16,16,0,0,0,2.34-1.17c2.74-1.48.33-5.38-2.41-4.11Z" transform="translate(0 -0.21)"/><path class="cls-7" d="M1381.4,638.56c1.57-1.63,1.57-2.51,0-4.15a2.94,2.94,0,1,0,0,4.15Z" transform="translate(0 -0.21)"/><path class="cls-5" d="M1345.74,702.08c3.37,0,3.37-5.25,0-5.25s-3.38,5.25,0,5.25Z" transform="translate(0 -0.21)"/><path class="cls-7" d="M1249.19,691.17c2.85,0,2.85-4.41,0-4.41s-2.84,4.41,0,4.41Z" transform="translate(0 -0.21)"/><path class="cls-7" d="M1249.19,646.35l-1.57.07c-6.18.28,0,8.84,2.29,4a2.38,2.38,0,0,0,0-2.68c-2.25-4.84-8.47,3.73-2.29,4l1.57.07c3.52.16,3.52-5.61,0-5.46Z" transform="translate(0 -0.21)"/><path class="cls-4" d="M1175.73,724c-1.14.07-2.33-.11-3.16.88.79-.2,1.57-.4,2.33-.61l.63.38.6,1c.2.59-.31,1.21.26.43a2.12,2.12,0,0,0,.47-1.72,1.66,1.66,0,0,0-1.13-1.1,4.29,4.29,0,0,0-3.37,1.07,2.67,2.67,0,0,0,.7,4.27l-1.1-1.42,0,.13a2.55,2.55,0,0,0,1.83,1.83,15.45,15.45,0,0,0,1.91.29c3.46.37,3.56-5.69,0-5.46Z" transform="translate(0 -0.21)"/><path class="cls-7" d="M1199.37,655.34a6,6,0,0,0,2.56-1.05,1.42,1.42,0,0,0,0-2,6.16,6.16,0,0,0-2.56-1c-3.43-.94-3.43,5.06,0,4.12Z" transform="translate(0 -0.21)"/><path class="cls-5" d="M1303.68,695.81c.1-.5.21-1,.31-1.49,1-5.1-7.46-2.55-4,1.06.26.28.5.54.77.81a1.32,1.32,0,0,0,1.87,0c.25-.27.51-.53.76-.81,3.43-3.61-5-6.16-4-1.06.1.5.2,1,.29,1.49.41,2,3.65,2,4,0Z" transform="translate(0 -0.21)"/><path class="cls-5" d="M1385.61,697.28c2.62,0,2.62-4.06,0-4.06s-2.61,4.06,0,4.06Z" transform="translate(0 -0.21)"/><path class="cls-7" d="M1352,660.77a10,10,0,0,0,2.32-.38.85.85,0,0,0,0-1.62,9.55,9.55,0,0,0-2.32-.39c-1.53-.19-1.53,2.57,0,2.39Z" transform="translate(0 -0.21)"/><path class="cls-7" d="M1347.83,567.05l-2.33.1c-3.14.14-2.54,4.93.58,4.27a5.37,5.37,0,0,0,2.25-1.26,1,1,0,0,0,0-1.68,5.24,5.24,0,0,0-2.25-1.25c-3.12-.67-3.72,4.12-.58,4.26l2.33.1c2.93.14,2.93-4.67,0-4.54Z" transform="translate(0 -0.21)"/><path class="cls-7" d="M1442.29,680.29c-1.94-.12-4.23,1-4.11,3.32a3.53,3.53,0,0,0,4.33,3.37c2.18-.4,2-3.21.56-4.25a1.79,1.79,0,0,0-.54-.33c1.47.71-1,3.91.77,2.12l-1.09.63a2.76,2.76,0,0,1,.71-.2c2.75-.53,1.92-4.52-.63-4.66Z" transform="translate(0 -0.21)"/><path class="cls-4" d="M1505.6,691.05v1.59c0,3,4.79,1.54,3.27-.89l-.74-1.15a.93.93,0,0,0-1.57,0c-.24.38-.47.77-.72,1.15-1.53,2.43,3.25,3.85,3.25.89v-1.59a1.75,1.75,0,0,0-3.49,0Z" transform="translate(0 -0.21)"/><path class="cls-4" d="M1508.78,665.87v-.58c0-1.84-2.89-1.84-2.85,0a14.1,14.1,0,0,0,.14,2.83,1.34,1.34,0,0,0,2.56,0,14.11,14.11,0,0,0,.15-2.83,1.43,1.43,0,0,0-2.85,0c0,.18,0,.38,0,.58a1.43,1.43,0,0,0,2.86,0Z" transform="translate(0 -0.21)"/><path class="cls-7" d="M1450.44,718.34c0,.53,0,1,.06,1.58.2,4.58,6.93,1,3.89-1.61l-.84-.73a1.11,1.11,0,0,0-1.53,0c-.3.24-.57.48-.85.73-3.05,2.64,3.69,6.19,3.88,1.61,0-.53,0-1,.07-1.58.14-3-4.82-3-4.68,0Z" transform="translate(0 -0.21)"/><path class="cls-4" d="M1600.24,669.93l2-.51a1.51,1.51,0,0,0,0-2.9l-2-.51c-3.27-.84-3.27,4.76,0,3.92Z" transform="translate(0 -0.21)"/><path class="cls-4" d="M1602.44,607.74c-1,1.26-2.21,3.27-.54,4.62a3.81,3.81,0,0,0,4.77-.4,1,1,0,0,0,0-1.33,2.77,2.77,0,0,0-1.49-.83c-1.19-.36.89.39-.48-.27a1.33,1.33,0,0,0-.24-.11c0,1.64.28,2.06.9,1.24,1.94-1.87-1.23-4.94-2.92-2.92Z" transform="translate(0 -0.21)"/><path class="cls-5" d="M1692.74,588.65c1.5-.25,3.35-.61,3.35-2.54s-1.85-2.28-3.35-2.53c-4.22-.71-4.22,5.78,0,5.07Z" transform="translate(0 -0.21)"/><path class="cls-5" d="M1717.24,546.14c2.57,0,2.57-4,0-4s-2.58,4,0,4Z" transform="translate(0 -0.21)"/><path class="cls-5" d="M1283.66,673.16a5.69,5.69,0,0,1-.59-.16l2.08,1.61a5,5,0,0,0-4.48-3,4.79,4.79,0,0,0-1.27,9.42c2.49.69,4.64-.7,5.75-2.87l-2.08,1.6.59-.15a3.35,3.35,0,0,0,0-6.41Z" transform="translate(0 -0.21)"/><path class="cls-2" d="M246.49,640.37c2.83-2,5.7-5.34,8.53-7.32-11.11,1.71-22.36,7.54-33.49,9.94,9.36-11.43,20.75-21.41,27.4-34.32,5.86-10.16,7.64-21.85,13.5-32-5.59,1.88-10.55,5.86-15.5,9.15C254.51,566,272.38,548,291.33,539a88.4,88.4,0,0,1-13.82.22c36-25,65.09-8.24,103.58-5.52-6,18-1.11,40.15-14.77,55.47,1.61-6.85,1.87-14.44-1.37-20.77-.67,20-24.85,61.34-48.34,61.25a53.72,53.72,0,0,0,11.6-16.19C305.41,634.05,277.92,650.4,246.49,640.37Z" transform="translate(0 -0.21)"/><path class="cls-3" d="M412.53,529.74c-25.62-6-50.21,6.19-70.39,21.06-21.75,16-40.17,36.51-56.71,57.75-2.33,3,1.86,7.26,4.22,4.22,14.73-18.91,30.89-36.8,49.43-52.07,19.62-16.15,45.55-31.35,71.86-25.21,3.75.88,5.34-4.88,1.59-5.75Z" transform="translate(0 -0.21)"/><path class="cls-2" d="M313.38,460.25s20.39-25.41,30.76-37.71c9.07-10.76,13.78-22.57,16.94-35.68-4,3.19-6.72,8.27-11,12.05,12.13-18.43,3.11-54.19-6.14-72.25-1.41,3.55-2.1,8.75-3.75,12.88-2.74-12-7.24-24.79-11.63-36.11-7.41,20.32-24.74,34.63-29.66,57.31a45.78,45.78,0,0,1-.61-13.93c-9.18,23-6.91,39.68,0,63.64a40.58,40.58,0,0,1-6.38-8c-1.76,9.57,2.16,22.07,6.3,30.56C301.78,441.26,313.38,460.25,313.38,460.25Z" transform="translate(0 -0.21)"/><path class="cls-3" d="M318.84,489.32c-3.9-7.18-2.66-16.23-2.4-24.09.36-10.65-.33-21.3.17-32,1.11-23.61,5.22-47.23,8.71-70.58.55-3.76-5.2-5.38-5.76-1.59-3.57,24-7.37,48-8.92,72.17-.73,11.29.15,22.61-.23,33.92-.29,8.49-.91,17.44,3.27,25.16,1.84,3.38,7,.36,5.16-3Z" transform="translate(0 -0.21)"/><path class="cls-2" d="M189.55,584.48a17.64,17.64,0,0,0,2.13-4.81c-6.87,6.35-14.08,13.8-21,20.14,2.92-24.61,5.48-71.23,30.94-84.46-2.56.4-6.23.45-9.52,1.24,22.11-16.12,55.07-18.5,81.05-21.84-10,18.12-26.34,54.17-46,62.56.33-2.95,0-9,1-12.32C220.31,558.32,204.89,580.2,189.55,584.48Z" transform="translate(0 -0.21)"/><path class="cls-3" d="M304.19,483.68c-43.54,9.11-85.18,26-107.09,67.22-1.81,3.41,3.34,6.42,5.16,3,21.21-39.89,61.47-55.68,103.52-64.47,3.77-.8,2.17-6.55-1.59-5.77Z" transform="translate(0 -0.21)"/><path class="cls-2" d="M41.18,389.83c4.23,2.61,8.82,3.32,13.78,3.63-6.62-10.2-15.49-18.09-21.37-29.84-4.33-9.48-6.43-24.31-15.29-30.68,14.11-.57,42.3-2.47,53.47,6.15-.82-4.56-3.54-8-5.5-12.13,20.7,8.11,46.52,28.74,52.53,50.4-.44-5-1.28-10.28-2.11-15.61,7.8,13.62,15.21,25.34,16.57,41.72,1,15.24,2.29,34.45,16.16,45.71-16.71,4.79-61.76-5.05-70.75-22.1,2.68,1.11,4.2.33,7.23-.48-9.59-4.83-18.8-9.27-27.28-16C50.91,404.58,47.38,397.37,41.18,389.83Z" transform="translate(0 -0.21)"/><path class="cls-3" d="M171.08,451c-14.06-2.27-27.74-5.95-40.11-13.18-11.32-6.62-19.14-16.39-26.09-27.27-14.82-23.23-27.36-48.36-53.16-61.18-3.45-1.71-6.47,3.44-3,5.16,27.55,13.69,39.48,42.22,55.89,66.43,14.89,22,39.56,31.71,64.91,35.79,3.76.6,5.37-5.15,1.58-5.75Z" transform="translate(0 -0.21)"/><path class="cls-2" d="M188.68,415.43a61.92,61.92,0,0,0,11.75,5.08c-23-26.46-22.66-55.57-25.32-88,4.74,3.68,10,7,15.27,10.34-1.41-2.11-.89-4.74-2.29-6.85,17.9,8.58,48.43,33.81,51.95,55,.88-4.39,1.74-8.77,3.32-12.11,21.27,53.48.41,78,.41,78-12.1-3.32-27-8.57-36.66-17.33,3.16.18,6-.18,8.59.34C205,434.18,193.25,426.82,188.68,415.43Z" transform="translate(0 -0.21)"/><path class="cls-3" d="M260.11,470.44c-13.91-11.35-23.26-28.56-32.57-43.66q-17-27.48-31.23-56.52c-1.7-3.45-6.85-.43-5.16,3,9.92,20.16,20.9,39.77,32.7,58.9,9.09,14.75,18.45,31.38,32,42.48,3,2.41,7.21-1.79,4.23-4.22Z" transform="translate(0 -0.21)"/><path class="cls-2" d="M454.14,580.59a60.54,60.54,0,0,1,9.9,8.12C430,580.4,404.26,594,374.22,606.54c5.44,2.52,10.8,5.68,16.17,8.82-2.52-.28-4.61,1.39-7.12,1.11,15.82,12,52.24,27.54,72.71,21-3.49,2.78-7,5.56-9.24,8.49,57.27-5.6,69.55-35.39,69.55-35.39-8.49-9.23-20-20.08-32.2-24.65,1.6,2.73,2.57,5.39,4.24,7.49C478.29,586.5,466.36,579.43,454.14,580.59Z" transform="translate(0 -0.21)"/><path class="cls-3" d="M562.26,629.67c-18.23-10.57-38.45-22.89-60-24.46-28.15-2-56.37-3.64-84.6-3.11-3.85.07-3.85,6,0,6,27.84-.53,55.39,1.81,83.15,3,20.94.92,40.91,13.56,58.45,23.73,3.34,1.94,6.34-3.23,3-5.16Z" transform="translate(0 -0.21)"/><path class="cls-2" d="M105.44,554.17c-.55-3.21,2.4-7.48,2.93-9.93C95,551.69,81.4,555,66.19,557.06a58.66,58.66,0,0,0,12.66-11.59,5.14,5.14,0,0,1-2.67.93,61.59,61.59,0,0,0,6.68-16.24c1.52-5,.51-10.93,2.56-15.53-2.22.85-5.12,3.23-7.26,4.53C80.27,506.53,89.09,489,99,480.71c-3-1.37-6.5-2.2-9.55-.73,16.72-9.91,29.93-15.47,50.52-10.93a3.69,3.69,0,0,0-2.14-1.53c8.56.43,16,5.31,24.18,6.28l-.08-.45c14.57,13.57,6.15,36.22-3.06,51.47-1.47-3.05-.72-7-2.17-10C152.48,537.23,127.69,551.82,105.44,554.17Z" transform="translate(0 -0.21)"/><path class="cls-3" d="M204.48,457c-19.81-.08-38.61,10.77-55.21,20.58-17.09,10.11-31.29,24.56-43.93,39.69-2.44,2.94,1.75,7.19,4.23,4.23,11.9-14.26,25-27.35,40.62-37.47s35.22-21.14,54.29-21c3.86,0,3.86-6,0-6Z" transform="translate(0 -0.21)"/><path class="cls-2" d="M533.67,447.3a17.52,17.52,0,0,1-2.78,4.45c1.38-9.24,3.49-19.4,4.87-28.65-18.72,16.25-55.84,44.57-52.47,73.07-1.1-2.34-3.11-5.41-4.31-8.57-.9,27.35,15.66,55.95,27.5,79.32,9.38-18.46,30-52.26,25.87-73.24-2.25,1.92-7.48,5-9.62,7.74C529.32,487.44,538.76,462.39,533.67,447.3Z" transform="translate(0 -0.21)"/><path class="cls-3" d="M520.47,597c-16.32-39.69-26-81.8-5.05-121.81,1.79-3.41-3.37-6.42-5.16-3-21.71,41.48-12.56,85.05,4.45,126.41,1.44,3.51,7.22,2,5.76-1.59Z" transform="translate(0 -0.21)"/><path class="cls-2" d="M412.8,421.36c-2.12,2.46-1.81,7.65-2.62,10-7.59-13.28-17.56-23.09-29.51-32.74a58.74,58.74,0,0,1,4.87,16.46,5.1,5.1,0,0,0-1.81-2.19,62.09,62.09,0,0,1-2.66,17.36c-1.27,5.05-5.22,9.63-5.83,14.62-1.46-1.86-2.72-5.39-3.87-7.62-4.72,11.9-6.22,31.48-2,43.69-3.33-.41-6.71-1.47-8.57-4.3,9.2,17.12,17.66,28.69,37.63,35.44a3.68,3.68,0,0,1-2.63.2c7.57,4.05,16.44,3.71,24,7.11l-.3.34c19.48-4.1,24-27.86,23.94-45.66-2.83,1.86-4.2,5.59-7,7.45C444.34,460.16,430.63,434.86,412.8,421.36Z" transform="translate(0 -0.21)"/><path class="cls-3" d="M450.51,550.58c-15.08-8.92-23.57-25.15-32.21-39.76-10.68-18.06-15.67-38.89-18.85-59.42-.59-3.8-6.35-2.18-5.76,1.59,3.29,21.29,8.85,42,19.46,60.84,8.74,15.58,18.55,32.55,34.35,41.9,3.33,2,6.33-3.2,3-5.15Z" transform="translate(0 -0.21)"/><path class="cls-3" d="M650.47,730.76H658c-64.61-85.38-152.12-153.45-247.18-202.07-75-38.38-156.33-65.22-239.71-77.68-3.77-.58-5.39,5.18-1.58,5.75,146.41,21.9,287.83,87.53,398.57,185.85A638.28,638.28,0,0,1,650.47,730.76Z" transform="translate(0 -0.21)"/><path class="cls-4" d="M521.92,680.57c-.06.48-.12,1-.19,1.46.38-.64.75-1.3,1.12-1.94a7.27,7.27,0,0,0-.82.61,2.77,2.77,0,1,0,3.91,0,8.3,8.3,0,0,0-.82-.61c.38.64.75,1.3,1.12,1.94-.06-.49-.12-1-.19-1.46a2.07,2.07,0,0,0-4.13,0Z" transform="translate(0 -0.21)"/><path class="cls-7" d="M568.06,664.61c3.79,0,3.79-5.88,0-5.88s-3.78,5.88,0,5.88Z" transform="translate(0 -0.21)"/><path class="cls-6" d="M553.69,572.61c.67-.14,1.33-.27,2-.42a.8.8,0,0,0,0-1.54l-2-.41a1.21,1.21,0,1,0,0,2.37Z" transform="translate(0 -0.21)"/><path class="cls-7" d="M417.48,561.07l-1.44-.46c-4.73-1.51-3.32,7.29.59,4.58l1.13-.77a1.65,1.65,0,0,0,0-2.78l-1.13-.78c-3.91-2.7-5.32,6.09-.59,4.59l1.44-.47a2,2,0,0,0,0-3.91Z" transform="translate(0 -0.21)"/><path class="cls-7" d="M459.79,522.85a5.07,5.07,0,0,0-3.46,1.53,4.35,4.35,0,0,0,0,5.94,5.05,5.05,0,0,0,3.46,1.51c2.93.44,5.89-1.19,5.89-4.49s-3-4.92-5.89-4.49Z" transform="translate(0 -0.21)"/><path class="cls-7" d="M346.15,470.72l-.59-.16,1.61,1.6a3.86,3.86,0,0,0-3.68-3.1,3.71,3.71,0,1,0,0,7.42,3.86,3.86,0,0,0,3.68-3.1L345.56,475l.59-.16a2.15,2.15,0,0,0,0-4.11Z" transform="translate(0 -0.21)"/><path class="cls-7" d="M317,506.78a16.47,16.47,0,0,1-1-1.52,2.2,2.2,0,0,0-3.76,0,14.73,14.73,0,0,1-1,1.52c-1.5,2.11.53,5,2.88,5s4.37-2.89,2.87-5Z" transform="translate(0 -0.21)"/><path class="cls-7" d="M278.42,459.09c4,0,4-6.23,0-6.23s-4,6.23,0,6.23Z" transform="translate(0 -0.21)"/><path class="cls-7" d="M228,486.07c3.61,0,3.61-5.6,0-5.6s-3.61,5.6,0,5.6Z" transform="translate(0 -0.21)"/><path class="cls-4" d="M170,417.77l-.69-.15c-.76-.23-.44.09,1,1,.1.77.2,1.52.29,2.28a5.08,5.08,0,0,0,0-2.09v1.39a16.28,16.28,0,0,0,.37-2,1.64,1.64,0,0,0-1.64-1.65c-2.2.24-5,1.16-4.44,4.22.49,2.55,3.2,2.46,5.13,2.06,2.52-.51,2.51-4.54,0-5.06Z" transform="translate(0 -0.21)"/><path class="cls-6" d="M76.93,465.12c3.65,0,3.65-5.68,0-5.68s-3.66,5.68,0,5.68Z" transform="translate(0 -0.21)"/><path class="cls-6" d="M37,443.53c2.89,0,2.89-4.47,0-4.47s-2.88,4.47,0,4.47Z" transform="translate(0 -0.21)"/><path class="cls-6" d="M65.07,436.3l-.57,1.24c-2.22,4.78,6.37,3.55,3.86,0l-.78-1.11a1.35,1.35,0,0,0-2.3,0l-.78,1.11c-2.51,3.55,6.08,4.78,3.86,0-.19-.42-.37-.83-.57-1.24a1.58,1.58,0,0,0-2.72,0Z" transform="translate(0 -0.21)"/><path class="cls-4" d="M68.53,491.49c-.49,0-1-.06-1.47-.07l2,1.16a2.93,2.93,0,1,0,0,2.37l-2,1.17,1.47-.08a2.28,2.28,0,0,0,0-4.55Z" transform="translate(0 -0.21)"/><path class="cls-4" d="M36.44,530.52q.75.94,1.5,1.92c1-.77-.07-2.6-1.23-2.11l-2.43,1c-1.9.8-1.25,3.74.87,3.17,1.3-.34,1.67-1.07,2.74-2.14a1.2,1.2,0,0,0-1.45-1.87Z" transform="translate(0 -0.21)"/><path class="cls-6" d="M93.72,598.64l-1.87-.07c-2.87-.09-2.88,4.52,0,4.47l.93,0a2.23,2.23,0,0,0,1.92-1.09,2.15,2.15,0,0,0,0-2.24,2.22,2.22,0,0,0-1.92-1.1l-.93,0c-2.88,0-2.87,4.56,0,4.47l1.87-.06a2.17,2.17,0,0,0,0-4.34Z" transform="translate(0 -0.21)"/><path class="cls-6" d="M139.79,596.61a5.76,5.76,0,0,0-.54-2.57,1.7,1.7,0,0,0-2.91,0,5.76,5.76,0,0,0-.54,2.57c-.26,2.57,4.25,2.57,4,0Z" transform="translate(0 -0.21)"/><path class="cls-6" d="M160.88,565.3h-2.1a1.93,1.93,0,0,0,0,3.85h2.1a1.93,1.93,0,0,0,0-3.85Z" transform="translate(0 -0.21)"/><path class="cls-4" d="M156.69,368.56l-1.58,0c-2.09,0-1.35,3.31.35,2.61l1.42-.57a.75.75,0,0,0,0-1.42l-1.42-.57c-1.7-.7-2.44,2.57-.35,2.61l1.58,0a1.37,1.37,0,0,0,0-2.74Z" transform="translate(0 -0.21)"/><path class="cls-6" d="M0,405.61c-.07,1.58,1.27,3,2.88,2.09s2.42-3.16,1.37-4.65a.91.91,0,0,0-1.43-.18,8.85,8.85,0,0,0-1,1.5c-.17.19-.32.39-.48.59-.48.63,1.53,1.31,1.34.29-.31-1.57-2.63-1.11-2.69.36Z" transform="translate(0 -0.21)"/><path class="cls-7" d="M88.91,297.5c.45.79.91,1.58,1.37,2.36,1.55-.7.44-3.31-1.16-2.74A5.61,5.61,0,0,0,86,299a1.67,1.67,0,0,0,.33,2.56,3.15,3.15,0,0,1,.29.22,1.65,1.65,0,0,0,2-.26l1.76-2.07c.87-1-.23-2.7-1.47-1.94Z" transform="translate(0 -0.21)"/><path class="cls-4" d="M175.58,286.22a11.73,11.73,0,0,0-2.58,0c-1.88.26-1.88,3.53,0,3.78a11.72,11.72,0,0,0,2.58,0,1.86,1.86,0,0,0,0-3.71Z" transform="translate(0 -0.21)"/><path class="cls-7" d="M271.18,341.69a9.35,9.35,0,0,1-.87.91c1.38-.36,2.76-.72,4.14-1.1h0l3,5.23a5.69,5.69,0,0,0,.05-2.66v2.17c.49-2.31-.22-5.81-3.24-5.81a4.39,4.39,0,0,0-3.43,1.62c.17-.11.32-.22.48-.34a4.18,4.18,0,0,0-1.52,1.52,8.6,8.6,0,0,0-.54,1.24c-.81,2.24.91,4.57,3,5.23s3.67-.61,5.1-1.92a4.3,4.3,0,1,0-6.08-6.09Z" transform="translate(0 -0.21)"/><path class="cls-7" d="M242.59,334.1c.51-.52,1.31-1.14,1.31-2s-.8-1.43-1.31-1.95a2.76,2.76,0,1,0,0,3.9Z" transform="translate(0 -0.21)"/><path class="cls-7" d="M293.11,316.27c3.88,0,3.88-6,0-6s-3.89,6,0,6Z" transform="translate(0 -0.21)"/><path class="cls-5" d="M417.29,364.3c-.18-.34-.35-.69-.54-1a4.79,4.79,0,0,0-5.4-2.2l1.1-.14,2.37.63h0l2.14,2.78s0,0,0,0v2.48c-.05.24-.59,1.29-.11.34a12.34,12.34,0,0,0,.51-1.18c0,.07.12-3.19.08-1.82A3,3,0,0,0,416,361.5a6.2,6.2,0,0,0-.84-.35c1.09.39-1.72-.41-1.76-.4-1.53.14-3.13.27-4.23,1.49-1.7,1.88-2,5,.1,6.82,2.31,2,5.86,1.86,7.5-1,.74-1.27,1.29-2.37.54-3.79Z" transform="translate(0 -0.21)"/><path class="cls-7" d="M463.82,405a4.22,4.22,0,1,0-4.22-4.22,4.25,4.25,0,0,0,4.22,4.22Z" transform="translate(0 -0.21)"/><path class="cls-7" d="M503,419.6c4.51,0,4.51-7,0-7s-4.52,7,0,7Z" transform="translate(0 -0.21)"/><path class="cls-7" d="M473.62,702.78c4.28,0,4.28-6.66,0-6.66s-4.29,6.66,0,6.66Z" transform="translate(0 -0.21)"/><path class="cls-5" d="M389.59,676.37a10.94,10.94,0,0,0,.1,2.06c.07-.57.14-1.14.22-1.71a.93.93,0,0,0-.1.2c-1.4,2.6,1.32,5,3.81,3.81a3.31,3.31,0,0,0,1.17-.93,1.91,1.91,0,0,0,.3-2.29l-.44-.57c-.48-.49.2.41,0,0a2.81,2.81,0,0,0-3.15-1.28l-.22.06,2.73,1.55c.08.31-.05-.74-.05-.88a2.17,2.17,0,0,0-4.34,0Z" transform="translate(0 -0.21)"/><path class="cls-7" d="M509.3,672.41c3,0,3-4.69,0-4.69s-3,4.69,0,4.69Z" transform="translate(0 -0.21)"/><path class="cls-4" d="M568.06,710.51c3.44,0,3.44-5.32,0-5.32s-3.43,5.32,0,5.32Z" transform="translate(0 -0.21)"/><path class="cls-7" d="M362.38,651l-.58,0c-2.89.13-2.91,4.62,0,4.5l2.47-.13a2.13,2.13,0,0,0,0-4.26L361.8,651c-2.91-.15-2.89,4.35,0,4.5h.58c2.93.13,2.93-4.68,0-4.55Z" transform="translate(0 -0.21)"/><path class="cls-5" d="M350.14,700.87c-.23-1.41-.67-3.27-2.46-3.27s-2.23,1.86-2.46,3.27a2.53,2.53,0,1,0,4.92,0Z" transform="translate(0 -0.21)"/><path class="cls-5" d="M305.64,663.77a21.31,21.31,0,0,0,.2,2.26c.3,2,3.63,2,3.93,0,.12-.75.15-1.5.2-2.26.18-2.8-4.51-2.8-4.33,0Z" transform="translate(0 -0.21)"/><path class="cls-6" d="M232.24,696.83c.56,0,.75,1,.36-.21a2.58,2.58,0,0,0-1.13-1.48c-1.7-1,.55.7-.15-.22-.87-1.08-1.9-.64-2.59.34-.34.43-.25.39.24-.12a2.61,2.61,0,0,0-1.13,1.48,4.53,4.53,0,0,0,.42,3,4.45,4.45,0,0,0,4,2.5c3.33.33,3.42-5.12,0-5.25Z" transform="translate(0 -0.21)"/><path class="cls-6" d="M213.54,619.7c0-.31,0-.62-.08-.93-.24-3.48-5.47-2.18-4.33.58l.17.42a2,2,0,0,0,3.91,0c.06-.14.12-.28.17-.42,1.14-2.76-4.09-4.06-4.33-.58,0,.31,0,.62-.07.93-.21,2.93,4.76,2.93,4.56,0Z" transform="translate(0 -0.21)"/><path class="cls-6" d="M173.52,654.53a10.89,10.89,0,0,0,1.14-3.35,1.19,1.19,0,0,0-1.19-1.19,11.36,11.36,0,0,0-3.35,1.14c-1.49.66-1.53,2.87-.5,3.91s3.25,1,3.9-.51Z" transform="translate(0 -0.21)"/><path class="cls-6" d="M154.58,624.1l-1.44.08c-2.31.13-2.33,3.75,0,3.62a5,5,0,0,0,2.57-.43c1-.72-.51.12.2-.14.25-.09.53-.18.77-.29a2.43,2.43,0,0,0,.52-.43.72.72,0,0,0,0-1,1.61,1.61,0,0,0-.52-.42,3.32,3.32,0,0,0-.59-.24c-.9-.33.49.4-.38-.2a5.13,5.13,0,0,0-2.57-.44c-2.33-.13-2.31,3.49,0,3.62l1.44.08c2.44.14,2.44-3.92,0-3.78Z" transform="translate(0 -0.21)"/><path class="cls-5" d="M572.26,604.72h-.73l-.29,0a3.51,3.51,0,0,1,2.92,1.79,4.45,4.45,0,0,0-3.86-2.22c-.4,0-.79.1-1.19.16-3,.47-3.92,4.27-2.68,6.58s3.54,2.67,5.83,2.67c5.78,0,5.78-8.95,0-9Z" transform="translate(0 -0.21)"/><path class="cls-6" d="M562.76,525.83c-.53-.07-2.45-.58-1,.1-2.73-1.27-6.13.2-6.13,3.52s3.4,4.77,6.13,3.52c-1.46.68.46.16,1,.09,3.59-.53,3.59-6.7,0-7.23Z" transform="translate(0 -0.21)"/><path class="cls-7" d="M429.36,674c-.06-.13-.13-.25-.19-.37.1.79.22,1.59.31,2.38,0-.16,0-.32.08-.49a2.81,2.81,0,0,0-3.4-3.39l-.49.08,2.39.3a5,5,0,0,0-5.07-.18,4.65,4.65,0,1,0,6.37,1.67Z" transform="translate(0 -0.21)"/><path class="cls-7" d="M196.57,494.64c6.54,0,6.54-10.15,0-10.15s-6.55,10.15,0,10.15Z" transform="translate(0 -0.21)"/><path class="cls-4" d="M135.7,338.59c-.6.06-1.18.15-1.78.22-3.75.46-5.2,4.81-1.92,7.09l.26.18c2,1.35,4.85,0,5.4-2.2.44-1.73.46-2.65-.58-4.14a1.68,1.68,0,0,0-1.81-.75,19,19,0,0,1-2.13.37l4.52,2.57v-1.39c0-1-.87-2.09-2-2Z" transform="translate(0 -0.21)"/><path class="cls-8" d="M1281.93,537.45c-9.52,25.1-13.5,48.1-12.07,75.48,1.25,23.71-1.39,45.41-17.89,64.19-35.16,40-137.86,58.68-181,24.4-55.72-44.25-5.57-127-42.27-177.34-34.31-47-48.86-104.55-26.59-159.8,13.31-33,35.58-60.79,39.41-96.52,3.38-31.36,10.16-63.05,12.42-94.4,1.89-26.25,5.85-42.78,21.85-65.52,23.15-32.89,67.94-48.41,104.57-37.41,57.35,17.23,61.13,69.1,68,119,3.26,23.61,5.69,47.37,9,70.88,2.73,19.08,6.6,37.5,10,56.57,4.73,27,19.15,51,25.62,77.91,6,25,11.8,52.73,9.26,78.27-2.18,21.93-11.2,41.16-19.22,61.54C1282.63,535.62,1282.28,536.53,1281.93,537.45Z" transform="translate(0 -0.21)"/><path class="cls-8" d="M1244.07,159c1.44,19.44,4.72,38.8,6.89,58.17,1.92,17.18,4.31,34.38,8.78,51.11,5.1,19.06,13.26,37.12,19.94,55.64,6,16.56,14.17,31.56,21.92,47.31,4.28,8.68,8.29,17.55,10.74,26.93s2.12,18.52,2.37,28.12a1.35,1.35,0,0,0,2.63.36c5.54-14.21-.18-31.5-5.86-44.74-7-16.4-16.31-31.7-22.76-48.36-7.23-18.71-14.43-37.54-21.34-56.37-6.25-17-9.8-34.84-12.57-52.7-3.37-21.76-4.07-44.24-9.28-65.66-.2-.8-1.52-.65-1.46.19Z" transform="translate(0 -0.21)"/><path class="cls-8" d="M1259.18,490.92c14-24.05,20-52.11,22-79.73,2.1-28.76.29-58.14-8.12-85.83-4.34-14.29-9.81-31.13-20.63-41.94a1.3,1.3,0,0,0-2.16,1.26c4.06,12.73,11.17,24.42,15.58,37.07A247.64,247.64,0,0,1,1276,362.44c4.67,27.89,2.74,57-3.65,84.4a365.08,365.08,0,0,1-13.65,43.87c-.11.3.35.48.51.21Z" transform="translate(0 -0.21)"/><path class="cls-8" d="M1027.37,282.06c12.84-28.67,16.9-59.17,21.6-89.94a253.55,253.55,0,0,1,9.47-41.55,161.82,161.82,0,0,1,8.71-21c3.12-6.29,7.9-12.28,9.58-19.13a1,1,0,0,0-1.49-1.15c-5.8,3.48-9.26,10.13-12.33,16a117.5,117.5,0,0,0-8,19.52c-4.44,14.1-6.63,28.67-8.81,43.25-4.75,31.66-8.1,63.61-19.16,93.88-.09.24.31.41.42.17Z" transform="translate(0 -0.21)"/><path class="cls-8" d="M1052,243.61c-1.24,7.2-1.38,14.5-3,21.66a113.08,113.08,0,0,1-7,20.55c-6,13.49-14.22,25.88-22.72,37.91-16.39,23.17-35.57,46.56-43.35,74.36-4.09,14.63-4.41,30.45,1.61,44.57.29.68,1.19.15,1.1-.46-2.21-14.49-2.58-28.72,1.5-42.95,3.9-13.6,10.9-26.09,18.59-37.88,15.74-24.15,35.14-46.2,46.85-72.79,5.78-13.11,11.48-30.57,7.74-45-.15-.58-1.13-.65-1.24,0Z" transform="translate(0 -0.21)"/><path class="cls-9" d="M1238.47,403.44c53.39-6.95,54.75,93.35,64.74,126.42,9.55,31.53,16.22,67.92,27.43,98.7,6.94,19,15.17,30.24-1.65,44.53s-31,4.59-36.56-7.46c-19.42-42.14-60.57-164.06-69.17-203.26C1213.92,419.79,1238.47,403.44,1238.47,403.44Z" transform="translate(0 -0.21)"/><path class="cls-8" d="M1185.8,76.41c12.35-5.21,18.5-24.23,17.92-36.28-.79-16.27-13.52-27.76-28.83-31.58-10.64-2.66-23.34-3.79-34.24-1.76-9.55,1.78-23.34,4-30.07,11.57-5.17,5.78-5.67,16.83-4.45,24,2.62,15.59,15.75,30.56,27.64,40.12Z" transform="translate(0 -0.21)"/><path class="cls-8" d="M1207.05,35.11a46.78,46.78,0,0,0-25.56-31.66,31,31,0,0,0-18.64-2.8c-5.76,1-14.66,4.65-16.06,11-.16.75.53,1.69,1.37,1.36,2.5-1,4.13-2.78,6.17-4.46a20.51,20.51,0,0,1,8.91-4.33c6.39-1.36,13.09.24,18.88,3,11,5.28,21.43,16,24.84,27.87,0,.06.1,0,.09,0Z" transform="translate(0 -0.21)"/><path class="cls-8" d="M1109.83,66.09c-1.79-5.8-4.54-11.19-5.69-17.21a34.84,34.84,0,0,1,1.46-18.43,25.32,25.32,0,0,1,7.8-11.24c4-3.19,8.86-4,13.24-6.37a1,1,0,0,0-.24-1.85c-10-1.47-19.56,7.67-23.18,16.16-5.59,13.14-.88,27.56,6.44,39,0,.08.2,0,.17-.07Z" transform="translate(0 -0.21)"/><path class="cls-8" d="M1097.67,35.49c3.11-11.63,11-25.85,23.42-29.33,10.58-3,20.22-1,30.22,2.65a.6.6,0,0,0,.67-.88c-2.87-4-8.41-4.91-13-5.5a46.48,46.48,0,0,0-19.73,1.46c-13.42,4.23-20.2,18.54-21.69,31.59,0,.05.08.06.09,0Z" transform="translate(0 -0.21)"/><path class="cls-10" d="M1091.47,230c11.76,26,17.8,141.77,16.13,166.85,14.45,24.72,58.1,19.35,61.5,14.15,2.76-4.25-23.2-96.27-5.57-121.29,15.06-21.4,22.69-30,11.59-41-20-19.79-47.11-25.72-72.85-32.16Z" transform="translate(0 -0.21)"/><path class="cls-11" d="M1059.23,383.33c-32.28,3.48-51.08,8.64-55.29,21.2-4.75,14.18,43.7,155.93,58.81,234,9.23,47.74-28.13,84-27.25,92,1.31,11.91,165.3,71.63,240.5,0,7.35-7-38.77-77.29-39.18-103.77-1-63,28.77-42.12,36.1-90.32,8.64-56.82-29.63-128.84-35.23-133.77,0,0-13-7.18-21.56-8.74-16.92-3.11-14.53,18.47-31.33,22.9-26,6.84-52.17,11.77-79.1,11.88Z" transform="translate(0 -0.21)"/><path class="cls-12" d="M1062.75,638.5c-12.18-62.9-46-167.15-56.18-212.66,9.27.2,18.41,1,27.16,3.79h0c22.79,27.69,28.76,58.33,32.5,93.09,3.68,34.15,27.61,63.35,60.65,63.35,0,0-37.65,9.81-56.85,1.18,0,0,5,76.78-32.58,145.88a4.93,4.93,0,0,1-2-2.64C1034.62,722.49,1072,686.24,1062.75,638.5Z" transform="translate(0 -0.21)"/><path class="cls-10" d="M1107.66,341.52c-3,24.64-40.36,41.83-48.43,41.81,0,0-.62,6.79,4.25,17.37,4.28,9.27,24.88,73,94.87,73s75.43-80.71,57.78-79.82c-20.87,1-53.79-24.29-56.7-45.42-1.9-13.81-17.61-2.72-31.73-5.07Z" transform="translate(0 -0.21)"/><path class="cls-12" d="M1159.58,298.73c-8.61,1.79-18.68-.1-28.08,2.08-20.71,4.81-25.45,34.18-25.45,34.18-2.5-41.31-7.51-89.38-14.58-105l10.8-13.5c25.74,6.44,52.89,12.37,72.85,32.16,11.1,11,3.47,19.65-11.59,41A28.41,28.41,0,0,0,1159.58,298.73Z" transform="translate(0 -0.21)"/><path class="cls-10" d="M1086.63,138.86c14.59-34.4,43.1-38.68,43.1-38.68a159,159,0,0,1,17.33-3v-.65c1.15.07,2.3.2,3.45.3,1.14-.1,2.29-.23,3.43-.3v.65a159.15,159.15,0,0,1,17.34,3s28.5,4.28,43.09,38.68c9.31,21.94,4.52,32.12,3.22,52.77-1.22,19.66-.58,23.61-4.13,39.6-4.53,20.38-21.67,37.29-39.26,50-8.14,5.34-16.09,7.38-23.69,7-7.61.36-15.57-1.68-23.71-7-17.57-12.73-34.72-29.64-39.25-50-3.55-16-2.91-19.94-4.13-39.6C1082.12,171,1077.32,160.8,1086.63,138.86Z" transform="translate(0 -0.21)"/><path class="cls-13" d="M1189.11,199.71c2.06,5.29,10.26,3.44,8.68-2.3s-10.71-2.9-8.68,2.3Z" transform="translate(0 -0.21)"/><path class="cls-13" d="M1121.62,200.71c2.39,5.32,10.81.75,7.82-4.37-2.89-5-10.13-.77-7.82,4.37Z" transform="translate(0 -0.21)"/><path class="cls-14" d="M1139.16,180.89c-1.42-4.69-7.86-7.42-12.46-7.74s-12.24,1.33-14.49,5.54a2.4,2.4,0,0,0,1.41,3.46c3.85,1.6,8.09-1.34,12-1.75,4.45-.47,7.6,2.87,11.81,2.72a1.77,1.77,0,0,0,1.69-2.23Z" transform="translate(0 -0.21)"/><path class="cls-14" d="M1181.86,183.12c4.19.15,7.35-3.18,11.81-2.72,4,.4,8.16,3.36,12,1.75a2.4,2.4,0,0,0,1.41-3.46c-2.25-4.22-10-5.85-14.49-5.54s-11,3-12.46,7.74a1.78,1.78,0,0,0,1.7,2.23Z" transform="translate(0 -0.21)"/><path class="cls-15" d="M1100.74,209.66c12.73-6.88,42.9,16.4,22.92,27.46S1088,216.54,1100.74,209.66Z" transform="translate(0 -0.21)"/><path class="cls-15" d="M1216.64,209.25a122.83,122.83,0,0,1-3.18,22,54.05,54.05,0,0,1-1.57,5.46c-4.76,3.09-10.78,4-17.26.43C1175.13,226.32,1203.44,203.88,1216.64,209.25Z" transform="translate(0 -0.21)"/><g class="cls-16"><path class="cls-17" d="M1179.8,182.92c-3.78,3.83-7.6,9.37-8,14.89,0,.32.42.32.53.07a79.09,79.09,0,0,1,3.52-8.07c1.28-2.33,2.8-4.5,4-6.85a0,0,0,0,0,0,0Z" transform="translate(0 -0.21)"/></g><g class="cls-16"><path class="cls-17" d="M1168.46,209.74a28.55,28.55,0,0,0,.34,12.61,39.61,39.61,0,0,1,1.31,5.34c.44,4.55-4.65,5.91-8.34,4.88-.26-.08-.35.29-.11.38,3,1.15,9.32.85,9.92-3.14.34-2.25-1-5.14-1.6-7.23a35.65,35.65,0,0,1-1.19-12.79c0-.19-.29-.23-.33,0Z" transform="translate(0 -0.21)"/></g><path class="cls-18" d="M1172.73,246c-18.89,4-37.77-5.26-37.77-5.26,3.76,11.22,29.42,19.87,32.84,11C1169,248.67,1172.73,246,1172.73,246Z" transform="translate(0 -0.21)"/><g class="cls-16"><path class="cls-19" d="M1156.32,269.56c-2.48-2.27-6.62-4.25-9.74-1.95a.63.63,0,0,0,.32,1.16c3.07.21,5.7.5,8.46,2,.76.42,1.65-.63,1-1.25Z" transform="translate(0 -0.21)"/></g><path class="cls-9" d="M1337.51,658.19c-3.64-36.74-40.39-22.06-63.79-17.74-31.78,5.85-125.36,20.32-134.82,19.11s-20-1.22-31.07-6.32c-12.84-5.88-24.22-8.81-38.29-8.07-5.19.26-15,2.1-15.48,5.52-.94,6,4.14,6.24,12.86,5.9,2.38-.08,9.34,1.86,14.16,1.39-13.67,5.09-39.93-.54-56,6.81-9.75,4.45-14.62,9.89-8.9,20.15,7,12.54,17.3,6.35,28.38,10.78,4.46,1.79,9.55,8.9,25.23,8a119.55,119.55,0,0,0,27.47-4.82c10.56-3.34,24.58-8.35,33-9.67S1251,699,1280.52,693.64C1315.51,687.33,1339,673,1337.51,658.19Z" transform="translate(0 -0.21)"/><path class="cls-10" d="M1027.39,389.62C973.67,393.38,992.2,492,988.94,526.36c-3.1,32.79-2.44,69.78-7.34,102.18-3,20-8.88,32.64,10.43,43.31s31.31-1.64,34.37-14.55c10.7-45.15,26.88-172.8,27.56-212.93C1054.68,400.77,1027.39,389.62,1027.39,389.62Z" transform="translate(0 -0.21)"/><path class="cls-20" d="M1022.6,401.44c8.09-20.14,24.5-35.36,34-55,11.26-23.32,10.81-42.51,3.81-66.84-5.27-18.28-11.67-52.52-11-71.36.64-16.65,4.16-21.32,7.37-57.53,1.83-20.61,16.58-68.19,66.37-78,37.28-7.35,79.38-1.35,104,30.33C1263,149.2,1241,204.26,1244.28,256.32c1.51,23.67,15.11,36.61,23.34,57.73,8,20.54,5.34,40.29-5.17,59-9.86,17.56-19.46,31.15-11.83,52.54,7.93,22.19,29.41,36.69,25.69,62.93-3,21.36-24.19,40.85-46.22,36-53.71-11.91-27.33-84.09-36.2-119.35-5.45-21.65-15.42-39.18-6.42-61.62,10.3-25.71,9-53.29,22-77.7,7.8-14.63,7.3-30.3,6.22-46.68-2.74-41.7-21.93-77.53-61-95.57s-58.33,36.81-65.05,77.63c-2.7.32-4.29,18-4.12,26,.38,18.7,10.87,34.09,17.82,50.84,8.14,19.63,14.72,39.24,6.21,59.66-6.86,16.48-19.36,30.36-25.23,47.37-7.88,22.88,6.84,39.59,13.62,60.59,5,15.41,2.86,35.69-12.73,44.29-19.17,10.56-57,.12-63.72-21.75C1014.8,446.73,1014,422.72,1022.6,401.44Z" transform="translate(0 -0.21)"/><path class="cls-10" d="M1089.62,201.21c-3.45-14-25-26.69-27.78-4.66-2.27,18.14,18.63,55.6,28,21.35Z" transform="translate(0 -0.21)"/><path class="cls-20" d="M1206.8,226.37c2.09-7.57.39-16-1.14-23.63a135.47,135.47,0,0,0-8.11-26.16c-8.08-19.05-20.09-36.7-36.32-49.67a134.91,134.91,0,0,0-16.69-11.33c-6-3.42-13.11-8.09-20.16-8.25a2.85,2.85,0,0,0-2,4.81c5.3,5.28,13.64,7.78,20,11.58a144.35,144.35,0,0,1,18.16,12.64c10,8.25,19.15,17.46,26.26,28.37,6.27,9.63,10.52,20.68,13.39,31.77,2.53,9.76,2.49,20.47,5.92,29.87a.33.33,0,0,0,.63,0Z" transform="translate(0 -0.21)"/><path class="cls-20" d="M1141.89,116.74c-7.83-.44-15.58,8.55-20,14.15-5.84,7.41-9.81,16.16-12.91,25a187.13,187.13,0,0,0-7.38,29.7c-1.66,9.55-3.62,19.91-2.43,29.62a1.25,1.25,0,0,0,2.45.33c3-8.62,3.59-18.21,5.09-27.18a196.12,196.12,0,0,1,6.52-27.9,96.4,96.4,0,0,1,11.8-24.9,52.82,52.82,0,0,1,8.8-10.08c3-2.64,6.42-4.24,8.74-7.57a.79.79,0,0,0-.68-1.18Z" transform="translate(0 -0.21)"/><path class="cls-20" d="M1236.42,132.5c3.89,9.06,4.84,20.4,6,30.09,1.65,13.39,2.5,26.87,3.15,40.33.55,11.17.61,22.37.84,33.55.35,16.24,3.89,32,7.31,47.81,2.27,10.47,4.57,21,5.45,31.66,1,11.79-.45,23-3.18,34.46-.27,1.16,1.52,2.06,2,.86,15.33-36.23-5.19-75.33-7.12-112-1.3-24.77-2-49.67-4.92-74.32-1.3-11-2.27-23.61-8.79-32.87a.46.46,0,0,0-.8.47Z" transform="translate(0 -0.21)"/><path class="cls-20" d="M1095.36,261.42a156.85,156.85,0,0,0,5.84,19.16c2.32,5.82,4.67,11.63,6.72,17.54,4.61,13.29,7,27.55,3.28,41.36-3.43,12.66-11.39,23.6-14.15,36.56-2.72,12.74-.84,27.16,3.35,39.43a1,1,0,0,0,1.91-.26c1.6-14.37-2.55-28.51,1.75-42.74,3.8-12.57,10.22-24.33,12.44-37.39,2.14-12.54-.23-25.43-4.31-37.33-4.33-12.66-11-24.21-15.94-36.57a.46.46,0,0,0-.89.24Z" transform="translate(0 -0.21)"/><path class="cls-20" d="M1069.79,124.53c-10.17,5.86-13.71,20.37-16.22,31-3.69,15.54-5,31.48-6.39,47.35a244,244,0,0,0-.21,39.27c1.37,18.14,4.31,36.21,4.12,54.45-.11,10.37-1.3,20.76-4.75,30.6a72.36,72.36,0,0,1-6.87,14.3c-2.87,4.59-6.67,8.43-9.48,13.06a1.53,1.53,0,0,0,2.08,2.08c7.73-4,13.65-13,17.25-20.72a82.26,82.26,0,0,0,6.71-24c2.45-18.39.2-36.95-1.8-55.27-3.22-29.55-3.71-60,1.27-89.4,2.51-14.79,6.51-29.54,14.86-42.17.24-.36-.22-.77-.57-.57Z" transform="translate(0 -0.21)"/><path class="cls-10" d="M980.74,658.93c-3.71-36.72,35.21-29.61,59-30,32.31-.56,126.91-4.9,135.93-8s19.32-5.15,29.21-12.34c11.44-8.31,22-13.44,35.92-15.5,5.16-.76,15.09-.89,16.28,2.36,2.11,5.72-2.83,6.93-11.44,8.32-2.35.39-8.78,3.68-13.6,4.18,14.41,2.27,39-8.44,56.23-4.43,10.45,2.44,16.29,6.8,12.72,18-4.38,13.68-15.69,9.65-25.68,16.19-4,2.63-7.6,10.61-23.15,12.83a119,119,0,0,1-27.89.72c-11-1.19-25.75-3.31-34.27-2.94s-116.38,33.45-146.39,34.07C1008.08,683.13,982.23,673.69,980.74,658.93Z" transform="translate(0 -0.21)"/><path class="cls-21" d="M775.33,344.82c3.08-29.1-16.06-35.46-14.85-38.68,15.24-40.61-29.39-39.37-30.51-48-.75-5.75,3.3-43.17,3-56.11-.76-35.89-5.9-72-19.64-105.17-21.1-51-100.49-74.54-144.19-27.21,0,0-27.68-10.19-43.44,22.58-15.34,31.89-11.24,77.81-10.19,112.59.4,13.57,2.05,27.08,3.25,40.58,1,11.13,3.41,20.29-2.69,30.36-4,6.61-10.76,11.46-16.58,16.34-6.28,5.26-12.89,11-14.31,19.43-1,5.94,1.73,16.81,1.73,16.81S473.54,339,475.2,355.25c3.31,32.9,46.34,52.55,58.35,36.48,9.32,24.16,30.63,25.54,51.83,29.4,40,7.3,63.13-18.05,63.13-18.05,3.63,7.76,16.74,10.91,24.14,10.11,7.16-.78,24.62-5.42,21.43-15.77-.32-.29-.33-.28-.06,0C706.73,406.17,769.57,399.34,775.33,344.82Z" transform="translate(0 -0.21)"/><path class="cls-22" d="M392,645.63c5.86-46.42,24.87-48.89,62.56-179.49,15.95-55.27,48.62-88.88,91-83.48a44.77,44.77,0,0,1,4.88.89,5.85,5.85,0,0,1,2.39,1.19c1.05.87,44.56,25.93,34.22,71.54-6.06,26.66-34.36,85.34-70.35,137.46-29.72,43-43.15,79.09-58.9,89.76C447.27,690.62,385.63,695.85,392,645.63Z" transform="translate(0 -0.21)"/><path class="cls-23" d="M829.62,664c.71-46.79-17.78-51.89-36.77-186.49-8-57-35.69-94.83-78.42-95.42a46.18,46.18,0,0,0-5,.19,5.9,5.9,0,0,0-2.53.85c-1.16.71-47.76,19.42-43.91,66,2.25,27.25,22.05,89.32,50.37,146,23.38,46.77,31.63,84.36,45.72,97.13C768.53,700.79,828.84,714.62,829.62,664Z" transform="translate(0 -0.21)"/><path class="cls-23" d="M667.93,249.43l-11-8.82c-11,1.75-22.16,3.45-33,5.77-10.83-2.32-22-4-33-5.77l-11,8.82c6.75,9.55,14.65,35.65,14.36,63.29,2.12,20.1-22.42,53.84-23.53,57.77,0,0-26.2,84.46,53.21,84.46s53.19-84.46,53.19-84.46c-1.2-4.05-25.69-36.34-23.75-55.59C656,288.64,661,259.26,667.93,249.43Z" transform="translate(0 -0.21)"/><path class="cls-12" d="M653.36,314.9c2.66-26.26,7.65-55.64,14.57-65.47l-7.26-5.81c-12.58,2-25.38,4-37.78,6.66l-31.78,30.33A156.72,156.72,0,0,1,594.17,307c13.33,8.33,30.9,7.43,31.56,7.53A51.5,51.5,0,0,1,656,330.73C654,325.08,652.88,319.61,653.36,314.9Z" transform="translate(0 -0.21)"/><path class="cls-24" d="M718.82,383.19s-21.06-6-41.56-13.93c-4.61,35.36-102.44,39.62-108.16,1.07-19.56,7.35-38.73,12.86-38.73,12.86-41.92,49.67-23.45,265.56-39.47,355.2,110.48,60.14,268,.14,268.92,0C743.53,643.51,765.22,430,718.82,383.19Z" transform="translate(0 -0.21)"/><path class="cls-23" d="M551.32,158.76c-9.25,21.79-4.47,31.88-3.2,52.39,1.22,19.53.58,23.44,4.11,39.32,4.5,20.24,21.51,37,39,49.67,28.63,18.8,55-3.34,71.33-27.44,32-47.2,29.43-95.75,18-121.5-16-37.22-51.65-38.91-86.43-30.85C594.11,120.35,565.81,124.6,551.32,158.76Z" transform="translate(0 -0.21)"/><path class="cls-21" d="M709.23,167.74c.2-10.38-1.89-20.65-6.1-28.5-3.83-7.19-8.34-8.42-14.64-12.19-7.09-4.25-12.44-10.87-19.2-15.81-13.53-9.87-29.9-15.91-46.8-14-36.91,4.2-72.33,31.11-86.84,65.13-1.72,4-5.7,6.07-9.92,4.61,7.28,3.54,20,24.44,20,16.87,0-23.42,25.33-39.87,25.33-39.87s51,26.08,82.75,34c11.12,2.75,14.2,37.29,27.71,34.2C700.09,207.89,708.86,187.63,709.23,167.74Z" transform="translate(0 -0.21)"/><path class="cls-23" d="M674.9,219c5.13-13.36,28-23.19,28-1.15,0,18.15-25.23,52.48-30.21,17.58Z" transform="translate(0 -0.21)"/><path class="cls-25" d="M630,258.68s-10.84,3.42-18,2.09a6.45,6.45,0,0,0-5.17,2c-1.87-1.2-3.47-1.88-6.05-.78a28.22,28.22,0,0,1-8.27,1.84s3.77,1.7,5.24,4.17c.49.82-2.19,4.08-.21,6.45,2.67,3.22,6.73,4.15,12.62,3.27,9.35-1.41,14.43-8.1,16.88-12.23A39.4,39.4,0,0,0,630,258.68Z" transform="translate(0 -0.21)"/><path class="cls-26" d="M576.25,215.71c-2.15-5.14-10.21-3.47-8.62,2.29s10.74,2.77,8.62-2.29Z" transform="translate(0 -0.21)"/><path class="cls-26" d="M643.26,214.72c-2.34-5.29-10.73-.75-7.76,4.34,2.88,4.92,10,.77,7.76-4.34Z" transform="translate(0 -0.21)"/><path class="cls-27" d="M627.53,201.45c4.17.14,7.3-3.16,11.72-2.71,3.94.4,8.11,3.34,12,1.75a2.39,2.39,0,0,0,1.4-3.45c-2.24-4.18-10-5.8-14.38-5.49-4.58.32-11,3-12.38,7.69a1.77,1.77,0,0,0,1.69,2.21Z" transform="translate(0 -0.21)"/><path class="cls-27" d="M585.13,199.24c-1.41-4.66-7.81-7.37-12.37-7.69s-12.15,1.32-14.38,5.49a2.39,2.39,0,0,0,1.4,3.45c3.82,1.58,8-1.34,11.94-1.75,4.42-.46,7.55,2.85,11.72,2.71a1.77,1.77,0,0,0,1.69-2.21Z" transform="translate(0 -0.21)"/><path class="cls-28" d="M664,227.8c-12.65-6.82-42.61,16.29-22.77,27.27S676.64,234.63,664,227.8Z" transform="translate(0 -0.21)"/><path class="cls-28" d="M548.9,227.39a121.75,121.75,0,0,0,3.17,21.82,51.68,51.68,0,0,0,1.56,5.43c4.72,3.06,10.7,4,17.14.43C590.13,244.33,562,222.05,548.9,227.39Z" transform="translate(0 -0.21)"/><g class="cls-16"><path class="cls-17" d="M585.43,201.29c1.22,2.33,2.73,4.49,4,6.8a80.28,80.28,0,0,1,3.51,8c.1.25.55.26.52-.07-.43-5.47-4.22-11-8-14.78,0,0-.07,0-.06,0Z" transform="translate(0 -0.21)"/></g><g class="cls-16"><path class="cls-17" d="M596.42,227.92a35.09,35.09,0,0,1-1,12.2c-.59,2.21-2.09,5.32-1.74,7.69.6,4,6.92,4.25,9.87,3.12.24-.09.15-.45-.1-.38-3.75,1-8.65-.41-8.31-4.85a36.3,36.3,0,0,1,1.31-5.3,28.45,28.45,0,0,0,.33-12.52c0-.18-.34-.14-.32,0Z" transform="translate(0 -0.21)"/></g><path class="cls-18" d="M592.52,263.9c18.75,4,37.5-5.22,37.5-5.22-3.74,11.14-29.22,19.73-32.61,10.88C596.25,266.53,592.52,263.9,592.52,263.9Z" transform="translate(0 -0.21)"/><g class="cls-16"><path class="cls-19" d="M609.76,288.52c2.75-1.52,5.36-1.81,8.41-2a.62.62,0,0,0,.31-1.15c-3.1-2.28-7.21-.32-9.67,1.93-.68.61.18,1.67,1,1.24Z" transform="translate(0 -0.21)"/></g><path class="cls-22" d="M391.5,649.7c-.31-16.83,15.91-40.71,34.71-36C453.63,601,549.93,645.4,625.93,657.89c8.75.59,23.89-1.51,35.05-6.31,12.89-5.55,24.25-8.2,38.19-7.14,5.15.39,14.8,2.44,15.25,5.85.8,6-4.27,6.09-12.91,5.56-2.36-.14-9.31,1.63-14.09,1,13.46,5.37,39.65.39,55.44,8,9.57,4.65,14.28,10.17,8.37,20.22-7.24,12.28-17.31,5.9-28.42,10.05-4.46,1.67-9.69,8.61-25.24,7.36a119.68,119.68,0,0,1-27.16-5.42c-10.39-3.56-24.21-8.86-32.54-10.36-.72-.13-177,23.43-213,4.7C388.23,672.44,391.82,666.53,391.5,649.7Z" transform="translate(0 -0.21)"/><path class="cls-23" d="M829.26,662.37c2.32-16.68-10.94-42.33-30.17-39.84-25.71-15.94-126.62,16.66-203.57,20-8.75-.46-23.53-4.36-34-10.45-12.13-7-23.1-11-37.06-11.64-5.16-.23-15,.65-15.84,4-1.5,5.86,3.51,6.55,12.15,7.05,2.36.14,9.06,2.74,13.87,2.74-14,3.71-39.42-4.36-56,1.36C468.53,639,463.2,644,467.87,654.63c5.72,13.07,16.49,7.94,27,13.38,4.23,2.19,8.58,9.71,24.16,10.32a119,119,0,0,0,27.62-2.14c10.74-2.29,25.1-5.9,33.54-6.4.74,0,173,44.38,210.93,30.09C829.78,685.33,826.92,679,829.26,662.37Z" transform="translate(0 -0.21)"/><path class="cls-29" d="M770,438.92c.31,4.89.44,9.92.44,15.23,0,68.23,78.33,83.49,133.44,79.13,35.33-2.78,66.28-16.74,77.75-52.33,10.13-31.42,7.22-62.74-1.83-93.75-6.41-22-15.31-45-2.89-66.46,10.76-18.63,17.19-34.52,12.84-56.63-2.93-14.86-10.13-28.24-10.14-43.43,0-18.17,1.94-34.73-3.61-52.59-5.78-18.59-13.12-37.41-26.76-51.62-22.42-23.31-53-20.87-82.09-17.75-29.6,3.17-54.17,26-67.61,51.61-10.66,20.33-17.14,43.65-17.38,66.5-.2,19.55,1.57,37-4.27,55.89-6.58,21.2-16.39,40.82-20.75,62.64-4.08,20.46-4.18,38.88,3.18,58.43A149.39,149.39,0,0,1,770,438.92Z" transform="translate(0 -0.21)"/><path class="cls-30" d="M983.37,400.8c-6.39-2.76-13-4.71-19.81-7-16.3-5.44-28-15.26-32.17-32.51-3.59-14.94-3.61-32.79,2.75-47.07,6.93-15.57,29.48-36.12,23.34-54.66-5.2-15.65-28.05-13.66-41.28-12.95-15.75.86-31.11,1.13-46.86,1.33-22.26.27-44.83,2.19-66.72-2.72-3.12,9.15,3.23,23,7.48,30.63,5.14,9.21,13.66,15.81,20.26,23.95,14.53,17.95,21.32,39.28,14.22,62-7.35,23.56-21.86,40.4-41.56,54.76-11.13,8.1-21.68,17.24-32.86,25.38.2,3.92.31,7.94.31,12.14,0,68.23,78.33,83.49,133.44,79.13,35.33-2.78,66.28-16.74,77.75-52.33C990.32,454.11,989.44,427.36,983.37,400.8Z" transform="translate(0 -0.21)"/><path class="cls-31" d="M969,407.88c50.55-5.46,49.75,89.22,58.51,120.64,8.36,30,22.53,96.79,32.49,126.07,6.15,18.11,13.69,28.86-2.48,42s-29.36,3.68-34.35-7.79c-17.46-40.17-62.41-188.44-69.72-225.61C945.54,422.8,969,407.88,969,407.88Z" transform="translate(0 -0.21)"/><path class="cls-32" d="M792.4,407.88c-50.54-5.46-49.75,89.22-58.5,120.64-8.36,30-22.53,96.79-32.49,126.07-6.15,18.11-13.69,28.86,2.48,42s29.36,3.68,34.35-7.79c17.46-40.17,62.4-188.44,69.71-225.61C815.9,422.8,792.4,407.88,792.4,407.88Z" transform="translate(0 -0.21)"/><path class="cls-33" d="M990.1,724.11c-21.72-86.16,20-135.69,20-190.42s-33.83-121.61-40.23-126.26c0,0-28.9-5.57-44.32-15.7-6-4-85.19-3.6-90.6,1.16-12.37,10.93-42.51,16-42.51,16-6.4,4.65-41.13,48.63-41.13,124.8s41.73,104.26,20,190.42c0,0-14.23,41,109.38,41S990.1,724.11,990.1,724.11Z" transform="translate(0 -0.21)"/><path class="cls-31" d="M922.57,286.3l-10.49-8.38c-10.42,1.66-21.07,3.29-31.36,5.49-10.29-2.2-20.94-3.83-31.36-5.49l-10.49,8.38c6.42,9.08,11.08,35.75,13.64,60.17,2,19.09-21.3,51.16-22.37,54.9,0,0-24.89,80.3,50.58,80.3s50.58-80.3,50.58-80.3c-1.14-3.84-24.43-34.53-22.59-52.83C911.23,323.58,916,295.64,922.57,286.3Z" transform="translate(0 -0.21)"/><path class="cls-12" d="M912.08,277.92c-10.42,1.66-21.07,3.29-31.36,5.49l-32.78,31.28c6.45,20.37,34.26,18.83,35,18.94,20.12,3,26.22,10.64,26.22,10.64,2.42-25.7,6.54-48.24,13.4-58Z" transform="translate(0 -0.21)"/><path class="cls-31" d="M941,187.73c-13.76-32.47-40.68-36.51-40.68-36.51A150.28,150.28,0,0,0,884,148.34v-.61c-1.08.07-2.17.19-3.25.29-1.09-.1-2.17-.22-3.24-.29v.61a150.63,150.63,0,0,0-16.37,2.88s-26.91,4-40.68,36.51c-8.78,20.71-4.25,30.31-3,49.8,1.16,18.56.54,22.29,3.9,37.38,4.28,19.23,20.46,35.2,37.05,47.22,7.68,5,15.19,7,22.37,6.63,7.18.33,14.69-1.59,22.38-6.63,16.59-12,32.77-28,37-47.22,3.35-15.09,2.75-18.82,3.9-37.38C945.27,218,949.79,208.44,941,187.73Z" transform="translate(0 -0.21)"/><path class="cls-29" d="M961.4,138.77c-24.28-66.26-81.62-44.66-81.62-44.66C858,80.18,812.27,105.7,800.14,139.55c-16.85,47-1.85,83.36-4.11,106.36s25.75,8.78,25-3.06c-2.27-33.51,34.9-33,58.87-77.73C910,208.4,942,205.91,937.31,246.58c-1.34,11.79,21.71,28.79,23.56-2.69S978.78,186.18,961.4,138.77Z" transform="translate(0 -0.21)"/><path class="cls-31" d="M823.25,246.58c-3.26-13.23-23.6-25.19-26.21-4.4-2.15,17.12,17.59,52.48,26.41,20.16Z" transform="translate(0 -0.21)"/><path class="cls-31" d="M938.19,246.58c3.25-13.23,23.6-25.19,26.21-4.4,2.15,17.12-17.58,52.48-26.41,20.16Z" transform="translate(0 -0.21)"/><path class="cls-25" d="M897.06,288.08a95.48,95.48,0,0,1-11.24-2.28,6.46,6.46,0,0,0-5.26,1.11c-1.72-1.19-3.87-1.92-5.77-1.14-3.51,1.47-11.27,2.52-11.27,2.52S865.12,304,880.33,304,897.06,288.08,897.06,288.08Z" transform="translate(0 -0.21)"/><path class="cls-18" d="M863.43,288.34a130.18,130.18,0,0,0,33.55-.21s-2.08,12-16.69,12S863.43,288.34,863.43,288.34Z" transform="translate(0 -0.21)"/><path class="cls-34" d="M904.81,228.11c4,.14,6.94-3,11.14-2.57,3.75.38,7.71,3.17,11.36,1.66a2.27,2.27,0,0,0,1.33-3.28c-2.12-4-9.46-5.51-13.67-5.22s-10.42,2.89-11.76,7.31a1.67,1.67,0,0,0,1.6,2.1Z" transform="translate(0 -0.21)"/><path class="cls-35" d="M932.86,251.05c-12-6.49-40.49,15.48-21.64,25.91S944.88,257.54,932.86,251.05Z" transform="translate(0 -0.21)"/><path class="cls-34" d="M857.36,226c-1.34-4.43-7.42-7-11.76-7.31s-11.55,1.25-13.67,5.22a2.27,2.27,0,0,0,1.33,3.28c3.64,1.5,7.64-1.27,11.36-1.66,4.2-.44,7.17,2.71,11.14,2.57a1.67,1.67,0,0,0,1.6-2.1Z" transform="translate(0 -0.21)"/><path class="cls-35" d="M827.71,251.05c12-6.49,40.5,15.48,21.64,25.91S815.69,257.54,827.71,251.05Z" transform="translate(0 -0.21)"/><g class="cls-16"><path class="cls-17" d="M862.91,227.52c3,5.38,7.15,9.78,9.51,15.57.1.24.53.25.5-.06-.68-5.92-6-11.44-10-15.55,0,0-.07,0-.05,0Z" transform="translate(0 -0.21)"/></g><g class="cls-16"><path class="cls-17" d="M875.74,254.33a34,34,0,0,1-1.23,12.48c-.47,1.72-2.08,5.25-1.36,7.07,1.42,3.63,9.43,2.46,12.05,1.36.22-.09.14-.44-.1-.36a14.78,14.78,0,0,1-7.5.12c-4-.88-3.24-3.52-2.46-6.59,1.25-4.88,1.86-9.1.91-14.12,0-.17-.33-.14-.31,0Z" transform="translate(0 -0.21)"/></g><g class="cls-16"><path class="cls-19" d="M876.56,311.3c2.61-1.44,5.09-1.72,8-1.92a.6.6,0,0,0,.3-1.1c-3-2.17-6.85-.29-9.2,1.84-.65.58.18,1.58.91,1.18Z" transform="translate(0 -0.21)"/></g><path class="cls-36" d="M849,244.69a5.91,5.91,0,0,0-5.64-3.94,5,5,0,0,0-5.14,3.94" transform="translate(0 -0.21)"/><path class="cls-36" d="M910.66,244.69a5.91,5.91,0,0,1,5.64-3.94,5,5,0,0,1,5.13,3.94" transform="translate(0 -0.21)"/><path class="cls-32" d="M695.16,685.21c-3.11-34.7,33.54-27.57,56-27.7,30.5-.18,153-9.65,161.56-12.43s18.29-4.66,27.71-11.34c10.86-7.71,20.91-12.45,34.06-14.24,4.88-.67,14.25-.68,15.34,2.4,1.93,5.42-2.74,6.5-10.88,7.73-2.23.33-8.34,3.37-12.9,3.8,13.59,2.29,36.94-7.55,53.13-3.59,9.83,2.41,15.31,6.6,11.81,17.12-4.28,12.86-14.92,8.94-24.41,15-3.82,2.44-7.29,9.93-22,11.86a113.14,113.14,0,0,1-26.32.39C947.91,673,934,670.81,926,671.08S782.6,707.77,754.26,708C720.69,708.35,696.4,699.16,695.16,685.21Z" transform="translate(0 -0.21)"/><path class="cls-31" d="M1067,682.41c1.45-34.82-34.83-25.95-57.28-25-30.47,1.27-153.28-2.36-162-4.74s-18.48-3.78-28.21-10c-11.22-7.2-21.48-11.44-34.71-12.61-4.9-.44-14.26,0-15.21,3.14-1.67,5.5,3.06,6.35,11.24,7.2,2.24.22,8.49,3,13.06,3.17-13.45,3-37.26-5.79-53.24-1-9.7,2.88-15,7.33-11,17.67,4.89,12.64,15.33,8.21,25.09,13.82,3.93,2.25,7.76,9.57,22.54,10.8a112.71,112.71,0,0,0,26.3-.86c10.31-1.74,24.08-4.56,32.13-4.68S980.71,709.1,1009,708C1042.57,706.73,1066.4,696.4,1067,682.41Z" transform="translate(0 -0.21)"/><path class="cls-37" d="M346.69,812.18c151.12,67.09,329.89,102.2,512.53,103.3v0l3.72,0c1.23,0,2.47,0,3.72,0v0c182.63-1.1,361.41-36.21,512.52-103.3,0,0-1.11-158.41,0-158.9-153,67.93-332.11,102.09-516.24,103-184.14-1-363.22-35.11-516.25-103C347.81,653.77,346.69,812.18,346.69,812.18Z" transform="translate(0 -0.21)"/></g></g></g></svg>