<svg width="80" height="88" viewBox="0 0 80 88" fill="none" xmlns="http://www.w3.org/2000/svg">
<g filter="url(#filter0_d)">
<path d="M19.6875 18.7951C14.9847 25.761 10.1278 33.5683 10.3959 41.4457C8.57702 79.3837 55.8013 88.0437 67.5622 51.9288C69.9338 43.6657 68.1632 34.643 66.9122 27.4552C61.1368 2.91128 32.9674 -2.2544 19.6875 18.7951Z" fill="#BA68C8"/>
<g clip-path="url(#clip0)">
<path fill-rule="evenodd" clip-rule="evenodd" d="M41.341 24.5862C41.341 24.2547 41.2093 23.9367 40.9749 23.7023C40.7405 23.4679 40.4226 23.3362 40.091 23.3362C39.7595 23.3362 39.4416 23.4679 39.2072 23.7023C38.9727 23.9367 38.841 24.2547 38.841 24.5862V27.5028H35.551C34.9655 27.5026 34.3935 27.6786 33.9094 28.0078L31.0844 29.9312C31.015 29.9781 30.9331 30.0031 30.8494 30.0028H24.0127C23.6812 30.0028 23.3632 30.1345 23.1288 30.369C22.8944 30.6034 22.7627 30.9213 22.7627 31.2528C22.7627 31.5844 22.8944 31.9023 23.1288 32.1367C23.3632 32.3712 23.6812 32.5028 24.0127 32.5028H26.641L21.0294 45.3028C20.9234 45.5526 20.9002 45.8298 20.9632 46.0937C21.0261 46.3577 21.172 46.5945 21.3794 46.7695C21.5127 46.8762 21.6477 46.9778 21.8944 47.1378C22.2044 47.3395 22.6477 47.6012 23.2144 47.8595C24.3477 48.3779 25.9844 48.8928 28.0077 48.8928C29.6611 48.896 31.2958 48.5436 32.801 47.8595C33.3677 47.6012 33.811 47.3395 34.121 47.1378C34.371 46.9762 34.5044 46.8745 34.6377 46.7662C34.8467 46.5931 34.9938 46.3568 35.0566 46.0928C35.1195 45.8288 35.0947 45.5515 34.986 45.3028L29.3727 32.5028H30.8494C31.4344 32.5028 32.006 32.3262 32.4894 31.9978L35.316 30.0745C35.3849 30.0279 35.4662 30.0029 35.5494 30.0028H38.841V54.1695H31.3627C31.0312 54.1695 30.7132 54.3012 30.4788 54.5356C30.2444 54.7701 30.1127 55.088 30.1127 55.4195C30.1127 55.751 30.2444 56.069 30.4788 56.3034C30.7132 56.5378 31.0312 56.6695 31.3627 56.6695H48.8194C49.1509 56.6695 49.4688 56.5378 49.7033 56.3034C49.9377 56.069 50.0694 55.751 50.0694 55.4195C50.0694 55.088 49.9377 54.7701 49.7033 54.5356C49.4688 54.3012 49.1509 54.1695 48.8194 54.1695H41.341V30.0028H44.631C44.7144 30.0028 44.7977 30.0278 44.8644 30.0745L47.6927 31.9978C48.176 32.3262 48.7477 32.5028 49.3327 32.5028H50.8094L45.196 45.3028C45.0838 45.5588 45.0606 45.845 45.1301 46.1157C45.1995 46.3863 45.3577 46.6259 45.5794 46.7962C45.5994 46.8112 45.5794 46.7962 45.5827 46.7962C45.748 46.9207 45.9205 47.0353 46.0994 47.1395C46.4077 47.3262 46.8494 47.5662 47.416 47.8062C48.9231 48.4361 50.541 48.758 52.1744 48.7528C53.8084 48.7577 55.4269 48.4352 56.9344 47.8045C57.4977 47.5662 57.941 47.3262 58.251 47.1395C58.4292 47.0343 58.6017 46.9197 58.7677 46.7962C58.9893 46.6259 59.1475 46.3863 59.217 46.1157C59.2865 45.845 59.2633 45.5588 59.151 45.3028L53.541 32.5028H56.171C56.5026 32.5028 56.8205 32.3712 57.0549 32.1367C57.2893 31.9023 57.421 31.5844 57.421 31.2528C57.421 30.9213 57.2893 30.6034 57.0549 30.369C56.8205 30.1345 56.5026 30.0028 56.171 30.0028H49.3344C49.2512 30.0028 49.1699 29.9778 49.101 29.9312L46.2727 28.0078C45.789 27.6789 45.2176 27.5029 44.6327 27.5028H41.341V24.5862ZM23.746 45.3328C25.0579 46.0309 26.5217 46.3944 28.0077 46.3912C29.4937 46.3944 30.9575 46.0309 32.2694 45.3328L28.0077 35.6162L23.746 45.3328ZM47.9294 45.2928C48.066 45.3595 48.2194 45.4312 48.3877 45.5028C49.271 45.8745 50.5627 46.2528 52.1744 46.2528C53.6437 46.257 55.0949 45.9288 56.4194 45.2928L52.1744 35.6145L47.9294 45.2928Z" fill="white"/>
</g>
</g>
<defs>
<filter id="filter0_d" x="0.862793" y="0.762207" width="78.2749" height="86.9602" filterUnits="userSpaceOnUse" color-interpolation-filters="sRGB">
<feFlood flood-opacity="0" result="BackgroundImageFix"/>
<feColorMatrix in="SourceAlpha" type="matrix" values="0 0 0 0 0 0 0 0 0 0 0 0 0 0 0 0 0 0 127 0"/>
<feOffset dy="4"/>
<feGaussianBlur stdDeviation="2"/>
<feColorMatrix type="matrix" values="0 0 0 0 0 0 0 0 0 0 0 0 0 0 0 0 0 0 0.25 0"/>
<feBlend mode="normal" in2="BackgroundImageFix" result="effect1_dropShadow"/>
<feBlend mode="normal" in="SourceGraphic" in2="effect1_dropShadow" result="shape"/>
</filter>
<clipPath id="clip0">
<rect width="40" height="40" fill="white" transform="translate(20.0911 20.0028)"/>
</clipPath>
</defs>
</svg>
