<svg width="544" height="593" viewBox="0 0 544 593" fill="none" xmlns="http://www.w3.org/2000/svg">
<g filter="url(#filter0_d)">
<path d="M138.936 338.351L82.4105 463.55L145.841 482.757L175.567 342.802L138.936 338.351Z" fill="#FBCAA2"/>
<path opacity="0.33" d="M82.4105 463.55L138.936 338.351L148.065 339.405L97.8585 469.171L82.4105 463.55Z" fill="#F4B089"/>
<path d="M182.472 380.748L201.431 372.901L141.511 198.162L123.839 203.55L182.472 380.748Z" fill="#6D4422"/>
<path opacity="0.36" d="M182.472 380.748L189.142 377.703L130.276 201.793L123.839 203.55L182.472 380.748Z" fill="#3F2613"/>
<path d="M170.417 282.604C170.417 282.604 177.79 278.973 180.248 283.189C182.589 287.405 179.312 301.694 179.312 301.694L176.386 311.766C175.801 313.64 174.397 315.162 172.641 315.514C171.12 315.865 169.715 315.162 170.183 311.297C171.12 303.568 175.333 290.333 172.29 287.523L170.417 282.604Z" fill="#FBCAA2"/>
<path d="M170.3 313.757C170.535 311.883 172.056 307.55 172.992 305.09C173.46 303.919 174.631 303.333 175.801 303.685C177.088 304.036 177.79 305.441 177.322 306.613C176.386 309.072 175.099 312.937 174.045 315.279C173.694 316.333 169.598 317.973 170.3 313.757Z" fill="#F90B0B"/>
<path d="M180.599 292.559C180.599 292.559 189.61 287.991 186.802 301.811L178.61 326.757C178.61 326.757 172.641 331.207 172.641 323.36C172.524 315.514 180.599 292.559 180.599 292.559Z" fill="#FBCAA2"/>
<path d="M173.226 327.108C173.46 325.234 174.982 320.901 175.918 318.441C176.386 317.27 177.556 316.685 178.727 317.036C180.014 317.387 180.716 318.793 180.248 319.964C179.312 322.423 178.259 325.703 176.971 327.928C175.801 330.036 172.641 331.324 173.226 327.108Z" fill="#F90B0B"/>
<path d="M186.684 301.811C186.684 301.811 196.632 298.063 193.004 313.64L185.163 331.441C185.163 331.441 181.769 339.874 178.375 337.766C174.981 335.658 178.492 326.874 178.492 326.874L186.684 301.811Z" fill="#FBCAA2"/>
<path d="M176.971 336.36C177.205 334.721 178.727 331.207 179.546 328.982C179.897 328.045 181.067 327.577 182.238 327.811C183.525 328.162 184.11 329.216 183.759 330.27C182.94 332.378 181.769 335.306 180.599 337.297C179.546 339.405 176.269 341.045 176.971 336.36Z" fill="#F90B0B"/>
<path d="M158.129 308.252C158.129 308.252 166.438 279.559 160.821 276.279C160.821 276.279 156.374 281.901 150.405 292.676C150.405 292.676 139.638 315.631 139.053 338.351C138.468 361.072 172.173 349.712 172.173 349.712L158.129 308.252Z" fill="#FBCAA2"/>
<path d="M158.129 308.252C158.129 308.252 166.438 279.559 160.821 276.279C160.821 276.279 156.374 281.901 150.405 292.676C150.405 292.676 139.638 315.631 139.053 338.351C138.468 361.072 172.173 349.712 172.173 349.712L158.129 308.252Z" fill="#FBCAA2"/>
<path d="M160.821 276.279C160.821 276.279 153.682 283.423 152.863 288.342C152.863 288.225 158.129 286.703 160.821 276.279Z" fill="#F90B0B"/>
<path opacity="0.33" d="M139.872 328.045C139.872 328.045 141.16 347.955 158.129 352.405C158.246 352.288 133.202 358.613 139.872 328.045Z" fill="#F4B089"/>
<path d="M121.733 584.649L155.789 458.279C138.468 444.928 79.9528 427.712 79.9528 427.712L27.5231 583.946C58.8873 583.946 90.3686 584.063 121.733 584.649Z" fill="#1E1D1C"/>
<path d="M43.6734 583.946L102.657 434.973L80.0699 427.712L27.5231 583.946C32.9065 583.946 38.2899 583.946 43.6734 583.946Z" fill="black"/>
<path d="M4 70.2703L69.069 257.423L219.687 203.784L156.14 16.6306L4 70.2703Z" fill="#FCFCF0"/>
<path d="M274.575 256.604C274.575 256.604 274.458 248.874 280.192 245.243C286.044 241.613 293.651 231.775 285.224 228.144L259.127 247C259.127 247 252.222 254.964 254.445 288.694L258.776 312.586L251.871 367.045L289.203 371.027L286.044 261.171L274.575 256.604Z" fill="#E18F52"/>
<path d="M260.999 336.829C264.042 326.64 264.861 315.865 263.457 305.324C262.638 298.766 261.35 292.324 259.829 285.649C257.254 274.405 256.786 258.009 262.169 247.703C264.861 242.432 274.341 242.081 273.755 236.577L273.872 236.459L259.127 247.117C259.127 247.117 252.222 255.081 254.445 288.811L258.776 312.703L251.871 367.162C251.988 367.162 255.85 354.514 260.999 336.829Z" fill="#C97E4B"/>
<path d="M259.829 280.964C259.829 280.964 272.351 280.964 275.979 265.505C275.979 265.505 270.83 276.045 259.829 280.964Z" fill="#C97E4B"/>
<path d="M270.947 238.568C270.947 238.568 276.447 230.369 283.82 228.964C283.82 228.964 284.99 229.198 285.576 230.369C286.044 231.541 285.693 232.829 284.756 233.649C282.884 235.171 278.671 238.45 274.692 239.622C273.287 239.973 271.883 239.622 270.947 238.568Z" fill="#F90B0B"/>
<path d="M274.926 165.721C274.926 165.721 271.415 350.18 273.17 350.18C274.926 350.18 293.183 350.18 293.183 350.18L297.864 162.207L274.926 165.721Z" fill="#8B490E"/>
<path d="M274.575 166.892C274.575 166.892 272.468 350.18 273.17 350.18C273.872 350.18 280.543 350.063 280.543 350.063L282.533 164.55L274.575 166.892Z" fill="#6D380C"/>
<path d="M295.874 251.802C298.683 247.82 303.949 247.234 304.534 247.82C307.811 250.631 305.822 258.712 303.832 260.234C301.843 261.757 288.15 273.586 288.15 273.586C288.15 273.586 277.617 278.973 276.33 275.928C274.575 271.829 278.32 265.27 286.044 261.054C290.023 258.946 294.236 254.261 295.874 251.802Z" fill="#E18F52"/>
<path d="M285.693 268.315L285.927 268.667C286.98 270.658 286.161 273.234 284.171 274.288C282.416 275.225 279.958 276.162 277.032 276.631C276.213 276.748 275.511 276.045 275.511 275.225C275.628 273.82 276.915 271.36 282.884 267.495C283.82 266.793 285.224 267.144 285.693 268.315Z" fill="#F90B0B"/>
<path d="M285.693 275.108C285.693 275.108 277.149 281.198 277.5 284.829C278.32 293.847 295.055 281.667 295.055 281.667L301.726 276.748C305.003 274.288 307.46 270.775 308.279 266.676C308.748 263.982 308.631 261.288 306.29 260.468C305.003 260 303.598 260.351 302.545 261.288L285.693 275.108Z" fill="#E18F52"/>
<path d="M286.161 280.378L286.395 280.73C287.448 282.486 286.746 284.712 284.873 285.766C283.235 286.586 281.011 287.523 278.437 287.991C277.149 288.225 276.096 286.937 276.681 285.766C277.266 284.477 279.022 282.486 283.352 279.793C284.288 279.207 285.576 279.441 286.161 280.378Z" fill="#F90B0B"/>
<path d="M290.257 283.892C290.257 283.892 280.075 289.279 278.437 293.027C276.915 296.775 280.777 301.108 289.789 297.009C295.406 294.432 300.438 290.333 303.481 287.757C305.822 285.649 307.577 282.955 308.397 279.91C308.865 278.036 308.982 276.045 307.811 274.874C306.992 274.054 305.705 274.054 304.769 274.64L290.257 283.892Z" fill="#E18F52"/>
<path d="M287.682 290.45L287.916 290.802C288.969 292.559 288.384 294.784 286.512 295.838C284.99 296.658 282.767 297.595 280.192 298.063C279.139 298.297 278.203 297.36 278.554 296.306C278.905 295.018 280.426 292.91 284.99 289.748C285.81 289.162 287.097 289.513 287.682 290.45Z" fill="#F90B0B"/>
<path d="M289.789 297.009C289.789 297.009 282.416 301.459 281.245 303.45C280.192 305.441 282.767 309.423 287.331 307.667C292.831 305.559 298.449 301.811 301.843 299.351C304.417 297.595 306.173 294.784 306.407 291.622C306.641 289.396 306.056 287.523 303.364 287.64L289.789 297.009Z" fill="#E18F52"/>
<path d="M288.267 302.045L288.384 302.279C289.204 303.568 288.618 305.324 287.331 306.027C286.161 306.613 284.522 307.315 282.533 307.667C281.714 307.784 281.011 307.081 281.245 306.261C281.596 305.207 282.65 303.685 286.161 301.459C286.863 301.108 287.799 301.225 288.267 302.045Z" fill="#F90B0B"/>
<path d="M248.477 359.081L301.024 360.838L309.333 582.658L228.933 585C228.933 585 220.507 417.64 248.477 359.081Z" fill="#FFBCAC"/>
<path opacity="0.56" d="M246.721 584.414C246.721 584.414 238.646 409.676 258.307 359.432L248.477 359.081C248.477 359.081 239.817 376.532 235.252 408.27C229.635 447.505 223.315 506.766 228.933 585L246.721 584.414Z" fill="#E5A69A"/>
<path d="M209.155 0.351351L208.686 198.396L368.667 197.694L370.423 0L209.155 0.351351Z" fill="#F9F9EA"/>
<g filter="url(#filter1_d)">
<path d="M285.224 85.8469C285.224 85.8469 281.714 54.9279 263.808 59.7297C246.019 64.5315 284.054 146.514 284.054 146.514C284.054 146.514 333.909 66.8739 318.461 60.9009C303.013 55.0451 285.224 85.8469 285.224 85.8469Z" fill="#83B585"/>
</g>
<g filter="url(#filter2_d)">
<path d="M107.538 131.798C107.538 131.798 96.6658 115.361 79.1423 125.655C61.7407 135.9 120.479 167.431 120.479 167.431C120.479 167.431 153.803 100.382 136.323 103.403C118.871 106.493 107.538 131.798 107.538 131.798Z" fill="#BA68C8"/>
</g>
<path d="M483.591 353.811C485.581 345.964 471.771 317.739 454.451 321.135C454.451 321.135 443.216 326.64 439.12 332.73C435.024 338.82 429.289 346.315 428.938 354.162C428.587 362.009 433.385 369.504 432.332 381.099C431.279 392.694 428.236 419.279 428.236 419.279L399.095 581.721L473.995 583.126L464.398 438.838C464.398 438.838 460.185 393.396 462.292 390C464.281 386.604 481.602 361.658 483.591 353.811Z" fill="#FBCAA2"/>
<path d="M478.208 349.126C478.208 349.126 482.304 359.198 466.037 362.243L464.515 353.342L478.208 349.126Z" fill="#E8B282"/>
<path d="M450.003 355.568C450.003 355.568 446.141 354.045 435.141 364.234L437.832 364.82C437.832 364.82 447.078 357.441 451.525 361.541L450.003 355.568Z" fill="#E8B282"/>
<path opacity="0.82" d="M430.225 401.712L416.65 581.838L399.095 581.721C399.095 581.721 420.278 462.964 430.225 401.712Z" fill="#E8B282"/>
<path d="M469.548 395.973L468.377 207.18L441.577 210.577L444.971 398.198L469.548 395.973Z" fill="#8B490E"/>
<path d="M444.971 398.198L454.802 397.261L455.153 209.405H439.003L444.971 398.198Z" fill="#512D10"/>
<path d="M475.516 316.216C474.697 315.045 473.293 314.225 471.888 314.225C468.26 314.108 460.887 314.694 453.748 318.793C443.918 324.532 440.758 328.631 444.503 329.685C448.248 330.739 460.302 324.063 466.856 321.369C466.856 321.369 445.439 333.198 447.546 338.351C449.535 343.504 466.505 332.261 471.654 329.45C471.654 329.45 447.78 345.144 450.94 351C452.812 354.279 473.761 340.459 473.761 340.459C473.761 340.459 449.535 357.324 455.27 362.126C458.898 365.171 465.92 352.288 472.356 352.64C475.633 352.757 479.378 354.865 481.368 355.099C483.357 355.45 483.474 354.045 483.474 354.045C483.474 354.045 486.517 332.73 475.516 316.216Z" fill="#FFD8BB"/>
<path d="M449.652 324.766L450.121 325.586C450.706 326.523 450.355 327.928 449.184 328.279C447.078 329.099 443.918 330.036 443.099 329.099C442.162 328.045 444.854 325.703 446.844 324.18C447.78 323.477 449.067 323.712 449.652 324.766Z" fill="#1E1D1C"/>
<path d="M453.748 334.369C454.568 335.775 453.983 337.532 452.461 338.117C450.472 338.82 447.897 339.523 447.195 338.586C446.259 337.532 448.833 335.306 450.823 333.784C451.759 333.081 453.163 333.315 453.748 334.369Z" fill="#1E1D1C"/>
<path d="M456.323 345.613C457.376 346.784 457.142 348.658 455.738 349.477C453.866 350.532 451.408 351.586 450.589 350.883C449.535 350.063 451.642 347.369 453.28 345.613C453.983 344.676 455.504 344.676 456.323 345.613Z" fill="#1E1D1C"/>
<path d="M459.366 356.856C460.302 357.676 460.185 359.081 459.249 359.784C457.845 360.838 455.855 362.009 455.036 361.541C454.217 360.955 455.504 358.73 456.557 357.207C457.259 356.27 458.547 356.153 459.366 356.856Z" fill="#1E1D1C"/>
<path d="M365.273 54.3423L380.604 251.919L540 238.45L526.073 41.2252L365.273 54.3423Z" fill="#FFBCAC"/>
<g filter="url(#filter3_d)">
<path d="M453.9 136.351C453.9 136.351 450.972 117.578 436.042 120.493C421.208 123.409 452.924 173.186 452.924 173.186C452.924 173.186 494.496 124.831 481.615 121.204C468.733 117.649 453.9 136.351 453.9 136.351Z" fill="#BA68C8"/>
</g>
</g>
<defs>
<filter id="filter0_d" x="0" y="0" width="544" height="593" filterUnits="userSpaceOnUse" color-interpolation-filters="sRGB">
<feFlood flood-opacity="0" result="BackgroundImageFix"/>
<feColorMatrix in="SourceAlpha" type="matrix" values="0 0 0 0 0 0 0 0 0 0 0 0 0 0 0 0 0 0 127 0"/>
<feOffset dy="4"/>
<feGaussianBlur stdDeviation="2"/>
<feColorMatrix type="matrix" values="0 0 0 0 0 0 0 0 0 0 0 0 0 0 0 0 0 0 0.25 0"/>
<feBlend mode="normal" in2="BackgroundImageFix" result="effect1_dropShadow"/>
<feBlend mode="normal" in="SourceGraphic" in2="effect1_dropShadow" result="shape"/>
</filter>
<filter id="filter1_d" x="255.07" y="59.2232" width="70.3604" height="95.2903" filterUnits="userSpaceOnUse" color-interpolation-filters="sRGB">
<feFlood flood-opacity="0" result="BackgroundImageFix"/>
<feColorMatrix in="SourceAlpha" type="matrix" values="0 0 0 0 0 0 0 0 0 0 0 0 0 0 0 0 0 0 127 0"/>
<feOffset dy="4"/>
<feGaussianBlur stdDeviation="2"/>
<feColorMatrix type="matrix" values="0 0 0 0 0 0 0 0 0 0 0 0 0 0 0 0 0 0 0.25 0"/>
<feBlend mode="normal" in2="BackgroundImageFix" result="effect1_dropShadow"/>
<feBlend mode="normal" in="SourceGraphic" in2="effect1_dropShadow" result="shape"/>
</filter>
<filter id="filter2_d" x="70.0911" y="101.186" width="93.3065" height="84.7272" filterUnits="userSpaceOnUse" color-interpolation-filters="sRGB">
<feFlood flood-opacity="0" result="BackgroundImageFix"/>
<feColorMatrix in="SourceAlpha" type="matrix" values="0 0 0 0 0 0 0 0 0 0 0 0 0 0 0 0 0 0 127 0"/>
<feOffset dy="4"/>
<feGaussianBlur stdDeviation="2"/>
<feColorMatrix type="matrix" values="0 0 0 0 0 0 0 0 0 0 0 0 0 0 0 0 0 0 0.25 0"/>
<feBlend mode="normal" in2="BackgroundImageFix" result="effect1_dropShadow"/>
<feBlend mode="normal" in="SourceGraphic" in2="effect1_dropShadow" result="shape"/>
</filter>
<filter id="filter3_d" x="428.091" y="120.186" width="60" height="61" filterUnits="userSpaceOnUse" color-interpolation-filters="sRGB">
<feFlood flood-opacity="0" result="BackgroundImageFix"/>
<feColorMatrix in="SourceAlpha" type="matrix" values="0 0 0 0 0 0 0 0 0 0 0 0 0 0 0 0 0 0 127 0"/>
<feOffset dy="4"/>
<feGaussianBlur stdDeviation="2"/>
<feColorMatrix type="matrix" values="0 0 0 0 0 0 0 0 0 0 0 0 0 0 0 0 0 0 0.25 0"/>
<feBlend mode="normal" in2="BackgroundImageFix" result="effect1_dropShadow"/>
<feBlend mode="normal" in="SourceGraphic" in2="effect1_dropShadow" result="shape"/>
</filter>
</defs>
</svg>
