<svg width="62" height="68" viewBox="0 0 62 68" fill="none" xmlns="http://www.w3.org/2000/svg">
<g filter="url(#filter0_d)">
<path d="M15.7694 14.2984C12.2529 19.5071 8.6212 25.345 8.82171 31.2352C7.46163 59.6031 42.7733 66.0785 51.5673 39.0739C53.3407 32.8952 52.0167 26.1486 51.0813 20.7739C46.7628 2.42141 25.6994 -1.44119 15.7694 14.2984Z" fill="#EFC0BB"/>
<path d="M38.384 33.555C37.9776 33.3493 35.9985 32.3835 35.6287 32.2457C35.2588 32.114 34.9903 32.0451 34.7207 32.4514C34.4572 32.8477 33.681 33.7546 33.4439 34.0191C33.2068 34.2836 32.9737 34.3038 32.5734 34.1245C32.1671 33.9188 30.869 33.4962 29.3277 32.114C28.1238 31.0429 27.3223 29.7235 27.0842 29.3172C26.847 28.9159 27.0578 28.6889 27.2584 28.4882C27.4429 28.3038 27.6648 28.0241 27.8705 27.7809C28.0661 27.5377 28.1289 27.3746 28.2718 27.1111C28.4035 26.8264 28.3356 26.6044 28.2353 26.4038C28.135 26.2032 27.3274 24.214 26.9899 23.4215C26.6677 22.6352 26.3302 22.7355 26.082 22.7355C25.8499 22.7142 25.5803 22.7142 25.3118 22.7142C25.0433 22.7142 24.6045 22.8145 24.2346 23.1996C23.8648 23.606 22.82 24.5767 22.82 26.5406C22.82 28.5095 24.266 30.4146 24.4667 30.6994C24.6724 30.9628 27.3111 35.0162 31.3595 36.7582C32.3252 37.1645 33.075 37.4077 33.6608 37.6083C34.6265 37.9144 35.5081 37.8718 36.2042 37.7715C36.9744 37.6448 38.5897 36.7946 38.9281 35.8451C39.2716 34.8895 39.2716 34.0981 39.1713 33.9188C39.071 33.7343 38.8075 33.634 38.4012 33.4546L38.384 33.555ZM31.0423 43.5091H31.021C28.6244 43.5091 26.2552 42.8595 24.186 41.6455L23.7006 41.3557L18.6339 42.6751L19.9958 37.7451L19.6685 37.2385C18.3303 35.1108 17.6204 32.6484 17.6205 30.1349C17.6205 22.7781 23.6428 16.777 31.0524 16.777C34.6417 16.777 38.009 18.1754 40.5424 20.7088C41.7921 21.9437 42.7834 23.415 43.4585 25.0371C44.1335 26.6591 44.4788 28.3993 44.4741 30.1562C44.464 37.508 38.4468 43.5091 31.0473 43.5091H31.0423ZM42.4687 18.7824C39.3861 15.8052 35.3328 14.1221 31.021 14.1221C22.1279 14.1221 14.8865 21.332 14.8815 30.1927C14.8815 33.022 15.6202 35.7823 17.0348 38.2255L14.7447 46.5491L23.3054 44.3167C25.6769 45.5953 28.3278 46.2678 31.022 46.2745H31.0271C39.9252 46.2745 47.1666 39.0645 47.1717 30.1978C47.1717 25.9073 45.4986 21.8691 42.4485 18.8341L42.4687 18.7824Z" fill="white"/>
</g>
<defs>
<filter id="filter0_d" x="0.684326" y="0.814453" width="60.5475" height="67.0419" filterUnits="userSpaceOnUse" color-interpolation-filters="sRGB">
<feFlood flood-opacity="0" result="BackgroundImageFix"/>
<feColorMatrix in="SourceAlpha" type="matrix" values="0 0 0 0 0 0 0 0 0 0 0 0 0 0 0 0 0 0 127 0"/>
<feOffset dy="4"/>
<feGaussianBlur stdDeviation="2"/>
<feColorMatrix type="matrix" values="0 0 0 0 0 0 0 0 0 0 0 0 0 0 0 0 0 0 0.25 0"/>
<feBlend mode="normal" in2="BackgroundImageFix" result="effect1_dropShadow"/>
<feBlend mode="normal" in="SourceGraphic" in2="effect1_dropShadow" result="shape"/>
</filter>
</defs>
</svg>
