<svg width="62" height="68" viewBox="0 0 62 68" fill="none" xmlns="http://www.w3.org/2000/svg">
<g filter="url(#filter0_d)">
<path d="M15.9027 14.2984C12.3862 19.5071 8.7545 25.345 8.95501 31.2352C7.59493 59.6031 42.9066 66.0785 51.7006 39.0739C53.474 32.8952 52.15 26.1486 51.2146 20.7739C46.8961 2.4214 25.8327 -1.44119 15.9027 14.2984Z" fill="#EFC0BB"/>
<path d="M31.0913 21.9536C28.8065 21.9536 26.6152 22.8613 24.9996 24.4769C23.384 26.0925 22.4763 28.2837 22.4763 30.5686C22.4763 32.8534 23.384 35.0446 24.9996 36.6602C26.6152 38.2759 28.8065 39.1835 31.0913 39.1835C33.3761 39.1835 35.5674 38.2759 37.183 36.6602C38.7986 35.0446 39.7062 32.8534 39.7062 30.5686C39.7062 28.2837 38.7986 26.0925 37.183 24.4769C35.5674 22.8613 33.3761 21.9536 31.0913 21.9536V21.9536ZM31.0913 36.1634C29.6069 36.1634 28.1834 35.5738 27.1338 34.5242C26.0842 33.4746 25.4946 32.051 25.4946 30.5667C25.4946 29.0824 26.0842 27.6588 27.1338 26.6092C28.1834 25.5596 29.6069 24.97 31.0913 24.97C32.5756 24.97 33.9992 25.5596 35.0488 26.6092C36.0984 27.6588 36.688 29.0824 36.688 30.5667C36.688 32.051 36.0984 33.4746 35.0488 34.5242C33.9992 35.5738 32.5756 36.1634 31.0913 36.1634V36.1634Z" fill="white"/>
<path d="M46.6667 19.7862C46.2439 18.6959 45.5977 17.7058 44.7695 16.8792C43.9413 16.0526 42.9494 15.4078 41.8573 14.986C40.5793 14.507 39.2291 14.248 37.8643 14.2201C36.1053 14.1435 35.5482 14.1216 31.0876 14.1216C26.6271 14.1216 26.0553 14.1216 24.3109 14.2201C22.9472 14.2466 21.598 14.5057 20.3216 14.986C19.2292 15.4073 18.2371 16.052 17.4088 16.8786C16.5806 17.7053 15.9346 18.6956 15.5122 19.7862C15.0324 21.0621 14.7735 22.4103 14.7469 23.7729C14.6683 25.5274 14.6446 26.0837 14.6446 30.5391C14.6446 34.9928 14.6446 35.5599 14.7469 37.3053C14.7743 38.6695 15.0318 40.0154 15.5122 41.2939C15.9357 42.384 16.5824 43.374 17.4108 44.2005C18.2393 45.0271 19.2313 45.672 20.3235 46.094C21.5974 46.5923 22.9471 46.8698 24.3146 46.9147C26.0736 46.9913 26.6307 47.015 31.0913 47.015C35.5518 47.015 36.1236 47.015 37.868 46.9147C39.2326 46.887 40.5827 46.6286 41.8609 46.1506C42.9528 45.7278 43.9444 45.0824 44.7725 44.2556C45.6006 43.4288 46.2469 42.4387 46.6704 41.3486C47.1508 40.0719 47.4083 38.726 47.4357 37.3618C47.5143 35.6074 47.538 35.0511 47.538 30.5957C47.538 26.1402 47.538 25.5748 47.4357 23.8295C47.4144 22.4476 47.1543 21.0797 46.6667 19.7862V19.7862ZM44.4419 37.1703C44.4301 38.2214 44.238 39.2626 43.8738 40.2488C43.5995 40.9581 43.1796 41.6021 42.641 42.1395C42.1024 42.6769 41.4572 43.0958 40.7467 43.3693C39.7699 43.7312 38.7381 43.9231 37.6963 43.9365C35.961 44.0167 35.4715 44.0368 31.0219 44.0368C26.5686 44.0368 26.1138 44.0368 24.3456 43.9365C23.3043 43.9238 22.273 43.7319 21.297 43.3693C20.5841 43.0975 19.9362 42.6794 19.3954 42.1418C18.8545 41.6043 18.4326 40.9594 18.1571 40.2488C17.7981 39.2732 17.6061 38.2442 17.589 37.205C17.5105 35.4724 17.4922 34.9836 17.4922 30.5409C17.4922 26.0964 17.4922 25.6423 17.589 23.8751C17.6008 22.8246 17.793 21.784 18.1571 20.7984C18.7142 19.3594 19.8559 18.2269 21.297 17.6761C22.2735 17.3153 23.3045 17.1234 24.3456 17.1089C26.0827 17.0305 26.5704 17.0086 31.0219 17.0086C35.4733 17.0086 35.9299 17.0086 37.6963 17.1089C38.7382 17.1214 39.7701 17.3133 40.7467 17.6761C41.4571 17.9502 42.1023 18.3695 42.6408 18.9072C43.1794 19.4449 43.5993 20.0891 43.8738 20.7984C44.2329 21.774 44.4249 22.803 44.4419 23.8423C44.5205 25.5767 44.5405 26.0636 44.5405 30.5081C44.5405 34.9508 44.5405 35.4286 44.462 37.1722H44.4419V37.1703Z" fill="white"/>
</g>
<defs>
<filter id="filter0_d" x="0.817627" y="0.814453" width="60.5475" height="67.0419" filterUnits="userSpaceOnUse" color-interpolation-filters="sRGB">
<feFlood flood-opacity="0" result="BackgroundImageFix"/>
<feColorMatrix in="SourceAlpha" type="matrix" values="0 0 0 0 0 0 0 0 0 0 0 0 0 0 0 0 0 0 127 0"/>
<feOffset dy="4"/>
<feGaussianBlur stdDeviation="2"/>
<feColorMatrix type="matrix" values="0 0 0 0 0 0 0 0 0 0 0 0 0 0 0 0 0 0 0.25 0"/>
<feBlend mode="normal" in2="BackgroundImageFix" result="effect1_dropShadow"/>
<feBlend mode="normal" in="SourceGraphic" in2="effect1_dropShadow" result="shape"/>
</filter>
</defs>
</svg>
